<?xml version="1.0" encoding="utf-8"?>
<!-- Generator: Adobe Illustrator 16.0.0, SVG Export Plug-In . SVG Version: 6.00 Build 0)  -->
<!DOCTYPE svg PUBLIC "-//W3C//DTD SVG 1.1//EN" "http://www.w3.org/Graphics/SVG/1.1/DTD/svg11.dtd">
<svg version="1.1" id="Layer_1" xmlns="http://www.w3.org/2000/svg" xmlns:xlink="http://www.w3.org/1999/xlink" x="0px" y="0px"
	 width="111.776px" height="20.132px" viewBox="0 0 111.776 20.132" enable-background="new 0 0 111.776 20.132"
	 xml:space="preserve">
<polygon fill="#FEDC00" stroke="#FEDC00" stroke-miterlimit="10" points="10.567,1.92 13.322,7.5 19.479,8.395 15.023,12.739 
	16.076,18.872 10.567,15.976 5.06,18.872 6.111,12.739 1.656,8.395 7.813,7.5 "/>
<polygon fill="#FEDC00" stroke="#FEDC00" stroke-miterlimit="10" points="33.303,1.92 36.057,7.5 42.214,8.395 37.758,12.739 
	38.811,18.872 33.303,15.976 27.794,18.872 28.847,12.739 24.391,8.395 30.549,7.5 "/>
<polygon fill="#FEDC00" stroke="#FEDC00" stroke-miterlimit="10" points="56.037,1.92 58.791,7.5 64.949,8.395 60.493,12.739 
	61.546,18.872 56.037,15.976 50.529,18.872 51.581,12.739 47.125,8.395 53.283,7.5 "/>
<polygon fill="#FEDC00" stroke="#FEDC00" stroke-miterlimit="10" points="78.771,1.92 81.526,7.5 87.684,8.395 83.228,12.739 
	84.28,18.872 78.771,15.976 73.264,18.872 74.316,12.739 69.86,8.395 76.018,7.5 "/>
<polygon fill="none" stroke="#FEDC00" stroke-miterlimit="10" points="101.507,1.92 104.261,7.5 110.418,8.395 105.963,12.739 
	107.016,18.872 101.507,15.976 95.998,18.872 97.051,12.739 92.595,8.395 98.753,7.5 "/>
<polygon fill="#FEDC00" stroke="#FEDC00" stroke-miterlimit="10" points="101.507,15.976 95.998,18.872 97.051,12.739 92.595,8.395 
	98.753,7.5 101.507,1.92 "/>
</svg>
