<?xml version="1.0" encoding="utf-8"?>
<!-- Generator: Adobe Illustrator 16.0.0, SVG Export Plug-In . SVG Version: 6.00 Build 0)  -->
<!DOCTYPE svg PUBLIC "-//W3C//DTD SVG 1.1//EN" "http://www.w3.org/Graphics/SVG/1.1/DTD/svg11.dtd">
<svg version="1.1" id="Layer_1" xmlns="http://www.w3.org/2000/svg" xmlns:xlink="http://www.w3.org/1999/xlink" x="0px" y="0px"
	 width="22px" height="22px" viewBox="0 0 22 22" enable-background="new 0 0 22 22" xml:space="preserve">
<polygon fill="#FEDC00" stroke="#FEDC00" stroke-miterlimit="10" points="10.912,16.451 5.403,19.346 6.456,13.213 2,8.869 
	8.158,7.975 10.912,2.395 "/>
<polygon fill="none" stroke="#FEDC00" stroke-miterlimit="10" points="11.001,2.395 13.755,7.975 19.911,8.869 15.456,13.213 
	16.509,19.346 11.001,16.451 5.492,19.346 6.544,13.213 2.088,8.869 8.247,7.975 "/>
<polygon fill="none" stroke="#FEDC00" stroke-miterlimit="10" points="10.589,2.395 13.343,7.975 19.5,8.87 15.045,13.213 
	16.098,19.346 10.589,16.451 5.08,19.346 6.133,13.213 1.677,8.87 7.835,7.975 "/>
<polygon fill="#FEDC00" stroke="#FEDC00" stroke-miterlimit="10" points="10.589,16.451 5.08,19.346 6.133,13.213 1.677,8.87 
	7.835,7.975 10.589,2.395 "/>
</svg>
