<?xml version="1.0" encoding="utf-8"?>
<!-- Generator: Adobe Illustrator 16.0.0, SVG Export Plug-In . SVG Version: 6.00 Build 0)  -->
<!DOCTYPE svg PUBLIC "-//W3C//DTD SVG 1.1//EN" "http://www.w3.org/Graphics/SVG/1.1/DTD/svg11.dtd">
<svg version="1.1" id="Layer_1" xmlns="http://www.w3.org/2000/svg" xmlns:xlink="http://www.w3.org/1999/xlink" x="0px" y="0px"
	 width="19.562px" height="30.684px" viewBox="9.074 0 19.562 30.684" enable-background="new 9.074 0 19.562 30.684"
	 xml:space="preserve">
<g>
	<path fill="#FFFFFF" stroke="#FFFFFF" stroke-width="0.25" stroke-miterlimit="10" d="M21.779,14.569l3.172-1.779l2.844,1.707
		c0.041,0.024,0.086,0.036,0.129,0.036c0.086,0,0.168-0.043,0.215-0.122c0.07-0.118,0.033-0.272-0.086-0.343l-2.6-1.56l2.695-1.513
		c0.121-0.068,0.164-0.22,0.096-0.34c-0.068-0.123-0.223-0.162-0.34-0.096l-2.691,1.51l0.061-2.951
		c0.004-0.138-0.105-0.252-0.244-0.255c-0.154,0.003-0.252,0.106-0.256,0.245l-0.066,3.244l-3.166,1.776
		C21.633,14.267,21.709,14.417,21.779,14.569z"/>
	<path fill="#FFFFFF" stroke="#FFFFFF" stroke-width="0.25" stroke-miterlimit="10" d="M12.023,12.509l-2.601,1.56
		c-0.118,0.071-0.156,0.225-0.086,0.343c0.047,0.078,0.13,0.122,0.215,0.122c0.044,0,0.088-0.011,0.129-0.036l2.845-1.707
		l3.184,1.786c0.071-0.152,0.147-0.301,0.239-0.44l-3.18-1.784l-0.066-3.244c-0.003-0.137-0.114-0.245-0.25-0.245h-0.005
		c-0.139,0.003-0.248,0.117-0.245,0.255l0.061,2.951l-2.691-1.51c-0.118-0.066-0.272-0.026-0.34,0.096
		c-0.067,0.12-0.025,0.272,0.096,0.34L12.023,12.509z"/>
	<path fill="#FFFFFF" stroke="#FFFFFF" stroke-width="0.25" stroke-miterlimit="10" d="M18.509,9.042v3.611
		c0.08-0.006,0.156-0.024,0.238-0.024c0.09,0,0.174,0.02,0.262,0.026V9.04l2.797-1.646c0.119-0.07,0.158-0.223,0.09-0.342
		c-0.072-0.119-0.225-0.159-0.344-0.088L19.01,8.46V5.375c0-0.138-0.113-0.25-0.25-0.25c-0.138,0-0.25,0.112-0.25,0.25v3.091
		l-2.632-1.504c-0.122-0.069-0.273-0.026-0.341,0.093c-0.068,0.12-0.027,0.272,0.093,0.341L18.509,9.042z"/>
	<path fill="#FFFFFF" stroke="#FFFFFF" stroke-width="0.25" stroke-miterlimit="10" d="M15.709,17.401l-3.091,1.734l-2.76-1.656
		c-0.121-0.072-0.272-0.033-0.344,0.086c-0.07,0.117-0.032,0.271,0.086,0.342l2.516,1.51l-2.79,1.564
		c-0.121,0.068-0.163,0.221-0.096,0.341c0.046,0.082,0.131,0.128,0.218,0.128c0.042,0,0.084-0.01,0.122-0.031l2.871-1.611
		l-0.062,3.05c-0.003,0.138,0.106,0.252,0.245,0.255h0.005c0.136,0,0.247-0.108,0.25-0.245l0.067-3.343l3.001-1.684
		C15.857,17.701,15.781,17.553,15.709,17.401z"/>
	<path fill="#FFFFFF" stroke="#FFFFFF" stroke-width="0.25" stroke-miterlimit="10" d="M25.359,19.416l2.516-1.51
		c0.117-0.07,0.156-0.225,0.086-0.342c-0.072-0.119-0.225-0.158-0.344-0.086l-2.76,1.656l-3.078-1.728
		c-0.07,0.151-0.146,0.302-0.238,0.44l2.986,1.676l0.068,3.343c0.002,0.137,0.113,0.245,0.25,0.245h0.004
		c0.139-0.003,0.248-0.117,0.246-0.255l-0.062-3.05l2.871,1.611c0.039,0.021,0.08,0.031,0.123,0.031
		c0.086,0,0.172-0.046,0.217-0.128c0.068-0.12,0.025-0.272-0.096-0.341L25.359,19.416z"/>
	<path fill="#FFFFFF" stroke="#FFFFFF" stroke-width="0.25" stroke-miterlimit="10" d="M19.01,22.903V19.32
		c-0.088,0.007-0.172,0.026-0.262,0.026c-0.082,0-0.158-0.018-0.238-0.023v3.482L15.626,24.5c-0.119,0.069-0.158,0.223-0.089,0.342
		c0.047,0.079,0.13,0.123,0.216,0.123c0.043,0,0.087-0.012,0.127-0.035l2.629-1.545v3.291c0,0.139,0.112,0.25,0.25,0.25
		c0.137,0,0.25-0.111,0.25-0.25v-3.197l2.547,1.453c0.119,0.068,0.271,0.026,0.34-0.093c0.068-0.12,0.027-0.272-0.092-0.341
		L19.01,22.903z"/>
</g>
</svg>
