<?xml version="1.0" encoding="utf-8"?>
<!-- Generator: Adobe Illustrator 16.0.0, SVG Export Plug-In . SVG Version: 6.00 Build 0)  -->
<!DOCTYPE svg PUBLIC "-//W3C//DTD SVG 1.1//EN" "http://www.w3.org/Graphics/SVG/1.1/DTD/svg11.dtd">
<svg version="1.1" id="Layer_1" xmlns="http://www.w3.org/2000/svg" xmlns:xlink="http://www.w3.org/1999/xlink" x="0px" y="0px"
	 width="36.985px" height="30.684px" viewBox="0.31 0 36.985 30.684" enable-background="new 0.31 0 36.985 30.684"
	 xml:space="preserve">
<g>
	<g>
		<g>
			<g>
				<path fill="#FFFFFF" stroke="#FFFFFF" stroke-width="0.25" stroke-miterlimit="10" d="M7.301,14.691
					c3.216,0,5.833,2.617,5.833,5.833c0,3.217-2.617,5.832-5.833,5.832S1.47,23.74,1.47,20.524
					C1.47,17.308,4.085,14.691,7.301,14.691 M7.301,14.191c-3.495,0-6.331,2.834-6.331,6.333c0,3.496,2.836,6.332,6.331,6.332
					c3.498,0,6.333-2.836,6.333-6.332C13.634,17.026,10.799,14.191,7.301,14.191L7.301,14.191z"/>
			</g>
		</g>
	</g>
	<g>
		<g>
			<g>
				<path fill="#FFFFFF" stroke="#FFFFFF" stroke-width="0.25" stroke-miterlimit="10" d="M30.537,14.691
					c3.216,0,5.832,2.617,5.832,5.833c0,3.217-2.616,5.832-5.832,5.832s-5.831-2.615-5.831-5.832
					C24.706,17.308,27.321,14.691,30.537,14.691 M30.537,14.191c-3.497,0-6.331,2.834-6.331,6.333c0,3.496,2.834,6.332,6.331,6.332
					s6.332-2.836,6.332-6.332C36.869,17.026,34.034,14.191,30.537,14.191L30.537,14.191z"/>
			</g>
		</g>
	</g>
	<g>
		<g>
			<circle fill="#FFFFFF" stroke="#FFFFFF" stroke-width="0.25" stroke-miterlimit="10" cx="7.561" cy="20.465" r="1.655"/>
		</g>
	</g>
	<g>
		<g>
			<circle fill="#FFFFFF" stroke="#FFFFFF" stroke-width="0.25" stroke-miterlimit="10" cx="30.108" cy="20.465" r="1.655"/>
		</g>
	</g>
	<g>
		<g>
			<path fill="#FFFFFF" stroke="#FFFFFF" stroke-width="0.25" stroke-miterlimit="10" d="M26.104,6.374c0,0-3.309-0.115-3.309,0.799
				c0,0.912,7.759,2.279,7.986,0C31.01,4.889,26.104,6.374,26.104,6.374z"/>
		</g>
	</g>
	<g>
		<g>
			<polygon fill="#FFFFFF" stroke="#FFFFFF" stroke-width="0.25" stroke-miterlimit="10" points="18.813,20.119 10.282,10.419 
				10.657,10.089 18.786,19.33 26.593,9.075 26.991,9.378 			"/>
		</g>
	</g>
	<g>
		<g>
			<polygon fill="#FFFFFF" stroke="#FFFFFF" stroke-width="0.25" stroke-miterlimit="10" points="29.887,19.84 25.366,11.149 
				10.47,11.149 10.47,10.649 25.669,10.649 30.33,19.61 			"/>
		</g>
	</g>
	<g>
		<g>
			<polygon fill="#FFFFFF" stroke="#FFFFFF" stroke-width="0.25" stroke-miterlimit="10" points="7.798,19.805 7.323,19.647 
				12.23,4.982 14.691,4.982 14.691,5.482 12.59,5.482 			"/>
		</g>
	</g>
</g>
</svg>
