<?xml version="1.0" encoding="utf-8"?>
<!-- Generator: Adobe Illustrator 16.0.0, SVG Export Plug-In . SVG Version: 6.00 Build 0)  -->
<!DOCTYPE svg PUBLIC "-//W3C//DTD SVG 1.1//EN" "http://www.w3.org/Graphics/SVG/1.1/DTD/svg11.dtd">
<svg version="1.1" id="Layer_1" xmlns="http://www.w3.org/2000/svg" xmlns:xlink="http://www.w3.org/1999/xlink" x="0px" y="0px"
	 width="22.11px" height="30.684px" viewBox="8.237 0 22.11 30.684" enable-background="new 8.237 0 22.11 30.684"
	 xml:space="preserve">
<g>
	<g>
		<g>
			<g>
				<g>
					<path fill="#FFFFFF" stroke="#FFFFFF" stroke-width="0.25" stroke-miterlimit="10" d="M23.454,25.344l-10.809-0.029
						c-3.387-1.614-3.039-4.008-3.022-4.108l-0.004-8.974h16.38l-0.291,10.754c-0.392,0.891-1.123,1.669-2.181,2.312L23.454,25.344z
						 M12.849,24.727H23.28c0.886-0.555,1.503-1.204,1.839-1.935l0.25-9.942H10.235v8.405C10.22,21.385,9.968,23.323,12.849,24.727z
						"/>
				</g>
			</g>
		</g>
		<g>
			<g>
				<path fill="#FFFFFF" stroke="#FFFFFF" stroke-width="0.25" stroke-miterlimit="10" d="M25.999,27.797H9.36
					c-0.342,0-0.616-0.276-0.616-0.617c0-0.342,0.274-0.617,0.616-0.617h16.639c0.342,0,0.617,0.275,0.617,0.617
					C26.616,27.521,26.34,27.797,25.999,27.797z"/>
			</g>
		</g>
		<g>
			<g>
				<path fill="#FFFFFF" stroke="#FFFFFF" stroke-width="0.25" stroke-miterlimit="10" d="M25.579,21.801
					c-0.17,0-0.31-0.138-0.31-0.309c0-0.17,0.14-0.31,0.31-0.31c1.975,0,3.565-1.797,3.91-3.462
					c0.102-0.493,0.219-1.689-0.873-2.159c-1.832-0.787-2.634,0.551-2.664,0.607c-0.088,0.147-0.279,0.197-0.423,0.113
					c-0.147-0.087-0.198-0.274-0.112-0.423c0.012-0.019,1.11-1.868,3.442-0.864c1.048,0.448,1.509,1.514,1.232,2.85
					C29.702,19.749,27.865,21.801,25.579,21.801z"/>
			</g>
		</g>
	</g>
	<g>
		<path fill="#FFFFFF" stroke="#FFFFFF" stroke-width="0.25" stroke-miterlimit="10" d="M16.115,10.729
			c-0.139,0-0.25-0.111-0.25-0.25V4.015c0-0.138,0.111-0.25,0.25-0.25c0.138,0,0.25,0.112,0.25,0.25v6.463
			C16.365,10.617,16.252,10.729,16.115,10.729z"/>
	</g>
	<g>
		<path fill="#FFFFFF" stroke="#FFFFFF" stroke-width="0.25" stroke-miterlimit="10" d="M18.77,10.729
			c-0.137,0-0.25-0.111-0.25-0.25V1.574c0-0.139,0.113-0.25,0.25-0.25c0.14,0,0.25,0.111,0.25,0.25v8.903
			C19.02,10.617,18.909,10.729,18.77,10.729z"/>
	</g>
</g>
</svg>
