<?xml version="1.0" encoding="utf-8"?>
<!-- Generator: Adobe Illustrator 16.0.0, SVG Export Plug-In . SVG Version: 6.00 Build 0)  -->
<!DOCTYPE svg PUBLIC "-//W3C//DTD SVG 1.1//EN" "http://www.w3.org/Graphics/SVG/1.1/DTD/svg11.dtd">
<svg version="1.1" id="Layer_1" xmlns="http://www.w3.org/2000/svg" xmlns:xlink="http://www.w3.org/1999/xlink" x="0px" y="0px"
	 width="14.696px" height="30.684px" viewBox="12.165 0 14.696 30.684" enable-background="new 12.165 0 14.696 30.684"
	 xml:space="preserve">
<g>
	<g>
		<g>
			<g>
				<path fill="#FFFFFF" stroke="#FFFFFF" stroke-width="0.25" stroke-miterlimit="10" d="M26.567,23.479H12.358V12.356h14.208
					L26.567,23.479L26.567,23.479z M12.976,22.862H25.95v-9.888H12.976V22.862z"/>
			</g>
		</g>
		<g>
			<g>
				<path fill="#FFFFFF" stroke="#FFFFFF" stroke-width="0.25" stroke-miterlimit="10" d="M20.346,18.918v1.646h-1.768v-1.646
					c-0.621-0.321-1.049-0.963-1.049-1.711c0-1.068,0.863-1.934,1.932-1.934c1.072,0,1.936,0.864,1.936,1.934
					C21.397,17.956,20.969,18.597,20.346,18.918z"/>
			</g>
		</g>
	</g>
	<g>
		<g>
			<path fill="#FFFFFF" stroke="#FFFFFF" stroke-width="0.25" stroke-miterlimit="10" d="M24.635,12.666h-0.617V9.212
				c0-2.517-2.045-4.563-4.562-4.563c-2.518,0-4.566,2.047-4.566,4.563v3.454h-0.617V9.212c0-2.857,2.326-5.181,5.184-5.181
				c2.856,0,5.18,2.323,5.18,5.181L24.635,12.666L24.635,12.666z"/>
		</g>
	</g>
</g>
</svg>
