<?xml version="1.0" encoding="utf-8"?>
<!-- Generator: Adobe Illustrator 16.0.0, SVG Export Plug-In . SVG Version: 6.00 Build 0)  -->
<!DOCTYPE svg PUBLIC "-//W3C//DTD SVG 1.1//EN" "http://www.w3.org/Graphics/SVG/1.1/DTD/svg11.dtd">
<svg version="1.1" id="Layer_1" xmlns="http://www.w3.org/2000/svg" xmlns:xlink="http://www.w3.org/1999/xlink" x="0px" y="0px"
	 width="16.328px" height="30.684px" viewBox="9.074 0 16.328 30.684" enable-background="new 9.074 0 16.328 30.684"
	 xml:space="preserve">
<g>
	<g>
		<g>
			<g>
				<g>
					
						<rect x="12.467" y="4.873" fill="#FFFFFF" stroke="#FFFFFF" stroke-width="0.25" stroke-miterlimit="10" width="0.5" height="22.427"/>
				</g>
			</g>
			<g>
				<g>
					<path fill="#FFFFFF" stroke="#FFFFFF" stroke-width="0.25" stroke-miterlimit="10" d="M12.717,11.753
						c-0.878,0-1.595-0.314-2.13-0.935C9.021,9.006,9.56,5.196,9.584,5.034l0.494,0.072c-0.005,0.038-0.529,3.747,0.888,5.386
						c0.442,0.512,1.015,0.761,1.751,0.761c0.735,0,1.305-0.248,1.743-0.759c1.406-1.64,0.854-5.349,0.849-5.386l0.494-0.076
						c0.024,0.162,0.592,3.975-0.963,5.787C14.309,11.439,13.594,11.753,12.717,11.753z"/>
				</g>
			</g>
		</g>
		<g>
			<g>
				
					<rect x="11.7" y="22.175" fill="#FFFFFF" stroke="#FFFFFF" stroke-width="0.25" stroke-miterlimit="10" width="1.793" height="5.125"/>
			</g>
		</g>
	</g>
	<g>
		<g>
			<g>
				<g>
					<path fill="#FFFFFF" stroke="#FFFFFF" stroke-width="0.25" stroke-miterlimit="10" d="M24.542,27.3h-0.5V16.733
						c-0.241,0.049-0.745,0.086-1.255-0.27c-0.926-0.644-1.395-2.218-1.395-4.677c0-5.62,1.339-7.032,1.396-7.09l0.073-0.074h1.681
						V27.3z M24.017,16.223l0.025,0.07V5.123h-0.956c-0.245,0.345-1.193,1.982-1.193,6.664c0,2.834,0.637,3.881,1.171,4.26
						C23.541,16.387,23.999,16.231,24.017,16.223z"/>
				</g>
			</g>
		</g>
		<g>
			<g>
				
					<rect x="23.396" y="22.175" fill="#FFFFFF" stroke="#FFFFFF" stroke-width="0.25" stroke-miterlimit="10" width="1.793" height="5.125"/>
			</g>
		</g>
	</g>
</g>
</svg>
