<?xml version="1.0" encoding="utf-8"?>
<!-- Generator: Adobe Illustrator 16.0.0, SVG Export Plug-In . SVG Version: 6.00 Build 0)  -->
<!DOCTYPE svg PUBLIC "-//W3C//DTD SVG 1.1//EN" "http://www.w3.org/Graphics/SVG/1.1/DTD/svg11.dtd">
<svg version="1.1" id="Layer_1" xmlns="http://www.w3.org/2000/svg" xmlns:xlink="http://www.w3.org/1999/xlink" x="0px" y="0px"
	 width="18.936px" height="30.684px" viewBox="8.969 0 18.936 30.684" enable-background="new 8.969 0 18.936 30.684"
	 xml:space="preserve">
<g>
	<g>
		<g>
			<g>
				<g>
					
						<rect x="9.519" y="6.729" fill="#FFFFFF" stroke="#FFFFFF" stroke-width="0.25" stroke-miterlimit="10" width="0.5" height="19.341"/>
				</g>
			</g>
			<g>
				<g>
					
						<rect x="27.141" y="9.256" fill="#FFFFFF" stroke="#FFFFFF" stroke-width="0.25" stroke-miterlimit="10" width="0.5" height="16.814"/>
				</g>
			</g>
			<g>
				<g>
					<path fill="#FFFFFF" stroke="#FFFFFF" stroke-width="0.25" stroke-miterlimit="10" d="M27.521,24.102H9.48v-3.968h18.042
						V24.102z M9.98,23.602h17.042v-2.968H9.98V23.602z"/>
				</g>
			</g>
			<g>
				<g>
					<path fill="#FFFFFF" stroke="#FFFFFF" stroke-width="0.25" stroke-miterlimit="10" d="M27.521,14.344H9.48v-3.968h18.042
						V14.344z M9.98,13.844h17.042v-2.968H9.98V13.844z"/>
				</g>
			</g>
			<g>
				<g>
					<g>
						<circle fill="#FFFFFF" stroke="#FFFFFF" stroke-width="0.25" stroke-miterlimit="10" cx="14.226" cy="7.847" r="1.76"/>
					</g>
				</g>
				<g>
					<g>
						<path fill="#FFFFFF" stroke="#FFFFFF" stroke-width="0.25" stroke-miterlimit="10" d="M16.484,6.619v2.855h8.336V8.245
							c0,0-0.498-1.693-2.424-1.693S16.484,6.619,16.484,6.619z"/>
					</g>
				</g>
			</g>
			<g>
				<g>
					<g>
						<circle fill="#FFFFFF" stroke="#FFFFFF" stroke-width="0.25" stroke-miterlimit="10" cx="14.226" cy="17.44" r="1.76"/>
					</g>
				</g>
				<g>
					<g>
						<path fill="#FFFFFF" stroke="#FFFFFF" stroke-width="0.25" stroke-miterlimit="10" d="M16.484,16.211v2.855h8.336v-1.229
							c0,0-0.498-1.693-2.424-1.693S16.484,16.211,16.484,16.211z"/>
					</g>
				</g>
			</g>
		</g>
	</g>
	<g>
		<g>
			
				<rect x="11.65" y="9.723" transform="matrix(0.7091 0.7052 -0.7052 0.7091 12.0878 -4.7292)" fill="#FFFFFF" stroke="#FFFFFF" stroke-width="0.25" stroke-miterlimit="10" width="0.251" height="5.121"/>
		</g>
		<g>
			
				<rect x="15.072" y="9.723" transform="matrix(0.7051 0.7091 -0.7091 0.7051 13.1906 -7.1532)" fill="#FFFFFF" stroke="#FFFFFF" stroke-width="0.25" stroke-miterlimit="10" width="0.249" height="5.121"/>
		</g>
		<g>
			
				<rect x="18.493" y="9.723" transform="matrix(0.7091 0.7052 -0.7052 0.7091 14.0788 -9.5546)" fill="#FFFFFF" stroke="#FFFFFF" stroke-width="0.25" stroke-miterlimit="10" width="0.251" height="5.121"/>
		</g>
		<g>
			
				<rect x="21.913" y="9.723" transform="matrix(0.7091 0.7052 -0.7052 0.7091 15.0739 -11.9664)" fill="#FFFFFF" stroke="#FFFFFF" stroke-width="0.25" stroke-miterlimit="10" width="0.251" height="5.121"/>
		</g>
		<g>
			
				<rect x="25.335" y="9.723" transform="matrix(0.7091 0.7052 -0.7052 0.7091 16.0694 -14.3793)" fill="#FFFFFF" stroke="#FFFFFF" stroke-width="0.25" stroke-miterlimit="10" width="0.251" height="5.121"/>
		</g>
	</g>
	<g>
		<g>
			
				<rect x="11.65" y="19.557" transform="matrix(0.711 0.7032 -0.7032 0.711 18.9557 -1.8881)" fill="#FFFFFF" stroke="#FFFFFF" stroke-width="0.25" stroke-miterlimit="10" width="0.25" height="5.121"/>
		</g>
		<g>
			
				<rect x="15.072" y="19.557" transform="matrix(0.7071 0.7071 -0.7071 0.7071 20.0903 -4.2674)" fill="#FFFFFF" stroke="#FFFFFF" stroke-width="0.25" stroke-miterlimit="10" width="0.249" height="5.122"/>
		</g>
		<g>
			
				<rect x="18.493" y="19.557" transform="matrix(0.711 0.7032 -0.7032 0.711 20.9333 -6.7)" fill="#FFFFFF" stroke="#FFFFFF" stroke-width="0.25" stroke-miterlimit="10" width="0.25" height="5.121"/>
		</g>
		<g>
			
				<rect x="21.913" y="19.557" transform="matrix(0.711 0.7032 -0.7032 0.711 21.9217 -9.1051)" fill="#FFFFFF" stroke="#FFFFFF" stroke-width="0.25" stroke-miterlimit="10" width="0.25" height="5.121"/>
		</g>
		<g>
			
				<rect x="25.335" y="19.557" transform="matrix(0.711 0.7032 -0.7032 0.711 22.9106 -11.5113)" fill="#FFFFFF" stroke="#FFFFFF" stroke-width="0.25" stroke-miterlimit="10" width="0.25" height="5.121"/>
		</g>
	</g>
</g>
</svg>
