<?xml version="1.0" encoding="utf-8"?>
<!-- Generator: Adobe Illustrator 16.0.0, SVG Export Plug-In . SVG Version: 6.00 Build 0)  -->
<!DOCTYPE svg PUBLIC "-//W3C//DTD SVG 1.1//EN" "http://www.w3.org/Graphics/SVG/1.1/DTD/svg11.dtd">
<svg version="1.1" id="Layer_1" xmlns="http://www.w3.org/2000/svg" xmlns:xlink="http://www.w3.org/1999/xlink" x="0px" y="0px"
	 width="19.823px" height="30.684px" viewBox="9.074 0 19.823 30.684" enable-background="new 9.074 0 19.823 30.684"
	 xml:space="preserve">
<g>
	<g>
		<g>
			<path fill="#FFFFFF" stroke="#FFFFFF" stroke-width="0.25" stroke-miterlimit="10" d="M28.896,28.691H9.199V4.125h19.698V28.691z
				 M9.699,28.191h18.698V4.625H9.699V28.191z"/>
		</g>
	</g>
	<g>
		<g>
			<g>
				<path fill="#FFFFFF" stroke="#FFFFFF" stroke-width="0.25" stroke-miterlimit="10" d="M19.238,25.823
					c-3.792,0-6.875-3.083-6.875-6.874s3.084-6.875,6.875-6.875c3.789,0,6.873,3.084,6.873,6.875S23.027,25.823,19.238,25.823z
					 M19.238,12.574c-3.516,0-6.375,2.86-6.375,6.375c0,3.515,2.859,6.374,6.375,6.374c3.514,0,6.373-2.859,6.373-6.374
					C25.611,15.434,22.752,12.574,19.238,12.574z"/>
			</g>
		</g>
		<g>
			<g>
				<path fill="#FFFFFF" stroke="#FFFFFF" stroke-width="0.25" stroke-miterlimit="10" d="M13.423,18.949
					c0,3.21,2.604,5.812,5.815,5.812c3.211,0,5.812-2.603,5.812-5.812c0,0-1.568,1.973-4.057,0.839
					c-2.487-1.136-4.813-2.435-7.192-1.298L13.423,18.949z"/>
			</g>
		</g>
		<g>
			<g>
				
					<rect x="11.369" y="9.858" fill="#FFFFFF" stroke="#FFFFFF" stroke-width="0.25" stroke-miterlimit="10" width="15.358" height="0.5"/>
			</g>
		</g>
		<g>
			<g>
				<circle fill="#FFFFFF" stroke="#FFFFFF" stroke-width="0.25" stroke-miterlimit="10" cx="21.698" cy="7.403" r="0.974"/>
			</g>
		</g>
		<g>
			<g>
				<circle fill="#FFFFFF" stroke="#FFFFFF" stroke-width="0.25" stroke-miterlimit="10" cx="25.051" cy="7.403" r="0.975"/>
			</g>
		</g>
	</g>
</g>
</svg>
