<?xml version="1.0" encoding="utf-8"?>
<!-- Generator: Adobe Illustrator 16.0.0, SVG Export Plug-In . SVG Version: 6.00 Build 0)  -->
<!DOCTYPE svg PUBLIC "-//W3C//DTD SVG 1.1//EN" "http://www.w3.org/Graphics/SVG/1.1/DTD/svg11.dtd">
<svg version="1.1" id="Layer_1" xmlns="http://www.w3.org/2000/svg" xmlns:xlink="http://www.w3.org/1999/xlink" x="0px" y="0px"
	 width="26.291px" height="30.684px" viewBox="5.318 0 26.291 30.684" enable-background="new 5.318 0 26.291 30.684"
	 xml:space="preserve">
<g>
	<g>
		<g>
			<g>
				<path fill="#FFFFFF" stroke="#FFFFFF" stroke-width="0.25" stroke-miterlimit="10" d="M26.221,11.884H9.763V5.837h16.458V11.884
					z M10.263,11.384h15.458V6.337H10.263V11.384z"/>
			</g>
		</g>
		<g>
			<g>
				<path fill="#FFFFFF" stroke="#FFFFFF" stroke-width="0.25" stroke-miterlimit="10" d="M30.832,24.164H6.023v-5.486h24.809
					V24.164z M6.523,23.664h23.809v-4.486H6.523V23.664z"/>
			</g>
		</g>
		<g>
			<g>
				<path fill="#FFFFFF" stroke="#FFFFFF" stroke-width="0.25" stroke-miterlimit="10" d="M31.035,19.178H5.864l3.997-7.794h16.247
					L31.035,19.178z M6.682,18.678h23.445l-4.295-6.794H10.166L6.682,18.678z"/>
			</g>
		</g>
		<g>
			<g>
				<path fill="#FFFFFF" stroke="#FFFFFF" stroke-width="0.25" stroke-miterlimit="10" d="M29.086,26.158
					c-0.139,0-0.25-0.111-0.25-0.25v-1.994c0-0.139,0.111-0.25,0.25-0.25c0.137,0,0.25,0.111,0.25,0.25v1.994
					C29.336,26.047,29.223,26.158,29.086,26.158z"/>
			</g>
		</g>
		<g>
			<g>
				<path fill="#FFFFFF" stroke="#FFFFFF" stroke-width="0.25" stroke-miterlimit="10" d="M7.519,26.158
					c-0.138,0-0.25-0.111-0.25-0.25v-1.994c0-0.139,0.112-0.25,0.25-0.25s0.25,0.111,0.25,0.25v1.994
					C7.769,26.047,7.657,26.158,7.519,26.158z"/>
			</g>
		</g>
	</g>
	<g>
		<g>
			<polygon fill="#FFFFFF" stroke="#FFFFFF" stroke-width="0.25" stroke-miterlimit="10" points="13.015,9.939 12.334,13.403 
				24.521,13.403 24.025,9.939 			"/>
		</g>
	</g>
</g>
</svg>
