<?xml version="1.0" encoding="utf-8"?>
<!-- Generator: Adobe Illustrator 16.0.0, SVG Export Plug-In . SVG Version: 6.00 Build 0)  -->
<!DOCTYPE svg PUBLIC "-//W3C//DTD SVG 1.1//EN" "http://www.w3.org/Graphics/SVG/1.1/DTD/svg11.dtd">
<svg version="1.1" id="Layer_1" xmlns="http://www.w3.org/2000/svg" xmlns:xlink="http://www.w3.org/1999/xlink" x="0px" y="0px"
	 width="18.359px" height="30.684px" viewBox="10.135 0 18.359 30.684" enable-background="new 10.135 0 18.359 30.684"
	 xml:space="preserve">
<g>
	<g>
		<g>
			<g>
				<polygon fill="#FFFFFF" stroke="#FFFFFF" stroke-width="0.25" stroke-miterlimit="10" points="23.872,26.574 22.624,23.661 
					16.343,23.661 15.093,26.574 14.526,26.331 15.935,23.043 23.032,23.043 24.44,26.331 				"/>
			</g>
		</g>
		<g>
			<g>
				<path fill="#FFFFFF" stroke="#FFFFFF" stroke-width="0.25" stroke-miterlimit="10" d="M26.352,23.661h-4.453v-0.617h4.453
					c0.617,0,1.119-0.502,1.119-1.119V6.062c0-2.901-2.107-2.901-2.9-2.901H13.907c-0.029,0-2.902,0.125-2.902,2.901v15.862
					c0,0.617,0.5,1.119,1.119,1.119h4.742v0.617h-4.742c-0.959,0-1.736-0.779-1.736-1.736V6.062c0-2.659,2.371-3.519,3.521-3.519
					h10.663c2.335,0,3.519,1.184,3.519,3.519v15.862C28.088,22.881,27.311,23.661,26.352,23.661z"/>
			</g>
		</g>
		<g>
			<g>
				<path fill="#FFFFFF" stroke="#FFFFFF" stroke-width="0.25" stroke-miterlimit="10" d="M17.282,4.376h4.651
					c0.387,0,0.695,0.311,0.695,0.696c0,0.384-0.31,0.695-0.695,0.695h-4.651c-0.386,0-0.695-0.312-0.695-0.695
					C16.587,4.688,16.897,4.376,17.282,4.376z"/>
			</g>
		</g>
		<g>
			<g>
				<path fill="#FFFFFF" stroke="#FFFFFF" stroke-width="0.25" stroke-miterlimit="10" d="M26.428,13.72H12.165V7.406h14.263V13.72z
					 M12.782,13.102h13.028V8.023H12.782V13.102z"/>
			</g>
		</g>
		<g>
			<g>
				<circle fill="#FFFFFF" stroke="#FFFFFF" stroke-width="0.25" stroke-miterlimit="10" cx="14.796" cy="19.138" r="1.708"/>
			</g>
		</g>
		<g>
			<g>
				<circle fill="#FFFFFF" stroke="#FFFFFF" stroke-width="0.25" stroke-miterlimit="10" cx="23.452" cy="19.138" r="1.708"/>
			</g>
		</g>
	</g>
</g>
</svg>
