<?xml version="1.0" encoding="utf-8"?>
<!-- Generator: Adobe Illustrator 16.0.0, SVG Export Plug-In . SVG Version: 6.00 Build 0)  -->
<!DOCTYPE svg PUBLIC "-//W3C//DTD SVG 1.1//EN" "http://www.w3.org/Graphics/SVG/1.1/DTD/svg11.dtd">
<svg version="1.1" id="Layer_1" xmlns="http://www.w3.org/2000/svg" xmlns:xlink="http://www.w3.org/1999/xlink" x="0px" y="0px"
	 width="36.496px" height="30.684px" viewBox="0 0 36.496 30.684" enable-background="new 0 0 36.496 30.684" xml:space="preserve">
<g>
	<path fill="#FFFFFF" stroke="#FFFFFF" stroke-width="0.25" stroke-miterlimit="10" d="M30.759,13.559
		c0-0.795-0.646-1.441-1.441-1.441h-0.608c-0.81-1.746-1.335-2.897-1.562-3.422c-0.706-1.626-2.391-1.871-2.495-1.883h-2.851V5.286
		h-6.187v1.527h-2.549c-1.882,0-2.285,1.437-2.285,1.437l-1.943,3.868H8.065c-0.795,0-1.441,0.646-1.441,1.441
		c0,0.563,0.333,1.057,0.84,1.286L6.65,16.459L6.624,24.27h2.748c0.123,0.912,0.896,1.616,1.841,1.616
		c0.944,0,1.717-0.704,1.84-1.616h12.731c0.123,0.912,0.896,1.616,1.841,1.616c0.944,0,1.717-0.704,1.84-1.616h1.294v-7.699
		l-0.79-1.746C30.451,14.584,30.759,14.105,30.759,13.559z M30.259,13.559c0,0.346-0.201,0.643-0.507,0.802l-0.811-1.743h0.376
		C29.837,12.618,30.259,13.04,30.259,13.559z M7.124,13.559c0-0.519,0.422-0.941,0.941-0.941h0.52l-0.891,1.769
		C7.355,14.24,7.124,13.928,7.124,13.559z M30.259,16.627v7.143H7.124v-7.139l0.916-1.818l0,0l1.105-2.195l0,0l0.005-0.009
		l0.064-0.129l0,0l2.036-4.058c0.003-0.011,0.295-1.109,1.814-1.109l11.552-0.002c0.061,0.008,1.479,0.222,2.07,1.584
		c0.236,0.543,0.786,1.747,1.635,3.578v0l0,0l0.014,0.029l0.053,0.115h0.001l0.888,1.908l0,0L30.259,16.627z"/>
	<path fill="#FFFFFF" stroke="#FFFFFF" stroke-width="0.25" stroke-miterlimit="10" d="M25.34,9.35H12.042l-2.734,5.588h19.106
		L25.34,9.35z M12.354,9.85h12.69l2.523,4.588h-17.46L12.354,9.85z"/>
	<circle fill="#FFFFFF" stroke="#FFFFFF" stroke-width="0.25" stroke-miterlimit="10" cx="27.624" cy="20.324" r="1.633"/>
	<circle fill="#FFFFFF" stroke="#FFFFFF" stroke-width="0.25" stroke-miterlimit="10" cx="11.341" cy="20.324" r="1.633"/>
</g>
</svg>
