<?xml version="1.0" encoding="utf-8"?>
<!-- Generator: Adobe Illustrator 16.0.0, SVG Export Plug-In . SVG Version: 6.00 Build 0)  -->
<!DOCTYPE svg PUBLIC "-//W3C//DTD SVG 1.1//EN" "http://www.w3.org/Graphics/SVG/1.1/DTD/svg11.dtd">
<svg version="1.1" id="Layer_1" xmlns="http://www.w3.org/2000/svg" xmlns:xlink="http://www.w3.org/1999/xlink" x="0px" y="0px"
	 width="35px" height="35px" viewBox="0 0 35 35" enable-background="new 0 0 35 35" xml:space="preserve">
<g id="Layer_1_1_" display="none">
	<g display="inline">
		<line fill="none" stroke="#676767" stroke-miterlimit="10" x1="17.26" y1="4.316" x2="17.26" y2="10.792"/>
		<line fill="none" stroke="#676767" stroke-miterlimit="10" x1="19.923" y1="1.868" x2="19.923" y2="10.792"/>
		<g>
			<path fill="none" stroke="#676767" stroke-width="0.5" stroke-linecap="round" stroke-miterlimit="10" d="M10.814,18.816
				c0,4.301,3.486,7.785,7.784,7.785c4.299,0,7.783-3.484,7.783-7.785v-5.36H10.814V18.816z"/>
			<line fill="none" stroke="#676767" stroke-miterlimit="10" x1="10.814" y1="28.891" x2="26.382" y2="28.891"/>
		</g>
		<path fill="none" stroke="#676767" stroke-width="0.5" stroke-linecap="round" stroke-miterlimit="10" d="M10.812,15
			c-1.491,0-2.702,1.209-2.702,2.704s1.211,2.704,2.702,2.704"/>
	</g>
</g>
<g id="Layer_2" display="none">
	<g display="inline">
		<circle fill="#676767" cx="17.351" cy="23.244" r="1.395"/>
		<path fill="none" stroke="#676767" stroke-width="0.5" stroke-linecap="round" stroke-miterlimit="10" d="M27.559,13.617
			c-2.763-3.043-6.388-4.721-10.216-4.721c-3.934,0-7.629,1.746-10.408,4.914"/>
		<path fill="none" stroke="#676767" stroke-width="0.5" stroke-linecap="round" stroke-miterlimit="10" d="M24.643,17.057
			c-1.976-2.176-4.566-3.375-7.302-3.375c-2.809,0-5.449,1.248-7.439,3.514"/>
		<path fill="none" stroke="#676767" stroke-width="0.5" stroke-linecap="round" stroke-miterlimit="10" d="M22.027,20.139
			c-1.271-1.399-2.936-2.172-4.688-2.172c-1.805,0-3.504,0.801-4.779,2.256"/>
	</g>
</g>
<g id="Layer_3" display="none">
	<g display="inline">
		<g>
			
				<rect x="9.396" y="6.701" fill="none" stroke="#676767" stroke-width="0.5" stroke-linecap="round" stroke-miterlimit="10" width="15.958" height="5.547"/>
			
				<rect x="5.656" y="19.541" fill="none" stroke="#676767" stroke-width="0.5" stroke-linecap="round" stroke-miterlimit="10" width="24.309" height="4.986"/>
			<polygon fill="none" stroke="#676767" stroke-width="0.5" stroke-linecap="round" stroke-miterlimit="10" points="29.965,19.541 
				5.656,19.541 9.396,12.248 25.354,12.248 			"/>
			
				<line fill="none" stroke="#676767" stroke-width="0.5" stroke-linecap="round" stroke-miterlimit="10" x1="28.469" y1="24.527" x2="28.469" y2="26.521"/>
			
				<line fill="none" stroke="#676767" stroke-width="0.5" stroke-linecap="round" stroke-miterlimit="10" x1="6.902" y1="24.527" x2="6.902" y2="26.521"/>
		</g>
	</g>
	<polygon display="inline" fill="#676767" points="12.398,10.553 11.718,14.017 23.904,14.017 23.409,10.553 	"/>
</g>
<g id="Layer_4" display="none">
	<g display="inline">
		<g>
			<g>
				
					<line fill="none" stroke="#676767" stroke-width="0.5" stroke-miterlimit="10" x1="13.837" y1="24.999" x2="13.837" y2="8.875"/>
				<path fill="none" stroke="#676767" stroke-width="0.5" stroke-miterlimit="10" d="M11.763,9.017c0,0-0.68,4.625,2.074,4.625
					s2.041-4.625,2.041-4.625"/>
			</g>
			<rect x="13.106" y="21.314" fill="#676767" width="1.289" height="3.685"/>
		</g>
		<g>
			<g>
				<path fill="none" stroke="#676767" stroke-width="0.5" stroke-miterlimit="10" d="M22.159,24.999V8.875h-0.953
					c0,0-0.951,0.958-0.951,4.971c0,4.013,1.769,3.36,1.769,3.36"/>
			</g>
			<rect x="21.516" y="21.314" fill="#676767" width="1.289" height="3.685"/>
		</g>
	</g>
</g>
<g id="Layer_5" display="none">
	<g display="inline">
		<g>
			<polygon fill="none" stroke="#676767" stroke-width="0.5" stroke-miterlimit="10" points="10.171,13.901 10.171,16.473 
				10.171,24.838 24.32,24.838 24.32,13.901 			"/>
			<path fill="#676767" d="M18.165,20.411v1.714h-1.84v-1.716c-0.646-0.335-1.092-1.002-1.092-1.782c0-1.111,0.9-2.012,2.012-2.012
				c1.114,0,2.016,0.9,2.016,2.012C19.261,19.408,18.814,20.076,18.165,20.411z"/>
		</g>
		<path fill="none" stroke="#676767" stroke-width="0.5" stroke-miterlimit="10" d="M12.165,13.901v-3.596
			c0-2.798,2.275-5.073,5.074-5.073c2.797,0,5.071,2.275,5.071,5.073v3.596"/>
	</g>
</g>
<g id="Layer_6" display="none">
	<g display="inline">
		<g>
			<circle fill="none" stroke="#676767" stroke-width="0.5" stroke-miterlimit="10" cx="26.989" cy="13.54" r="7.07"/>
			<g>
				<text transform="matrix(1 0 0 1 21.6035 15.3047)" fill="#676767" font-family="'NexaBold'" font-size="5.7164">24h</text>
			</g>
		</g>
		<g>
			<path fill="#676767" d="M9.748,14.284"/>
			<g>
				<path fill="none" stroke="#676767" stroke-width="0.5" stroke-miterlimit="10" d="M14.121,22.055c0-1.535,0-5.038,0-5.038
					s-1.443-1.676-2.908-1.676h-2.65c-1.465,0-2.908,1.676-2.908,1.676s0,3.502,0,5.038"/>
				<circle fill="none" stroke="#676767" stroke-width="0.5" stroke-miterlimit="10" cx="10.027" cy="10.19" r="3.35"/>
			</g>
		</g>
		<rect x="0.94" y="19.109" fill="#676767" width="17.701" height="11.125"/>
		<polyline fill="#676767" points="21.604,18.12 20.73,20.609 23.311,19.573 		"/>
		<line fill="none" stroke="#F5F6F6" stroke-width="0.5" stroke-miterlimit="10" x1="2.591" y1="21.752" x2="16.826" y2="21.752"/>
	</g>
</g>
<g id="Layer_7" display="none">
	<g display="inline">
		<g>
			
				<rect x="12.656" y="18.58" fill="none" stroke="#676767" stroke-width="0.5" stroke-miterlimit="10" width="15.873" height="3.784"/>
			<line fill="none" stroke="#676767" stroke-miterlimit="10" x1="10.231" y1="22.818" x2="10.231" y2="18.125"/>
			<line fill="none" stroke="#676767" stroke-miterlimit="10" x1="7.962" y1="22.818" x2="7.962" y2="18.125"/>
		</g>
		<g>
			<line fill="none" stroke="#676767" stroke-width="0.5" stroke-miterlimit="10" x1="10.378" y1="8.788" x2="10.378" y2="14.394"/>
			<line fill="none" stroke="#676767" stroke-width="0.5" stroke-miterlimit="10" x1="8.073" y1="6.669" x2="8.073" y2="14.394"/>
		</g>
	</g>
</g>
<g id="Layer_8" display="none">
	<g display="inline">
		<g>
			<circle fill="none" stroke="#676767" stroke-miterlimit="10" cx="17.714" cy="16.437" r="8.492"/>
			<polyline fill="none" stroke="#676767" stroke-linecap="round" stroke-miterlimit="10" points="17.641,12.858 17.714,16.437 
				21.753,18.857 			"/>
		</g>
		<line fill="none" stroke="#676767" stroke-width="0.5" stroke-miterlimit="10" x1="17.641" y1="8.193" x2="17.641" y2="10.095"/>
		<line fill="none" stroke="#676767" stroke-width="0.5" stroke-miterlimit="10" x1="17.641" y1="23.027" x2="17.641" y2="24.93"/>
		<line fill="none" stroke="#676767" stroke-width="0.5" stroke-miterlimit="10" x1="9.272" y1="16.561" x2="11.175" y2="16.561"/>
		<line fill="none" stroke="#676767" stroke-width="0.5" stroke-miterlimit="10" x1="24.105" y1="16.561" x2="26.009" y2="16.561"/>
	</g>
</g>
<g id="Layer_9" display="none">
	<g display="inline">
		<g>
			<rect x="9.222" y="11.255" fill="none" stroke="#676767" stroke-miterlimit="10" width="16.984" height="11.554"/>
			
				<line fill="none" stroke="#676767" stroke-width="0.5" stroke-miterlimit="10" x1="17.713" y1="15.646" x2="24.011" y2="15.646"/>
			
				<line fill="none" stroke="#676767" stroke-width="0.5" stroke-miterlimit="10" x1="17.713" y1="18.418" x2="24.011" y2="18.418"/>
		</g>
		
			<rect x="11.881" y="14.78" fill="none" stroke="#676767" stroke-width="0.5" stroke-miterlimit="10" width="4.258" height="4.258"/>
		<line fill="none" stroke="#676767" stroke-width="0.5" stroke-miterlimit="10" x1="16.139" y1="14.78" x2="11.881" y2="19.038"/>
		<line fill="none" stroke="#676767" stroke-width="0.5" stroke-miterlimit="10" x1="11.881" y1="14.78" x2="16.139" y2="19.038"/>
	</g>
</g>
<g id="Layer_10" display="none">
	<circle display="inline" fill="none" stroke="#676767" stroke-miterlimit="10" cx="16.714" cy="16.36" r="9.894"/>
	<g display="inline">
		<text transform="matrix(1 0 0 1 13.0947 20.2295)" fill="#676767" font-family="'NexaBold'" font-size="10.7333">$</text>
	</g>
</g>
<g id="Layer_11" display="none">
	<path display="inline" fill="none" stroke="#676767" stroke-miterlimit="10" d="M17.509,14.665c0-2.348-1.904-4.25-4.248-4.25
		c-2.347,0-4.249,1.902-4.249,4.25c0,0-0.81,6.776,8.497,9.921c0,0,8.497-1.352,8.497-9.921c0-2.348-1.904-4.25-4.249-4.25
		C19.409,10.415,17.509,12.317,17.509,14.665"/>
</g>
<g id="Layer_12" display="none">
	<g display="inline">
		<g>
			<path fill="none" stroke="#676767" stroke-width="0.5" stroke-miterlimit="10" d="M1.398,16.085c0,0-0.493,3.765,3.136,4.08
				C4.534,20.165,5.166,16.435,1.398,16.085z"/>
			<path fill="none" stroke="#676767" stroke-width="0.5" stroke-miterlimit="10" d="M8.543,16.085c0,0,0.491,3.765-3.136,4.08
				C5.408,20.165,4.776,16.435,8.543,16.085z"/>
		</g>
		<g>
			<path fill="none" stroke="#676767" stroke-width="0.5" stroke-miterlimit="10" d="M1.398,12.005c0,0-0.493,3.765,3.136,4.08
				C4.534,16.085,5.166,12.354,1.398,12.005z"/>
			<path fill="none" stroke="#676767" stroke-width="0.5" stroke-miterlimit="10" d="M8.543,12.005c0,0,0.491,3.765-3.136,4.08
				C5.408,16.085,4.776,12.354,8.543,12.005z"/>
		</g>
		<polygon fill="none" stroke="#676767" stroke-width="0.5" stroke-miterlimit="10" points="2.975,21.239 7.161,21.239 
			6.027,24.807 4.189,24.807 		"/>
	</g>
	<line display="inline" fill="none" stroke="#676767" stroke-miterlimit="10" x1="11.152" y1="23.463" x2="11.152" y2="25.917"/>
	<g display="inline">
		
			<ellipse fill="none" stroke="#676767" stroke-width="0.5" stroke-miterlimit="10" cx="25.525" cy="10.089" rx="0.748" ry="0.757"/>
		<polyline fill="none" stroke="#676767" stroke-width="0.5" stroke-miterlimit="10" points="26.273,10.089 26.273,6.307 
			28.871,5.609 28.871,9.391 		"/>
		<ellipse fill="none" stroke="#676767" stroke-width="0.5" stroke-miterlimit="10" cx="28.124" cy="9.391" rx="0.747" ry="0.757"/>
		<line fill="none" stroke="#676767" stroke-width="0.5" stroke-miterlimit="10" x1="26.273" y1="7.482" x2="28.871" y2="6.943"/>
	</g>
	<g display="inline">
		
			<ellipse fill="none" stroke="#676767" stroke-width="0.5" stroke-miterlimit="10" cx="29.434" cy="13.611" rx="0.746" ry="0.757"/>
		<polyline fill="none" stroke="#676767" stroke-width="0.5" stroke-miterlimit="10" points="30.18,13.611 30.18,9.83 32.779,9.132 
			32.779,12.914 		"/>
		
			<ellipse fill="none" stroke="#676767" stroke-width="0.5" stroke-miterlimit="10" cx="32.032" cy="12.914" rx="0.747" ry="0.757"/>
		<line fill="none" stroke="#676767" stroke-width="0.5" stroke-miterlimit="10" x1="30.18" y1="11.006" x2="32.779" y2="10.467"/>
	</g>
	<g display="inline">
		<rect x="11.644" y="13.957" fill="none" stroke="#676767" stroke-miterlimit="10" width="14.108" height="6.355"/>
		<polyline fill="none" stroke="#676767" stroke-miterlimit="10" points="11.644,20.312 9.79,23.256 28.023,23.256 25.752,20.312 		
			"/>
		<line fill="none" stroke="#676767" stroke-miterlimit="10" x1="28.023" y1="23.256" x2="28.023" y2="25.917"/>
		<g>
			<circle fill="#676767" cx="13.634" cy="16.076" r="0.431"/>
			<circle fill="#676767" cx="13.634" cy="18.306" r="0.431"/>
			<circle fill="#676767" cx="15.03" cy="17.136" r="0.431"/>
			<circle fill="#676767" cx="13.019" cy="21.784" r="0.431"/>
			<circle fill="#676767" cx="15.892" cy="21.784" r="0.431"/>
			<circle fill="#676767" cx="18.766" cy="21.784" r="0.432"/>
			<circle fill="#676767" cx="21.637" cy="21.784" r="0.432"/>
			<circle fill="#676767" cx="24.51" cy="21.784" r="0.432"/>
		</g>
		<g>
			<circle fill="#676767" cx="16.579" cy="16.076" r="0.431"/>
			<circle fill="#676767" cx="16.579" cy="18.306" r="0.431"/>
			<circle fill="#676767" cx="17.976" cy="17.136" r="0.431"/>
		</g>
		<g>
			<circle fill="#676767" cx="19.523" cy="16.076" r="0.431"/>
			<circle fill="#676767" cx="19.523" cy="18.306" r="0.431"/>
			<circle fill="#676767" cx="20.921" cy="17.136" r="0.431"/>
		</g>
		<g>
			<circle fill="#676767" cx="22.473" cy="16.076" r="0.431"/>
			<circle fill="#676767" cx="22.473" cy="18.306" r="0.431"/>
			<circle fill="#676767" cx="23.867" cy="17.136" r="0.432"/>
		</g>
	</g>
</g>
<g id="Layer_13" display="none">
	<g display="inline">
		<polygon fill="none" stroke="#676767" stroke-miterlimit="10" points="21.723,23.803 11.704,23.803 11.704,15.119 16.713,9.197 
			21.723,15.119 		"/>
		<path fill="none" stroke="#676767" stroke-miterlimit="10" d="M18.448,23.803v-4.88c0-0.959-0.777-1.736-1.735-1.736
			c-0.959,0-1.736,0.777-1.736,1.736v4.88"/>
	</g>
</g>
<g display="none">
	<g display="inline">
		<g>
			<path fill="#666666" d="M31.059,16.889c-0.547,0-0.832-0.182-1.084-0.341c-0.232-0.149-0.433-0.274-0.856-0.274
				c-0.421,0-0.621,0.125-0.852,0.274c-0.253,0.159-0.538,0.341-1.083,0.341s-0.827-0.182-1.08-0.341
				c-0.229-0.149-0.432-0.274-0.85-0.274c-0.422,0-0.622,0.125-0.854,0.274c-0.251,0.159-0.536,0.341-1.083,0.341
				c-0.544,0-0.827-0.182-1.079-0.341c-0.23-0.149-0.432-0.274-0.85-0.274c-0.422,0-0.621,0.125-0.852,0.274
				c-0.252,0.159-0.535,0.341-1.08,0.341c-0.549,0-0.832-0.182-1.084-0.341c-0.229-0.149-0.43-0.274-0.85-0.274
				c-0.419,0-0.617,0.125-0.848,0.274c-0.248,0.159-0.532,0.341-1.079,0.341c-0.542,0-0.829-0.182-1.079-0.341
				c-0.229-0.149-0.427-0.274-0.847-0.274c-0.421,0-0.621,0.125-0.853,0.274c-0.252,0.159-0.534,0.341-1.078,0.341
				s-0.828-0.182-1.078-0.341c-0.229-0.149-0.427-0.274-0.845-0.274c-0.417,0-0.613,0.125-0.845,0.274
				c-0.247,0.159-0.53,0.341-1.072,0.341c-0.543,0-0.83-0.182-1.079-0.341c-0.23-0.149-0.429-0.274-0.85-0.274
				c-0.418,0-0.619,0.125-0.849,0.274c-0.25,0.159-0.535,0.341-1.08,0.341c-0.543,0-0.83-0.182-1.08-0.341
				c-0.229-0.149-0.428-0.274-0.849-0.274v-0.428c0.544,0,0.83,0.182,1.08,0.342c0.229,0.148,0.429,0.275,0.85,0.275
				c0.42,0,0.62-0.127,0.849-0.275c0.251-0.16,0.537-0.342,1.08-0.342c0.543,0,0.829,0.182,1.08,0.342
				c0.229,0.148,0.428,0.275,0.848,0.275c0.415,0,0.613-0.127,0.843-0.275c0.249-0.16,0.532-0.342,1.074-0.342
				c0.544,0,0.825,0.182,1.076,0.342c0.23,0.148,0.429,0.275,0.847,0.275c0.42,0,0.619-0.127,0.849-0.275
				c0.253-0.16,0.536-0.342,1.082-0.342c0.544,0,0.827,0.182,1.077,0.342c0.232,0.148,0.43,0.275,0.849,0.275
				c0.421,0,0.62-0.127,0.851-0.275c0.248-0.16,0.533-0.342,1.076-0.342c0.547,0,0.828,0.182,1.08,0.342
				c0.232,0.148,0.432,0.275,0.854,0.275c0.421,0,0.62-0.127,0.851-0.275c0.251-0.16,0.534-0.342,1.081-0.342
				c0.544,0,0.828,0.182,1.079,0.342c0.23,0.148,0.431,0.275,0.85,0.275c0.423,0,0.621-0.127,0.853-0.275
				c0.252-0.16,0.539-0.342,1.084-0.342c0.544,0,0.828,0.182,1.079,0.342c0.23,0.148,0.431,0.275,0.851,0.275
				c0.422,0,0.62-0.127,0.852-0.275c0.252-0.16,0.539-0.342,1.083-0.342c0.547,0,0.833,0.182,1.086,0.342
				c0.231,0.148,0.432,0.275,0.854,0.275c0.424,0,0.624-0.127,0.857-0.275c0.25-0.16,0.538-0.342,1.084-0.342v0.428
				c-0.423,0-0.623,0.125-0.854,0.274C31.893,16.707,31.607,16.889,31.059,16.889z"/>
		</g>
		<g>
			<path fill="#666666" d="M31.059,19.205c-0.547,0-0.832-0.182-1.084-0.342c-0.232-0.147-0.433-0.274-0.856-0.274
				c-0.421,0-0.621,0.127-0.852,0.274c-0.253,0.16-0.538,0.342-1.083,0.342s-0.827-0.182-1.08-0.342
				c-0.229-0.147-0.432-0.274-0.85-0.274c-0.422,0-0.622,0.127-0.854,0.274c-0.251,0.16-0.536,0.342-1.083,0.342
				c-0.544,0-0.827-0.182-1.079-0.342c-0.23-0.147-0.432-0.274-0.85-0.274c-0.422,0-0.621,0.127-0.852,0.274
				c-0.252,0.16-0.535,0.342-1.08,0.342c-0.549,0-0.832-0.182-1.084-0.342c-0.229-0.147-0.43-0.274-0.85-0.274
				c-0.419,0-0.617,0.127-0.848,0.274c-0.248,0.16-0.532,0.342-1.079,0.342c-0.542,0-0.829-0.182-1.079-0.342
				c-0.229-0.147-0.427-0.274-0.847-0.274c-0.421,0-0.621,0.127-0.853,0.274c-0.252,0.16-0.534,0.342-1.078,0.342
				s-0.828-0.182-1.078-0.342c-0.229-0.147-0.427-0.274-0.845-0.274c-0.417,0-0.613,0.127-0.845,0.274
				c-0.247,0.16-0.53,0.342-1.072,0.342c-0.543,0-0.83-0.182-1.079-0.342c-0.23-0.147-0.429-0.274-0.85-0.274
				c-0.418,0-0.619,0.127-0.849,0.274c-0.25,0.16-0.535,0.342-1.08,0.342c-0.543,0-0.83-0.182-1.08-0.342
				c-0.229-0.147-0.428-0.274-0.849-0.274v-0.427c0.544,0,0.83,0.183,1.08,0.342c0.229,0.148,0.429,0.274,0.85,0.274
				c0.42,0,0.62-0.126,0.849-0.274c0.251-0.159,0.537-0.342,1.08-0.342c0.543,0,0.829,0.183,1.08,0.342
				c0.229,0.148,0.428,0.274,0.848,0.274c0.415,0,0.613-0.126,0.843-0.274c0.249-0.159,0.532-0.342,1.074-0.342
				c0.544,0,0.825,0.183,1.076,0.342c0.23,0.148,0.429,0.274,0.847,0.274c0.42,0,0.619-0.126,0.849-0.274
				c0.253-0.159,0.536-0.342,1.082-0.342c0.544,0,0.827,0.183,1.077,0.342c0.232,0.148,0.43,0.274,0.849,0.274
				c0.421,0,0.62-0.126,0.851-0.274c0.248-0.159,0.533-0.342,1.076-0.342c0.547,0,0.828,0.183,1.08,0.342
				c0.232,0.148,0.432,0.274,0.854,0.274c0.421,0,0.62-0.126,0.851-0.274c0.251-0.159,0.534-0.342,1.081-0.342
				c0.544,0,0.828,0.183,1.079,0.342c0.23,0.148,0.431,0.274,0.85,0.274c0.423,0,0.621-0.126,0.853-0.274
				c0.252-0.159,0.539-0.342,1.084-0.342c0.544,0,0.828,0.183,1.079,0.342c0.23,0.148,0.431,0.274,0.851,0.274
				c0.422,0,0.62-0.126,0.852-0.274c0.252-0.159,0.539-0.342,1.083-0.342c0.547,0,0.833,0.183,1.086,0.342
				c0.231,0.148,0.432,0.274,0.854,0.274c0.424,0,0.624-0.126,0.857-0.274c0.25-0.159,0.538-0.342,1.084-0.342v0.427
				c-0.423,0-0.623,0.127-0.854,0.274C31.893,19.023,31.607,19.205,31.059,19.205z"/>
		</g>
		<g>
			<path fill="#666666" d="M31.059,21.523c-0.547,0-0.832-0.183-1.084-0.343c-0.232-0.148-0.433-0.275-0.856-0.275
				c-0.421,0-0.621,0.127-0.852,0.275c-0.253,0.16-0.538,0.343-1.083,0.343s-0.827-0.183-1.08-0.343
				c-0.229-0.148-0.432-0.275-0.85-0.275c-0.422,0-0.622,0.127-0.854,0.275c-0.251,0.16-0.536,0.343-1.083,0.343
				c-0.544,0-0.827-0.183-1.079-0.343c-0.23-0.148-0.432-0.275-0.85-0.275c-0.422,0-0.621,0.127-0.852,0.275
				c-0.252,0.16-0.535,0.343-1.08,0.343c-0.549,0-0.832-0.183-1.084-0.343c-0.229-0.148-0.43-0.275-0.85-0.275
				c-0.419,0-0.617,0.127-0.848,0.275c-0.248,0.16-0.532,0.343-1.079,0.343c-0.542,0-0.829-0.183-1.079-0.343
				c-0.229-0.148-0.427-0.275-0.847-0.275c-0.421,0-0.621,0.127-0.853,0.275c-0.252,0.16-0.534,0.343-1.078,0.343
				s-0.828-0.183-1.078-0.343c-0.229-0.148-0.427-0.275-0.845-0.275c-0.417,0-0.613,0.127-0.845,0.275
				c-0.247,0.16-0.53,0.343-1.072,0.343c-0.543,0-0.83-0.183-1.079-0.343c-0.23-0.148-0.429-0.275-0.85-0.275
				c-0.418,0-0.619,0.127-0.849,0.275c-0.25,0.16-0.535,0.343-1.08,0.343c-0.543,0-0.83-0.183-1.08-0.343
				c-0.229-0.148-0.428-0.275-0.849-0.275v-0.427c0.544,0,0.83,0.183,1.08,0.342c0.229,0.147,0.429,0.274,0.85,0.274
				c0.42,0,0.62-0.127,0.849-0.274c0.251-0.159,0.537-0.342,1.08-0.342c0.543,0,0.829,0.183,1.08,0.342
				c0.229,0.147,0.428,0.274,0.848,0.274c0.415,0,0.613-0.127,0.843-0.274c0.249-0.159,0.532-0.342,1.074-0.342
				c0.544,0,0.825,0.183,1.076,0.342c0.23,0.147,0.429,0.274,0.847,0.274c0.42,0,0.619-0.127,0.849-0.274
				c0.253-0.159,0.536-0.342,1.082-0.342c0.544,0,0.827,0.183,1.077,0.342c0.232,0.147,0.43,0.274,0.849,0.274
				c0.421,0,0.62-0.127,0.851-0.274c0.248-0.159,0.533-0.342,1.076-0.342c0.547,0,0.828,0.183,1.08,0.342
				c0.232,0.147,0.432,0.274,0.854,0.274c0.421,0,0.62-0.127,0.851-0.274c0.251-0.159,0.534-0.342,1.081-0.342
				c0.544,0,0.828,0.183,1.079,0.342c0.23,0.147,0.431,0.274,0.85,0.274c0.423,0,0.621-0.127,0.853-0.274
				c0.252-0.159,0.539-0.342,1.084-0.342c0.544,0,0.828,0.183,1.079,0.342c0.23,0.147,0.431,0.274,0.851,0.274
				c0.422,0,0.62-0.127,0.852-0.274c0.252-0.159,0.539-0.342,1.083-0.342c0.547,0,0.833,0.183,1.086,0.342
				c0.231,0.147,0.432,0.274,0.854,0.274c0.424,0,0.624-0.127,0.857-0.274c0.25-0.159,0.538-0.342,1.084-0.342v0.427
				c-0.423,0-0.623,0.127-0.854,0.275C31.893,21.341,31.607,21.523,31.059,21.523z"/>
		</g>
		<g>
			<path fill="#666666" d="M31.059,23.838c-0.547,0-0.832-0.181-1.084-0.341c-0.232-0.149-0.433-0.275-0.856-0.275
				c-0.421,0-0.621,0.126-0.852,0.275c-0.253,0.16-0.538,0.341-1.083,0.341s-0.827-0.181-1.08-0.341
				c-0.229-0.149-0.432-0.275-0.85-0.275c-0.422,0-0.622,0.126-0.854,0.275c-0.251,0.16-0.536,0.341-1.083,0.341
				c-0.544,0-0.827-0.181-1.079-0.341c-0.23-0.149-0.432-0.275-0.85-0.275c-0.422,0-0.621,0.126-0.852,0.275
				c-0.252,0.16-0.535,0.341-1.08,0.341c-0.549,0-0.832-0.181-1.084-0.341c-0.229-0.149-0.43-0.275-0.85-0.275
				c-0.419,0-0.617,0.126-0.848,0.275c-0.248,0.16-0.532,0.341-1.079,0.341c-0.542,0-0.829-0.181-1.079-0.341
				c-0.229-0.149-0.427-0.275-0.847-0.275c-0.421,0-0.621,0.126-0.853,0.275c-0.252,0.16-0.534,0.341-1.078,0.341
				s-0.828-0.181-1.078-0.341c-0.229-0.149-0.427-0.275-0.845-0.275c-0.417,0-0.613,0.126-0.845,0.275
				c-0.247,0.16-0.53,0.341-1.072,0.341c-0.543,0-0.83-0.181-1.079-0.341c-0.23-0.149-0.429-0.275-0.85-0.275
				c-0.418,0-0.619,0.126-0.849,0.275c-0.25,0.16-0.535,0.341-1.08,0.341c-0.543,0-0.83-0.181-1.08-0.341
				c-0.229-0.149-0.428-0.275-0.849-0.275v-0.427c0.544,0,0.83,0.182,1.08,0.342c0.229,0.147,0.429,0.275,0.85,0.275
				c0.42,0,0.62-0.128,0.849-0.275c0.251-0.16,0.537-0.342,1.08-0.342c0.543,0,0.829,0.182,1.08,0.342
				c0.229,0.147,0.428,0.275,0.848,0.275c0.415,0,0.613-0.128,0.843-0.275c0.249-0.16,0.532-0.342,1.074-0.342
				c0.544,0,0.825,0.182,1.076,0.342c0.23,0.147,0.429,0.275,0.847,0.275c0.42,0,0.619-0.128,0.849-0.275
				c0.253-0.16,0.536-0.342,1.082-0.342c0.544,0,0.827,0.182,1.077,0.342c0.232,0.147,0.43,0.275,0.849,0.275
				c0.421,0,0.62-0.128,0.851-0.275c0.248-0.16,0.533-0.342,1.076-0.342c0.547,0,0.828,0.182,1.08,0.342
				c0.232,0.147,0.432,0.275,0.854,0.275c0.421,0,0.62-0.128,0.851-0.275c0.251-0.16,0.534-0.342,1.081-0.342
				c0.544,0,0.828,0.182,1.079,0.342c0.23,0.147,0.431,0.275,0.85,0.275c0.423,0,0.621-0.128,0.853-0.275
				c0.252-0.16,0.539-0.342,1.084-0.342c0.544,0,0.828,0.182,1.079,0.342c0.23,0.147,0.431,0.275,0.851,0.275
				c0.422,0,0.62-0.128,0.852-0.275c0.252-0.16,0.539-0.342,1.083-0.342c0.547,0,0.833,0.182,1.086,0.342
				c0.231,0.147,0.432,0.275,0.854,0.275c0.424,0,0.624-0.128,0.857-0.275c0.25-0.16,0.538-0.342,1.084-0.342v0.427
				c-0.423,0-0.623,0.126-0.854,0.275C31.893,23.657,31.607,23.838,31.059,23.838z"/>
		</g>
	</g>
	<g display="inline">
		<path fill="#666666" d="M17.059,2c0,0-5.083,3.939-4.795,15.25c0.287,11.312,2.578,14.817,3.365,15.393
			c0.788,0.572,2.57,0.799,3.507-1.075c0.791-1.58,2.077-2.147,2.437-14.962C21.822,7.621,17.059,2,17.059,2z"/>
	</g>
	<g display="inline">
		<path fill="#FFFFFF" d="M12.836,15.389c0,0,1.753-8.581,4.1-12.56C16.936,2.829,12.969,7.174,12.836,15.389z"/>
		<circle fill="#FFFFFF" cx="16.791" cy="30.422" r="0.645"/>
		<rect x="13.553" y="25.19" fill="#FFFFFF" width="6.873" height="0.854"/>
		<rect x="13.168" y="24.317" fill="#FFFFFF" width="7.641" height="0.428"/>
		<rect x="13.852" y="26.531" fill="#FFFFFF" width="6.273" height="0.428"/>
		<circle fill="#FFFFFF" cx="17.01" cy="19.197" r="3.626"/>
	</g>
	<g display="inline">
		<path fill="#666666" d="M21.579,19.197c-4.454,0.065-4.505,0.119-4.571,4.571c-0.062-4.452-0.116-4.506-4.568-4.571
			c4.452-0.062,4.507-0.116,4.568-4.568C17.074,19.081,17.125,19.135,21.579,19.197z"/>
	</g>
	<g display="inline">
		<path fill="#666666" d="M21.363,23.552c-4.302-4.18-4.4-4.18-8.711,0c4.186-4.304,4.186-4.403,0.003-8.71
			c4.308,4.184,4.406,4.184,8.708,0C17.186,19.149,17.186,19.25,21.363,23.552z"/>
	</g>
	<g display="inline">
		<path fill="#666666" d="M21.363,23.552c-4.302-4.18-4.4-4.18-8.711,0c4.186-4.304,4.186-4.403,0.003-8.71
			c4.308,4.184,4.406,4.184,8.708,0C17.186,19.149,17.186,19.25,21.363,23.552z"/>
	</g>
	<g display="inline">
		<path fill="#FFFFFF" d="M17.086,21.633c-0.109-2.37-0.138-2.398-2.511-2.361c2.371-0.105,2.397-0.134,2.36-2.507
			c0.105,2.37,0.134,2.397,2.508,2.358C17.072,19.231,17.044,19.259,17.086,21.633z"/>
	</g>
</g>
<g>
	<path fill="#666666" d="M26.791,15.584c-0.787,0-1.532,0.181-2.201,0.494L22.937,12.9l0.96-1.262l-0.369-0.279l-0.979,1.285H10.859
		l-0.155-0.177l1.346-4.022h1.708V7.983h-2.04l-1.474,4.4l-0.129,0.115l0.066,0.074l-1.076,3.214
		c-0.453-0.129-0.93-0.202-1.424-0.202c-2.875,0-5.208,2.331-5.208,5.207C2.474,23.666,4.807,26,7.682,26
		c2.874,0,5.21-2.334,5.21-5.209c0-2.219-1.392-4.107-3.348-4.857l0.946-2.826h0.161l6.502,7.394l5.475-7.194l1.553,2.984
		c-1.551,0.901-2.598,2.577-2.598,4.5c0,2.875,2.334,5.209,5.208,5.209C29.668,26,32,23.666,32,20.791
		C32,17.915,29.668,15.584,26.791,15.584z M11.966,20.791c0,2.362-1.922,4.284-4.284,4.284s-4.283-1.922-4.283-4.284
		c0-2.361,1.921-4.282,4.283-4.282c0.392,0,0.765,0.07,1.126,0.169l-0.905,2.706c-0.002,0-0.006-0.001-0.008-0.001
		c-0.751,0-1.361,0.608-1.361,1.359c0,0.754,0.61,1.364,1.361,1.364c0.752,0,1.362-0.61,1.362-1.364
		c0-0.586-0.374-1.082-0.896-1.272l0.89-2.655C10.838,17.443,11.966,18.983,11.966,20.791z M17.127,19.771l-5.861-6.664h10.933
		L17.127,19.771z M26.791,25.075c-2.361,0-4.282-1.922-4.282-4.284c0-1.563,0.851-2.919,2.104-3.667l1.243,2.394
		c-0.459,0.219-0.78,0.683-0.78,1.225c0,0.754,0.612,1.364,1.363,1.364c0.753,0,1.36-0.61,1.36-1.364
		c0-0.751-0.607-1.359-1.36-1.359c-0.043,0-0.083,0.009-0.124,0.013l-1.298-2.492c0.543-0.247,1.14-0.395,1.773-0.395
		c2.362,0,4.284,1.921,4.284,4.282C31.075,23.153,29.153,25.075,26.791,25.075z"/>
	<path fill="#666666" d="M26.992,9.81c0.188-1.878-3.848-0.657-3.848-0.657s-2.72-0.095-2.72,0.657
		C20.425,10.561,26.807,11.685,26.992,9.81z"/>
</g>
</svg>
