<?xml version="1.0" encoding="utf-8"?>
<!-- Generator: Adobe Illustrator 16.0.0, SVG Export Plug-In . SVG Version: 6.00 Build 0)  -->
<!DOCTYPE svg PUBLIC "-//W3C//DTD SVG 1.1//EN" "http://www.w3.org/Graphics/SVG/1.1/DTD/svg11.dtd">
<svg version="1.1" xmlns="http://www.w3.org/2000/svg" xmlns:xlink="http://www.w3.org/1999/xlink" x="0px" y="0px" width="35px"
	 height="35px" viewBox="0 0 35 35" enable-background="new 0 0 35 35" xml:space="preserve">
<g id="Layer_1" display="none">
	<g display="inline">
		<line fill="none" stroke="#676767" stroke-miterlimit="10" x1="17.26" y1="4.316" x2="17.26" y2="10.792"/>
		<line fill="none" stroke="#676767" stroke-miterlimit="10" x1="19.923" y1="1.868" x2="19.923" y2="10.792"/>
		<g>
			<path fill="none" stroke="#676767" stroke-width="0.5" stroke-linecap="round" stroke-miterlimit="10" d="M10.814,18.816
				c0,4.301,3.486,7.785,7.783,7.785c4.3,0,7.784-3.484,7.784-7.785v-5.36H10.814V18.816z"/>
			<line fill="none" stroke="#676767" stroke-miterlimit="10" x1="10.814" y1="28.89" x2="26.382" y2="28.89"/>
		</g>
		<path fill="none" stroke="#676767" stroke-width="0.5" stroke-linecap="round" stroke-miterlimit="10" d="M10.812,15
			c-1.491,0-2.702,1.209-2.702,2.704s1.211,2.704,2.702,2.704"/>
	</g>
</g>
<g id="Layer_2" display="none">
	<g display="inline">
		<circle fill="#676767" cx="17.351" cy="23.244" r="1.394"/>
		<path fill="none" stroke="#676767" stroke-width="0.5" stroke-linecap="round" stroke-miterlimit="10" d="M27.558,13.617
			c-2.762-3.043-6.387-4.721-10.215-4.721c-3.934,0-7.629,1.746-10.408,4.914"/>
		<path fill="none" stroke="#676767" stroke-width="0.5" stroke-linecap="round" stroke-miterlimit="10" d="M24.642,17.057
			c-1.975-2.176-4.566-3.375-7.301-3.375c-2.809,0-5.449,1.248-7.439,3.514"/>
		<path fill="none" stroke="#676767" stroke-width="0.5" stroke-linecap="round" stroke-miterlimit="10" d="M22.028,20.139
			c-1.271-1.4-2.936-2.172-4.689-2.172c-1.805,0-3.504,0.801-4.779,2.256"/>
	</g>
</g>
<g id="Layer_3" display="none">
	<g display="inline">
		<g>
			
				<rect x="8.832" y="6.695" fill="none" stroke="#676767" stroke-width="0.5" stroke-linecap="round" stroke-miterlimit="10" width="15.957" height="5.547"/>
			
				<rect x="5.092" y="19.535" fill="none" stroke="#676767" stroke-width="0.5" stroke-linecap="round" stroke-miterlimit="10" width="24.309" height="4.986"/>
			<polygon fill="none" stroke="#676767" stroke-width="0.5" stroke-linecap="round" stroke-miterlimit="10" points="29.4,19.535 
				5.092,19.535 8.832,12.242 24.789,12.242 			"/>
			
				<line fill="none" stroke="#676767" stroke-width="0.5" stroke-linecap="round" stroke-miterlimit="10" x1="27.904" y1="24.521" x2="27.904" y2="26.516"/>
			
				<line fill="none" stroke="#676767" stroke-width="0.5" stroke-linecap="round" stroke-miterlimit="10" x1="6.338" y1="24.521" x2="6.338" y2="26.516"/>
		</g>
	</g>
</g>
<g id="Layer_4" display="none">
	<g display="inline">
		<g>
			<g>
				
					<line fill="none" stroke="#676767" stroke-width="0.5" stroke-miterlimit="10" x1="13.837" y1="24.999" x2="13.837" y2="8.875"/>
				<path fill="none" stroke="#676767" stroke-width="0.5" stroke-miterlimit="10" d="M11.763,9.017c0,0-0.68,4.625,2.074,4.625
					s2.041-4.625,2.041-4.625"/>
			</g>
			<rect x="13.106" y="21.314" fill="#676767" width="1.289" height="3.685"/>
		</g>
		<g>
			<g>
				<path fill="none" stroke="#676767" stroke-width="0.5" stroke-miterlimit="10" d="M22.159,24.999V8.875h-0.953
					c0,0-0.951,0.958-0.951,4.971c0,4.013,1.768,3.36,1.768,3.36"/>
			</g>
			<rect x="21.515" y="21.314" fill="#676767" width="1.289" height="3.685"/>
		</g>
	</g>
</g>
<g id="Layer_5" display="none">
	<g display="inline">
		<g>
			<polygon fill="none" stroke="#676767" stroke-width="0.5" stroke-miterlimit="10" points="10.171,13.901 10.171,16.473 
				10.171,24.838 24.321,24.838 24.321,13.901 			"/>
			<path fill="#676767" d="M18.165,20.411v1.714h-1.84v-1.716c-0.646-0.335-1.092-1.002-1.092-1.782c0-1.111,0.9-2.012,2.012-2.012
				c1.115,0,2.016,0.9,2.016,2.012C19.261,19.408,18.815,20.076,18.165,20.411z"/>
		</g>
		<path fill="none" stroke="#676767" stroke-width="0.5" stroke-miterlimit="10" d="M12.165,13.901v-3.596
			c0-2.798,2.275-5.073,5.074-5.073c2.797,0,5.072,2.275,5.072,5.073v3.596"/>
	</g>
</g>
<g id="Layer_6" display="none">
	<g display="inline">
		<g>
			<circle fill="none" stroke="#676767" stroke-width="0.5" stroke-miterlimit="10" cx="26.989" cy="13.54" r="7.07"/>
			<g>
				<text transform="matrix(1 0 0 1 21.6035 15.3047)" fill="#676767" font-family="'NexaBold'" font-size="5.7164">24h</text>
			</g>
		</g>
		<g>
			<path fill="#676767" d="M9.748,14.284"/>
			<g>
				<path fill="none" stroke="#676767" stroke-width="0.5" stroke-miterlimit="10" d="M14.121,22.054c0-1.535,0-5.037,0-5.037
					s-1.443-1.676-2.908-1.676h-2.65c-1.465,0-2.908,1.676-2.908,1.676s0,3.502,0,5.037"/>
				<circle fill="none" stroke="#676767" stroke-width="0.5" stroke-miterlimit="10" cx="10.027" cy="10.19" r="3.35"/>
			</g>
		</g>
		<rect x="0.94" y="19.11" fill="#676767" width="17.7" height="11.125"/>
		<polyline fill="#676767" points="21.604,18.12 20.73,20.61 23.31,19.573 		"/>
		<line fill="none" stroke="#F5F6F6" stroke-width="0.5" stroke-miterlimit="10" x1="2.591" y1="21.752" x2="16.826" y2="21.752"/>
	</g>
</g>
<g id="Layer_7" display="none">
	<g display="inline">
		<g>
			
				<rect x="12.656" y="18.58" fill="none" stroke="#676767" stroke-width="0.5" stroke-miterlimit="10" width="15.874" height="3.784"/>
			<line fill="none" stroke="#676767" stroke-miterlimit="10" x1="10.231" y1="22.819" x2="10.231" y2="18.125"/>
			<line fill="none" stroke="#676767" stroke-miterlimit="10" x1="7.962" y1="22.819" x2="7.962" y2="18.125"/>
		</g>
		<g>
			<line fill="none" stroke="#676767" stroke-width="0.5" stroke-miterlimit="10" x1="10.378" y1="8.788" x2="10.378" y2="14.394"/>
			<line fill="none" stroke="#676767" stroke-width="0.5" stroke-miterlimit="10" x1="8.073" y1="6.669" x2="8.073" y2="14.394"/>
		</g>
	</g>
</g>
<g id="Layer_8" display="none">
	<g display="inline">
		<g>
			<circle fill="none" stroke="#676767" stroke-miterlimit="10" cx="17.714" cy="16.437" r="8.492"/>
			<polyline fill="none" stroke="#676767" stroke-linecap="round" stroke-miterlimit="10" points="17.641,12.858 17.714,16.437 
				21.753,18.858 			"/>
		</g>
		<line fill="none" stroke="#676767" stroke-width="0.5" stroke-miterlimit="10" x1="17.641" y1="8.193" x2="17.641" y2="10.095"/>
		<line fill="none" stroke="#676767" stroke-width="0.5" stroke-miterlimit="10" x1="17.641" y1="23.027" x2="17.641" y2="24.929"/>
		<line fill="none" stroke="#676767" stroke-width="0.5" stroke-miterlimit="10" x1="9.272" y1="16.561" x2="11.175" y2="16.561"/>
		<line fill="none" stroke="#676767" stroke-width="0.5" stroke-miterlimit="10" x1="24.106" y1="16.561" x2="26.009" y2="16.561"/>
	</g>
</g>
<g id="Layer_9" display="none">
	<g display="inline">
		<g>
			<rect x="9.222" y="11.255" fill="none" stroke="#676767" stroke-miterlimit="10" width="16.984" height="11.553"/>
			
				<line fill="none" stroke="#676767" stroke-width="0.5" stroke-miterlimit="10" x1="17.713" y1="15.646" x2="24.011" y2="15.646"/>
			
				<line fill="none" stroke="#676767" stroke-width="0.5" stroke-miterlimit="10" x1="17.713" y1="18.418" x2="24.011" y2="18.418"/>
		</g>
		
			<rect x="11.881" y="14.78" fill="none" stroke="#676767" stroke-width="0.5" stroke-miterlimit="10" width="4.258" height="4.258"/>
		<line fill="none" stroke="#676767" stroke-width="0.5" stroke-miterlimit="10" x1="16.139" y1="14.78" x2="11.881" y2="19.038"/>
		<line fill="none" stroke="#676767" stroke-width="0.5" stroke-miterlimit="10" x1="11.881" y1="14.78" x2="16.139" y2="19.038"/>
	</g>
</g>
<g id="Layer_10" display="none">
	<circle display="inline" fill="none" stroke="#676767" stroke-miterlimit="10" cx="16.714" cy="16.36" r="9.894"/>
	<g display="inline">
		<text transform="matrix(1 0 0 1 13.0947 20.2295)" fill="#676767" font-family="'NexaBold'" font-size="10.7333">$</text>
	</g>
</g>
<g id="Layer_11" display="none">
	<path display="inline" fill="none" stroke="#676767" stroke-miterlimit="10" d="M17.509,14.665c0-2.348-1.904-4.25-4.248-4.25
		c-2.347,0-4.249,1.902-4.249,4.25c0,0-0.81,6.777,8.497,9.921c0,0,8.497-1.352,8.497-9.921c0-2.348-1.904-4.25-4.249-4.25
		C19.409,10.415,17.509,12.317,17.509,14.665"/>
</g>
<g id="Layer_12" display="none">
	<g display="inline">
		<g>
			<path fill="none" stroke="#676767" stroke-width="0.5" stroke-miterlimit="10" d="M1.398,16.085c0,0-0.493,3.765,3.136,4.08
				C4.534,20.165,5.166,16.435,1.398,16.085z"/>
			<path fill="none" stroke="#676767" stroke-width="0.5" stroke-miterlimit="10" d="M8.543,16.085c0,0,0.491,3.765-3.136,4.08
				C5.408,20.165,4.776,16.435,8.543,16.085z"/>
		</g>
		<g>
			<path fill="none" stroke="#676767" stroke-width="0.5" stroke-miterlimit="10" d="M1.398,12.005c0,0-0.493,3.765,3.136,4.08
				C4.534,16.085,5.166,12.354,1.398,12.005z"/>
			<path fill="none" stroke="#676767" stroke-width="0.5" stroke-miterlimit="10" d="M8.543,12.005c0,0,0.491,3.765-3.136,4.08
				C5.408,16.085,4.776,12.354,8.543,12.005z"/>
		</g>
		<polygon fill="none" stroke="#676767" stroke-width="0.5" stroke-miterlimit="10" points="2.975,21.239 7.161,21.239 
			6.027,24.806 4.189,24.806 		"/>
	</g>
	<line display="inline" fill="none" stroke="#676767" stroke-miterlimit="10" x1="11.152" y1="23.463" x2="11.152" y2="25.917"/>
	<g display="inline">
		
			<ellipse fill="none" stroke="#676767" stroke-width="0.5" stroke-miterlimit="10" cx="25.526" cy="10.089" rx="0.747" ry="0.757"/>
		<polyline fill="none" stroke="#676767" stroke-width="0.5" stroke-miterlimit="10" points="26.273,10.089 26.273,6.307 
			28.871,5.609 28.871,9.391 		"/>
		<ellipse fill="none" stroke="#676767" stroke-width="0.5" stroke-miterlimit="10" cx="28.124" cy="9.391" rx="0.747" ry="0.757"/>
		<line fill="none" stroke="#676767" stroke-width="0.5" stroke-miterlimit="10" x1="26.273" y1="7.482" x2="28.871" y2="6.943"/>
	</g>
	<g display="inline">
		
			<ellipse fill="none" stroke="#676767" stroke-width="0.5" stroke-miterlimit="10" cx="29.433" cy="13.611" rx="0.747" ry="0.757"/>
		<polyline fill="none" stroke="#676767" stroke-width="0.5" stroke-miterlimit="10" points="30.18,13.611 30.18,9.83 32.779,9.132 
			32.779,12.914 		"/>
		
			<ellipse fill="none" stroke="#676767" stroke-width="0.5" stroke-miterlimit="10" cx="32.032" cy="12.914" rx="0.747" ry="0.757"/>
		<line fill="none" stroke="#676767" stroke-width="0.5" stroke-miterlimit="10" x1="30.18" y1="11.006" x2="32.779" y2="10.467"/>
	</g>
	<g display="inline">
		<rect x="11.644" y="13.957" fill="none" stroke="#676767" stroke-miterlimit="10" width="14.108" height="6.356"/>
		<polyline fill="none" stroke="#676767" stroke-miterlimit="10" points="11.644,20.313 9.79,23.256 28.023,23.256 25.752,20.313 		
			"/>
		<line fill="none" stroke="#676767" stroke-miterlimit="10" x1="28.023" y1="23.256" x2="28.023" y2="25.917"/>
		<g>
			<circle fill="#676767" cx="13.634" cy="16.076" r="0.431"/>
			<circle fill="#676767" cx="13.634" cy="18.306" r="0.431"/>
			<circle fill="#676767" cx="15.03" cy="17.136" r="0.431"/>
			<circle fill="#676767" cx="13.019" cy="21.784" r="0.431"/>
			<circle fill="#676767" cx="15.892" cy="21.784" r="0.431"/>
			<circle fill="#676767" cx="18.766" cy="21.784" r="0.432"/>
			<circle fill="#676767" cx="21.637" cy="21.784" r="0.432"/>
			<circle fill="#676767" cx="24.51" cy="21.784" r="0.432"/>
		</g>
		<g>
			<circle fill="#676767" cx="16.579" cy="16.076" r="0.431"/>
			<circle fill="#676767" cx="16.579" cy="18.306" r="0.431"/>
			<circle fill="#676767" cx="17.976" cy="17.136" r="0.431"/>
		</g>
		<g>
			<circle fill="#676767" cx="19.524" cy="16.076" r="0.431"/>
			<circle fill="#676767" cx="19.524" cy="18.306" r="0.431"/>
			<circle fill="#676767" cx="20.921" cy="17.136" r="0.431"/>
		</g>
		<g>
			<circle fill="#676767" cx="22.472" cy="16.076" r="0.431"/>
			<circle fill="#676767" cx="22.472" cy="18.306" r="0.431"/>
			<circle fill="#676767" cx="23.867" cy="17.136" r="0.432"/>
		</g>
	</g>
</g>
<g id="Layer_13">
	<g>
		<polygon fill="none" stroke="#676767" stroke-miterlimit="10" points="21.722,23.803 11.704,23.803 11.704,15.119 16.713,9.197 
			21.722,15.119 		"/>
		<path fill="none" stroke="#676767" stroke-miterlimit="10" d="M18.448,23.803v-4.88c0-0.959-0.777-1.736-1.735-1.736
			c-0.959,0-1.736,0.777-1.736,1.736v4.88"/>
	</g>
</g>
</svg>
