<?xml version="1.0" encoding="utf-8"?>
<!-- Generator: Adobe Illustrator 16.0.0, SVG Export Plug-In . SVG Version: 6.00 Build 0)  -->
<!DOCTYPE svg PUBLIC "-//W3C//DTD SVG 1.1//EN" "http://www.w3.org/Graphics/SVG/1.1/DTD/svg11.dtd">
<svg version="1.1" xmlns="http://www.w3.org/2000/svg" xmlns:xlink="http://www.w3.org/1999/xlink" x="0px" y="0px" width="35px"
	 height="35px" viewBox="0 0 35 35" enable-background="new 0 0 35 35" xml:space="preserve">
<g id="Layer_1" display="none">
	<g display="inline">
		<line fill="none" stroke="#676767" stroke-miterlimit="10" x1="17.26" y1="4.316" x2="17.26" y2="10.792"/>
		<line fill="none" stroke="#676767" stroke-miterlimit="10" x1="19.923" y1="1.868" x2="19.923" y2="10.792"/>
		<g>
			<path fill="none" stroke="#676767" stroke-width="0.5" stroke-linecap="round" stroke-miterlimit="10" d="M10.814,18.816
				c0,4.301,3.486,7.785,7.783,7.785c4.3,0,7.784-3.484,7.784-7.785v-5.36H10.814V18.816z"/>
			<line fill="none" stroke="#676767" stroke-miterlimit="10" x1="10.814" y1="28.89" x2="26.382" y2="28.89"/>
		</g>
		<path fill="none" stroke="#676767" stroke-width="0.5" stroke-linecap="round" stroke-miterlimit="10" d="M10.812,15
			c-1.491,0-2.702,1.209-2.702,2.704s1.211,2.704,2.702,2.704"/>
	</g>
</g>
<g id="Layer_2" display="none">
	<g display="inline">
		<circle fill="#676767" cx="17.351" cy="23.244" r="1.394"/>
		<path fill="none" stroke="#676767" stroke-width="0.5" stroke-linecap="round" stroke-miterlimit="10" d="M27.558,13.617
			c-2.762-3.043-6.387-4.721-10.215-4.721c-3.934,0-7.629,1.746-10.408,4.914"/>
		<path fill="none" stroke="#676767" stroke-width="0.5" stroke-linecap="round" stroke-miterlimit="10" d="M24.642,17.057
			c-1.975-2.176-4.566-3.375-7.301-3.375c-2.809,0-5.449,1.248-7.439,3.514"/>
		<path fill="none" stroke="#676767" stroke-width="0.5" stroke-linecap="round" stroke-miterlimit="10" d="M22.028,20.139
			c-1.271-1.4-2.936-2.172-4.689-2.172c-1.805,0-3.504,0.801-4.779,2.256"/>
	</g>
</g>
<g id="Layer_3" display="none">
	<g display="inline">
		<g>
			
				<rect x="8.832" y="6.695" fill="none" stroke="#676767" stroke-width="0.5" stroke-linecap="round" stroke-miterlimit="10" width="15.957" height="5.547"/>
			
				<rect x="5.092" y="19.535" fill="none" stroke="#676767" stroke-width="0.5" stroke-linecap="round" stroke-miterlimit="10" width="24.309" height="4.986"/>
			<polygon fill="none" stroke="#676767" stroke-width="0.5" stroke-linecap="round" stroke-miterlimit="10" points="29.4,19.535 
				5.092,19.535 8.832,12.242 24.789,12.242 			"/>
			
				<line fill="none" stroke="#676767" stroke-width="0.5" stroke-linecap="round" stroke-miterlimit="10" x1="27.904" y1="24.521" x2="27.904" y2="26.516"/>
			
				<line fill="none" stroke="#676767" stroke-width="0.5" stroke-linecap="round" stroke-miterlimit="10" x1="6.338" y1="24.521" x2="6.338" y2="26.516"/>
		</g>
	</g>
</g>
<g id="Layer_4">
	<g>
		<g>
			<g>
				
					<line fill="none" stroke="#676767" stroke-width="0.5" stroke-miterlimit="10" x1="13.837" y1="24.999" x2="13.837" y2="8.875"/>
				<path fill="none" stroke="#676767" stroke-width="0.5" stroke-miterlimit="10" d="M11.763,9.017c0,0-0.68,4.625,2.074,4.625
					s2.041-4.625,2.041-4.625"/>
			</g>
			<rect x="13.106" y="21.314" fill="#676767" width="1.289" height="3.685"/>
		</g>
		<g>
			<g>
				<path fill="none" stroke="#676767" stroke-width="0.5" stroke-miterlimit="10" d="M22.159,24.999V8.875h-0.953
					c0,0-0.951,0.958-0.951,4.971c0,4.013,1.768,3.36,1.768,3.36"/>
			</g>
			<rect x="21.515" y="21.314" fill="#676767" width="1.289" height="3.685"/>
		</g>
	</g>
</g>
</svg>
