<svg version="1.1" id="Capa_1" xmlns="http://www.w3.org/2000/svg" xmlns:xlink="http://www.w3.org/1999/xlink" x="0px" y="0px"
	 viewBox="0 0 44.1 44.1" enable-background="new 0 0 44.1 44.1" xml:space="preserve">
<path fill="#5C9F94" d="M40.6,25c1.8-1.2,1.9-2.1,3.5-2.9c-1.7-1.2-1.8-2-3.5-2.9c1.3-1.7,1.1-2.7,2.5-3.9c-1.9-0.5-2.3-1.3-4.3-1.7
	c0.8-2,0.3-2.7,1.1-4.4c-2.1,0.1-2.6-0.6-4.6-0.3c0.1-2.1-0.6-2.7-0.3-4.6c-1.9,0.7-2.8,0.2-4.4,1.1c-0.4-2-1.4-2.5-1.7-4.3
	c-1.6,1.3-2.7,1-3.9,2.4c-0.8-1.8-2-1.8-2.9-3.5c-0.9,1.7-2.2,1.8-2.9,3.5c-1.4-1.5-2.5-1.1-3.9-2.5c-0.5,2-1.5,2.2-1.7,4.3
	c-1.7-1-3-0.2-4.4-1.1C9.4,6,8.3,7,8.8,8.8c-1.9-0.4-3,0.8-4.6,0.3c1.1,1.4,0.2,2.7,1.1,4.4c-1.9,0.2-2.5,1.7-4.3,1.7
	c1.3,1.4,0.9,2.8,2.4,3.9C1.8,19.8,1.7,21.3,0,22c1.6,1.1,1.8,2.4,3.5,2.9c-1.3,1.4-1.1,3-2.5,3.9c1.8,0.4,2.2,1.3,4.3,1.7
	c-0.7,1.9-0.3,2.7-1.1,4.4c2-0.1,2.5,0.6,4.6,0.3c-0.1,2.1,0.6,2.7,0.3,4.6c1.8-0.7,2.8-0.2,4.4-1.1c0.6,2.1,1.5,2.5,1.7,4.3
	c1.6-1.2,2.4-1.1,3.9-2.4c1.4,1.8,2,1.8,2.9,3.5c1.2-1.7,1.8-1.7,2.9-3.5c1.6,1.3,2.7,1.1,3.9,2.5c0.5-1.9,1.2-2.1,1.7-4.3
	c2.1,0.7,2.8,0.3,4.4,1.1c-0.3-1.8,0.3-2.3,0.3-4.6c2.2,0.1,2.7-0.5,4.6-0.3c-0.7-1.9-0.2-2.6-1.1-4.4c2.1-0.7,2.4-1.5,4.3-1.7
	C41.7,27.3,42,26.4,40.6,25z"/>
</svg>
