<?xml version="1.0" encoding="utf-8"?>
<!-- Generator: Adobe Illustrator 16.0.0, SVG Export Plug-In . SVG Version: 6.00 Build 0)  -->
<!DOCTYPE svg PUBLIC "-//W3C//DTD SVG 1.1//EN" "http://www.w3.org/Graphics/SVG/1.1/DTD/svg11.dtd">
<svg version="1.1" id="Layer_1" xmlns="http://www.w3.org/2000/svg" xmlns:xlink="http://www.w3.org/1999/xlink" x="0px" y="0px"
	 width="58.789px" height="58.792px" viewBox="0 0 58.789 58.792" enable-background="new 0 0 58.789 58.792" xml:space="preserve">
<path opacity="0.9" fill="#FFFFFF" d="M54.08,33.321c2.397-1.629,2.502-2.82,4.709-3.909c-2.259-1.605-2.364-2.696-4.704-3.909
	c1.771-2.313,1.51-3.607,3.271-5.171c-2.588-0.665-3.106-1.705-5.684-2.271c1.021-2.646,0.399-3.633,1.514-5.929
	c-2.773,0.067-3.501-0.812-6.105-0.398c0.117-2.854-0.815-3.579-0.396-6.104c-2.495,0.867-3.687,0.296-5.928,1.5
	c-0.559-2.654-1.907-3.275-2.264-5.683c-2.132,1.679-3.638,1.315-5.175,3.266C32.214,2.348,30.604,2.348,29.409,0
	c-1.191,2.297-2.95,2.399-3.909,4.707c-1.893-1.945-3.396-1.48-5.172-3.272c-0.612,2.626-2.012,2.99-2.269,5.684
	c-2.284-1.35-3.993-0.31-5.929-1.515c0.379,2.397-1.072,3.691-0.4,6.105c-2.488-0.546-3.991,1.007-6.109,0.398
	c1.444,1.855,0.251,3.569,1.508,5.928c-2.498,0.283-3.382,2.202-5.684,2.262c1.681,1.807,1.264,3.776,3.263,5.176
	C2.349,26.407,2.297,28.377,0,29.379c2.192,1.434,2.349,3.147,4.702,3.913c-1.783,1.826-1.421,4.004-3.271,5.17
	c2.42,0.49,2.99,1.732,5.682,2.271c-0.93,2.574-0.358,3.611-1.512,5.928c2.658-0.135,3.384,0.795,6.104,0.402
	c-0.129,2.83,0.857,3.607,0.396,6.107c2.379-0.996,3.674-0.318,5.931-1.508c0.751,2.797,1.996,3.311,2.261,5.684
	c2.068-1.645,3.211-1.438,5.174-3.264c1.821,2.396,2.702,2.396,3.907,4.709c1.543-2.262,2.422-2.211,3.916-4.705
	c2.19,1.77,3.591,1.508,5.169,3.273c0.651-2.592,1.583-2.852,2.27-5.684c2.788,0.963,3.67,0.447,5.929,1.514
	c-0.342-2.465,0.385-3.088,0.399-6.105c2.941,0.164,3.562-0.613,6.104-0.393c-0.935-2.557-0.313-3.484-1.501-5.936
	c2.798-0.975,3.261-2.012,5.683-2.258C55.595,36.411,56.011,35.27,54.08,33.321z M54.377,29.307
	c-0.809,0.261-2.352,0.725-3.192,0.77c-0.119,0.006-0.226,0.004-0.312-0.01c-0.485-0.072-1.164-0.706-1.523-1.092
	c0.408-0.331,1.166-0.871,1.667-0.879C51.67,28.096,53.365,28.831,54.377,29.307z M51.404,21.536c0.646,0,1.305,0.029,1.753,0.06
	c-0.869,0.719-2.347,1.862-2.972,2.008c-0.061,0.012-0.134,0.02-0.213,0.02c-0.529,0-1.254-0.306-1.604-0.472
	c0.254-0.458,0.755-1.24,1.204-1.433C49.773,21.634,50.252,21.536,51.404,21.536z M46.173,15.73
	c0.492-0.409,2.298-0.894,3.396-1.152c-0.077,0.116-0.162,0.243-0.253,0.375c-0.635,0.925-1.527,2.122-2.013,2.404
	c-0.19,0.111-0.513,0.166-0.934,0.166h-0.001h-0.001c-0.356,0-0.716-0.043-0.938-0.076C45.541,16.938,45.797,16.04,46.173,15.73z
	 M41.102,11.118c0.263-0.379,1.163-0.97,2.016-1.477c0.338-0.201,0.669-0.389,0.95-0.544l-0.001,0.001h0.001
	c-0.351,1.07-0.994,2.826-1.447,3.285c-0.341,0.349-1.256,0.522-1.772,0.587C40.815,12.447,40.821,11.518,41.102,11.118z
	 M35.258,8.64c0.148-0.626,1.302-2.101,2.023-2.967c0.063,1.126,0.109,2.995-0.141,3.587c-0.195,0.449-0.98,0.947-1.442,1.197
	C35.478,9.982,35.145,9.115,35.258,8.64z M28.447,7.856c-0.031-0.349,0.146-1.034,0.377-1.753c0.191-0.598,0.423-1.218,0.61-1.693
	c0.415,1.05,1.044,2.809,0.99,3.446l0,0c0,0.001,0,0.001,0,0.001c-0.03,0.366-0.37,0.862-0.689,1.249
	c-0.106,0.128-0.212,0.245-0.301,0.341c-0.232-0.245-0.558-0.633-0.771-1.009C28.546,8.233,28.461,8.03,28.447,7.856
	C28.447,7.857,28.447,7.857,28.447,7.856L28.447,7.856z M21.591,5.673c0.271,0.324,0.601,0.735,0.918,1.153
	c0.526,0.699,1.01,1.423,1.103,1.812c0.014,0.06,0.021,0.125,0.023,0.194c0.007,0.349-0.133,0.816-0.285,1.207
	c-0.062,0.155-0.122,0.299-0.179,0.417c-0.461-0.25-1.246-0.748-1.438-1.197C21.481,8.668,21.526,6.799,21.591,5.673z M17.44,11.474
	c0.261,0.416,0.216,1.348,0.154,1.866c-0.516-0.089-1.42-0.314-1.741-0.684c-0.426-0.48-0.969-2.271-1.265-3.359
	C15.549,9.893,17.103,10.931,17.44,11.474z M9.62,14.752c1.083,0.294,2.509,0.741,2.935,1.108c0.275,0.24,0.478,0.805,0.602,1.29
	c0.043,0.162,0.076,0.315,0.102,0.444c-0.202,0.026-0.51,0.055-0.836,0.055c-0.471,0-0.829-0.066-1.031-0.19
	c-0.414-0.248-1.108-1.177-1.687-2.029c-0.193-0.283-0.373-0.559-0.524-0.796C9.318,14.669,9.465,14.709,9.62,14.752z M7.454,21.654
	c1.077,0,1.53,0.096,1.723,0.176c0.169,0.07,0.346,0.224,0.516,0.41c0.282,0.314,0.538,0.727,0.697,1.013h-0.001l0.001,0.001
	c-0.347,0.165-1.077,0.479-1.608,0.479c-0.076,0-0.147-0.004-0.206-0.017c-0.625-0.145-2.109-1.279-2.98-1.994
	C6.065,21.692,6.772,21.654,7.454,21.654z M4.412,29.516c0.788-0.32,2.304-0.911,3.129-1.014c0.118-0.014,0.222-0.019,0.307-0.011
	c0.487,0.033,1.216,0.615,1.599,0.974c-0.046,0.044-0.1,0.093-0.156,0.145c-0.397,0.356-0.997,0.821-1.42,0.856
	C7.175,30.532,5.321,29.864,4.412,29.516z M7.386,37.096c-0.645,0-1.303-0.031-1.755-0.057c0.872-0.719,2.351-1.861,2.975-2.008
	c0.062-0.016,0.132-0.02,0.213-0.02c0.527,0,1.256,0.305,1.604,0.471c-0.254,0.459-0.754,1.24-1.206,1.434
	C9.019,36.997,8.538,37.096,7.386,37.096z M12.623,42.866c-0.484,0.422-2.275,0.959-3.364,1.242c0.597-0.951,1.644-2.504,2.192-2.84
	c0.206-0.123,0.572-0.191,1.059-0.191c0.314,0,0.613,0.025,0.809,0.051C13.223,41.643,12.99,42.545,12.623,42.866z M17.671,47.407
	c-0.326,0.553-1.859,1.625-2.804,2.242c0.27-1.098,0.774-2.896,1.191-3.389c0.313-0.375,1.213-0.617,1.726-0.721
	C17.854,46.059,17.921,46.987,17.671,47.407z M23.611,50.159c-0.148,0.625-1.298,2.098-2.021,2.961
	c-0.064-1.125-0.109-2.994,0.143-3.586c0.191-0.445,0.977-0.949,1.438-1.195C23.395,48.811,23.727,49.682,23.611,50.159z
	 M29.435,54.381c-0.207-0.523-0.469-1.225-0.67-1.875c-0.202-0.65-0.346-1.25-0.317-1.57c0.04-0.49,0.628-1.207,0.987-1.59
	c0.359,0.383,0.947,1.1,0.99,1.59C30.479,51.577,29.85,53.333,29.435,54.381z M37.22,53.137c-0.699-0.881-1.809-2.383-1.942-3.012
	c-0.102-0.48,0.256-1.34,0.488-1.809c0.457,0.26,1.228,0.783,1.408,1.234C37.409,50.149,37.314,52.016,37.22,53.137z M34.178,35.979
	l3.66,9.988l-5.93-8.832l0.397,10.631l-2.911-10.232l-2.91,10.232l0.396-10.631l-5.932,8.832l3.662-9.988l-8.369,6.57l6.568-8.369
	l-9.99,3.66l8.835-5.93l-10.631,0.396l0.003-0.002h-0.003l10.233-2.909l-10.233-2.91l10.63,0.396l-8.834-5.93l9.99,3.661
	l-6.568-8.369l8.369,6.568l-3.662-9.988l5.932,8.833l-0.396-10.632l2.91,10.232l2.911-10.232l-0.397,10.632l5.93-8.833l-3.66,9.988
	l8.369-6.568l-6.57,8.369l9.991-3.661l-8.833,5.93l10.632-0.396l-10.235,2.91l10.235,2.909h-0.003l0.003,0.002l-10.633-0.396
	l8.834,5.93l-9.991-3.66l6.57,8.369L34.178,35.979z M41.453,47.213c-0.226-0.434-0.111-1.361-0.011-1.877
	c0.509,0.133,1.389,0.426,1.688,0.818c0.385,0.514,0.792,2.336,1.002,3.445C43.222,48.934,41.747,47.782,41.453,47.213z
	 M46.239,42.784c-0.371-0.32-0.605-1.223-0.703-1.736c0.2-0.025,0.51-0.055,0.833-0.055c0.473,0,0.829,0.064,1.035,0.186
	c0.548,0.332,1.603,1.875,2.209,2.828C48.52,43.725,46.726,43.204,46.239,42.784z M53.18,36.975
	c-0.34,0.014-0.802,0.031-1.285,0.031c-1.556,0-2.106-0.145-2.298-0.23c-0.057-0.023-0.112-0.057-0.169-0.1
	c-0.395-0.289-0.792-0.949-1.004-1.359c0.345-0.152,1.055-0.438,1.586-0.438c0.09,0,0.171,0.01,0.24,0.025
	c0.156,0.039,0.362,0.145,0.599,0.289C51.56,35.625,52.537,36.422,53.18,36.975L53.18,36.975L53.18,36.975z"/>
<polygon fill="#FFFFFF" points="32.304,31.508 39.006,34.293 32.813,30.508 40.049,31.083 32.99,29.396 40.049,27.708 
	32.813,28.282 39.006,24.498 32.304,27.284 37.021,21.77 31.508,26.486 34.291,19.784 30.509,25.979 31.081,18.741 29.395,25.803 
	27.708,18.741 28.282,25.979 24.498,19.784 27.281,26.486 21.768,21.77 26.486,27.284 19.783,24.498 25.979,28.282 18.74,27.708 
	25.803,29.396 18.74,31.083 25.979,30.508 19.783,34.293 26.486,31.508 21.768,37.024 27.281,32.305 24.498,39.008 28.282,32.815 
	27.708,40.051 29.395,32.991 31.081,40.051 30.509,32.815 34.291,39.008 31.508,32.305 37.021,37.024 "/>
</svg>
