<?xml version="1.0" encoding="utf-8"?>
<!-- Generator: Adobe Illustrator 16.0.0, SVG Export Plug-In . SVG Version: 6.00 Build 0)  -->
<!DOCTYPE svg PUBLIC "-//W3C//DTD SVG 1.1//EN" "http://www.w3.org/Graphics/SVG/1.1/DTD/svg11.dtd">
<svg version="1.1" id="Layer_1" xmlns="http://www.w3.org/2000/svg" xmlns:xlink="http://www.w3.org/1999/xlink" x="0px" y="0px"
	 width="189.15px" height="189.15px" viewBox="0 0 189.15 189.15" enable-background="new 0 0 189.15 189.15" xml:space="preserve">
<g>
	<defs>
		<path id="SVGID_1_" d="M189.15,94.578c0,52.231-42.342,94.572-94.575,94.572C42.343,189.15,0,146.81,0,94.578
			C0,42.343,42.343,0,94.575,0C146.809,0,189.15,42.343,189.15,94.578z"/>
	</defs>
	<use xlink:href="#SVGID_1_"  overflow="visible" fill="#FAA51A"/>
	<clipPath id="SVGID_2_">
		<use xlink:href="#SVGID_1_"  overflow="visible"/>
	</clipPath>
	<g clip-path="url(#SVGID_2_)">
		<g>
			<g>
				<path fill="#09809A" d="M36.486,173.024l-11.737-11.737c-3.821,3.811-6.212,9.166-6.209,14.994v72.782h16.599l0.002-72.725
					l-0.002-0.03v-0.026C35.145,174.983,35.641,173.886,36.486,173.024z M198.436,140.364v0.246
					c-0.067,7.571-3.138,14.357-8.111,19.345c-4.988,4.977-11.774,8.047-19.356,8.113h-0.237c-6.248-0.001-11.961-2.05-16.589-5.521
					c-0.968-0.726-1.895-1.513-2.766-2.359c-1.022-1.006-1.967-2.087-2.828-3.235l-16.588-16.589l-22.401-22.401
					c-0.052-0.054-0.094-0.092-0.119-0.117l-0.02-0.021c-4.073-4.081-9.479-6.174-14.819-6.209v-0.002H82.898v0.001
					c-5.358,0.02-10.788,2.113-14.877,6.21L68,117.846c-0.026,0.025-0.063,0.063-0.119,0.117l-43.17,43.17l11.74,11.736
					l43.244-43.246l0.05-0.047l0.015-0.014c0.921-0.916,2.049-1.339,3.255-1.35v-0.033h11.412v0.033
					c1.206,0.011,2.336,0.434,3.254,1.35l0.02,0.014l0.04,0.047l38.292,38.287l7.148,7.149c0.861,0.687,1.753,1.341,2.668,1.963
					c7.094,4.819,15.682,7.648,24.882,7.646c0.142,0,0.278,0,0.419-0.001c12.045-0.11,23.01-5.062,30.91-12.977
					c7.926-7.91,12.876-18.891,12.975-30.954v-0.373H198.436z"/>
			</g>
		</g>
		<g>
			<g>
				<path fill="#49A0D8" d="M161.666-18.022v12.295c0,0,0,0.003,0,0.008c-0.001,0.45-0.174,0.832-0.468,1.131l4.075,4.074
					c1.326-1.322,2.155-3.183,2.155-5.205v-12.303H161.666z M120.179,36.498l-0.018,0.016l-0.005,0.006
					c-0.319,0.317-0.711,0.464-1.131,0.468v0.012H19.859v-0.012c-0.419-0.004-0.811-0.15-1.13-0.468l-0.007-0.006l-0.015-0.016
					L5.416,23.207l-2.481-2.482c-0.299-0.238-0.608-0.466-0.927-0.681c-2.462-1.673-5.443-2.655-8.638-2.654h-0.145
					c-4.182,0.038-7.988,1.757-10.73,4.505c-2.751,2.745-4.47,6.557-4.504,10.745v23.729h5.762V32.684
					c0.023-2.628,1.09-4.983,2.816-6.715c1.731-1.729,4.087-2.794,6.719-2.816h0.082c2.17,0,4.152,0.711,5.759,1.916
					c0.336,0.252,0.659,0.524,0.96,0.818c0.355,0.35,0.684,0.725,0.982,1.123l5.759,5.76l7.824,7.824
					c1.414,1.417,3.29,2.143,5.145,2.155v0.001h99.268v-0.001c1.86-0.007,3.745-0.733,5.164-2.155l0.008-0.007
					c0.009-0.009,0.021-0.023,0.041-0.041l41.007-41.008l-4.075-4.073L120.179,36.498z"/>
			</g>
		</g>
		<g>
			<path fill="#1D427F" d="M142.551,39.216c3.906,3.846,9.021,5.78,14.099,5.775c5.077,0.005,10.192-1.931,14.092-5.768
				l-0.012,0.013c0.038-0.04,0.085-0.083,0.134-0.133l1.33-1.33l2.274-2.299c0.01-0.008,0.024-0.023,0.051-0.049l-0.026,0.025
				c0.942-0.925,2.135-1.362,3.359-1.352l0.003-0.143l98.093,0.002l0.167-8.458L177.956,25.5v-0.119
				c-3.439-0.045-6.933,1.251-9.576,3.853l-0.023,0.023c-0.001,0.001-0.021,0.021-0.057,0.057l-0.019,0.018l-2.217,2.24
				l-1.368,1.368c-0.014,0.015-0.034,0.034-0.057,0.058l-0.014,0.012c-2.223,2.182-5.082,3.261-7.977,3.265
				c-2.897-0.004-5.755-1.082-7.979-3.266c-0.033-0.032-0.059-0.058-0.069-0.068L108.021-7.64l-6.166,6.166l40.58,40.578
				C142.489,39.158,142.528,39.193,142.551,39.216z"/>
			<g>
				<path fill="#FAA51A" d="M282.683,25.511c0.002,0,0.008,0,0.01,0l0,0c3.751,0,7.189,1.511,9.674,3.941l0,0
					c2.545,2.479,4.148,5.973,4.176,9.804l0,0v0.033l0,0c0,0,0,0,0,0.012l0,0c0,0.014,0,0.036,0,0.069l-0.016,12.06l-8.465-0.041
					l0.017-12.023l0,0V39.36l0,0c0-0.007,0-0.021,0-0.036l0,0c-0.015-1.51-0.626-2.832-1.627-3.814l0,0
					c-0.985-0.956-2.287-1.531-3.769-1.536l0,0c-0.008,0-0.013,0-0.021,0l-0.04,0.001h-6.671v-8.464h6.652l0,0l0,0
					C282.63,25.511,282.657,25.511,282.683,25.511L282.683,25.511z M288.062,42.75L288.062,42.75L288.062,42.75L288.062,42.75
					L288.062,42.75z"/>
			</g>
		</g>
		<g>
			<path fill="#CA202C" d="M231.084,105.219v17.698h-65.438v0.035l-7.073-0.035h-0.091c-3.152,0.032-5.922,1.312-7.978,3.399
				c-1.998,2.063-3.204,4.786-3.206,7.882v0.045l0.002,0.087v53.969h-17.705v-53.928c0-0.061-0.002-0.117-0.002-0.173v-0.019
				c0-7.843,3.163-15.038,8.245-20.23c5.184-5.322,12.485-8.67,20.496-8.73h0.071c0,0,0,0,0.023,0h0.148l6.996,0.036v-0.036H231.084
				z"/>
			
				<linearGradient id="SVGID_3_" gradientUnits="userSpaceOnUse" x1="-4198.2612" y1="-153.8916" x2="-4186.2812" y2="-153.8916" gradientTransform="matrix(0 0.6743 1.1193 0 310.405 2971.3323)">
				<stop  offset="0" style="stop-color:#FFFFFF"/>
				<stop  offset="1" style="stop-color:#000000"/>
			</linearGradient>
			<polygon opacity="0.73" fill="url(#SVGID_3_)" points="129.207,137.27 129.21,146.334 147.1,146.333 147.097,137.271 			"/>
			<g>
				<path fill="#6BB17F" d="M286.213,153.852l0.002,0.002L286.213,153.852L286.213,153.852z M286.213,153.852
					c-0.006,0.007-0.014,0.014-0.02,0.019l0,0c-2.671,2.673-6.419,4.343-10.497,4.338l-0.02,0.001l0,0
					c-0.024-0.001-0.066,0.001-0.119,0.002l-135.9-0.003v-11.642l135.979-0.003h0.044l0.017,0.003l0,0
					c0.909-0.006,1.68-0.352,2.283-0.947L286.213,153.852L286.213,153.852z M275.718,146.564l-0.031-0.001l0,0
					C275.694,146.564,275.703,146.566,275.718,146.564L275.718,146.564z"/>
				<path fill="#6BB17F" d="M118.376,150.955l-0.001-0.002L118.376,150.955L118.376,150.955z M128.875,158.243l0.027-0.002l0,0
					C128.898,158.243,128.887,158.244,128.875,158.243L128.875,158.243z"/>
				<polygon fill="#6BB17F" points="286.278,153.79 326.849,113.22 318.648,105.02 277.87,145.799 286.071,153.998 				"/>
			</g>
			<path fill="#6BB17F" d="M131.025,146.562c0.037,0,0.072,0,0.111,0l0,0l0,0h9.196v11.701h-9.222l-0.055-0.002
				c-0.014,0-0.021,0-0.031,0l0,0c-2.047,0.006-3.848,0.802-5.21,2.124l0,0c-1.383,1.357-2.228,3.187-2.248,5.272l0,0
				c0,0.021,0,0.041,0,0.051l0,0v0.008l0,0l0.023,21.87l-11.703,0.057l-0.022-21.922c0-0.045,0-0.077,0-0.096l0,0
				c0-0.017,0-0.017,0-0.017l0,0v-0.047l0,0c0.04-5.295,2.256-10.124,5.773-13.552l0,0c3.435-3.358,8.188-5.448,13.373-5.448l0,0
				C131.017,146.562,131.023,146.562,131.025,146.562L131.025,146.562z M123.591,170.396L123.591,170.396L123.591,170.396
				L123.591,170.396L123.591,170.396z"/>
		</g>
		<g>
			<path fill="#1D427F" d="M11.256,86.386c0.461-2.327,0.629-3.966,1.002-7.075c0.373-3.107,0.292-0.688,1.53-5.502
				s2.475-3.666,2.151-5.908c-0.322-2.241,1.361-4.664,4.431-6.062c1.524-0.693,1.964-1.628,2.02-2.394l-0.232,0.037
				c0,0-6.214,1.654-8.329,6.932S8.724,77.43,8.696,87.669c0,0-0.043,3.393,1.02,2.176c0,0,0.465,4.077,1.973,4.453
				c0,0,1.286,4.162,2.794,5.338l0.715,0.018c-2.082-1.759-2.754-5.168-3.284-6.74C11.385,91.34,10.798,88.713,11.256,86.386z"/>
			<path fill="#1D427F" d="M15.197,99.653c0,0-1.534,1.499,0.194,5.652c1.722,4.136,2.676,14.713,14.344,17.381
				c-0.496-1.336-1.986-3.774-5.705-7.386C19.485,110.888,15.197,99.653,15.197,99.653z"/>
			<path fill="#1D427F" d="M32.407,118.146c0,0,2.658,3.144,4.901,4.424c2.244,1.277,2.244,1.277,2.244,1.277
				s-5.897-1.708-8.01-3.193c-2.112-1.488,3.433,4.218,4.677,5.005c1.529,1.077,8.779,6.017,12.657,8.654
				c0.259-0.804,0.865-2.041,2.109-1.895c0,0,0.424-0.095,0.923-0.651c0.278-0.311,0.071-0.68,0.583-1.004l-15.315-9.588
				L32.407,118.146z"/>
			<path fill="#CA202C" d="M34.968,116.862c-3.449-1.9-2.47-2.294-5.469-5.362c-0.727-0.745-1.378-1.526-1.948-2.283
				c-0.512,0.349-0.37,0.393-0.87,0.42c-0.528,0.029-2.327-0.458-2.514,0.295c-0.188,0.754-0.499,0.557-1.367-0.141
				c-0.867-0.696-0.847,0.188-1.686-0.78c-0.477-0.548-1.625-1.178-2.797-2.367c1.589,3.159,3.624,6.627,5.713,8.657
				c3.719,3.611,5.209,6.05,5.705,7.386c0.046,0.01,0.088,0.021,0.133,0.031c3.311,4.065,7.477,7.585,8.118,8.064
				c0.64,0.479,0.488-0.198,0.018-1.517c-0.472-1.318,4.488,5.76,5.809,6.889c1.32,1.128-0.794-2.759-1.464-3.766
				c-0.671-1.008,3.735,3.971,3.735,3.971s0.563-0.66,1.363-0.661c0,0,0.273-0.771,1.262-0.726c0,0,0.046-0.282,0.168-0.66
				c-3.878-2.638-11.128-7.577-12.657-8.654c-1.244-0.787-6.789-6.493-4.677-5.005c2.112,1.485,8.01,3.193,8.01,3.193
				s0,0-2.244-1.277c-2.243-1.28-4.901-4.424-4.901-4.424l4.77,3.029l15.315,9.588c0.356-0.225,1.064-0.43,2.532-0.574
				C49.564,126.453,37.608,118.317,34.968,116.862z"/>
			<path fill="#1D427F" d="M74.506,112.219c0,0-4.389-6.389-10.324-10.776c-5.204-4.978-7.354-6.633-7.919-6.774
				c-0.566-0.14-8.166-7.876-18.539-10.099c-0.061-0.048-0.128-0.102-0.197-0.161c0.574,1.428,1.349,3.677,1.229,5.182
				c-0.186,2.355-0.299,1.846-0.073,2.863c0.228,1.017-2.668,6.379-3.176,7.294c-0.509,0.914,1.002,3.69,0.889,3.983
				c-0.111,0.293-0.95,0.925-0.969,1.641c-0.019,0.715-1.26,1.526-2.239,1.923c-0.98,0.397-1.225,0.896-2.023,0.896
				c-0.801,0.002-2.016,0.539-2.016,0.539s-0.886,0.021-1.507,0.426c-0.034,0.021-0.062,0.042-0.091,0.062
				c0.57,0.757,1.222,1.538,1.948,2.283c2.999,3.068,2.02,3.462,5.469,5.362c2.641,1.455,14.597,9.591,20.057,13.326
				c0.191-0.021,0.396-0.038,0.613-0.056L74.506,112.219z"/>
			<path fill="#CA202C" d="M77.349,138.9l2.354,0.186l-1.744-1.834l3.722,1.125c0,0,1.75-2.957-2.215-9.096l-10.473,10.06
				l4.956,0.674l0.029,0.044c0.933-0.119,2.641,0.01,5.783,0.883L77.349,138.9z"/>
			<path fill="#F58120" d="M31.966,82.297c-0.695,1.668-0.777,3.287-2.588,2.356c-1.81-0.93,0.14-2.166-2.713-1.797
				c-2.855,0.371-3.581,0.711-5.125-0.635c-1.548-1.346-3.827-1.993-4.084-4.338c-0.257-2.346-3.439-2.258-3.379,1.2
				c0.058,3.456,0.851,4.614,0.504,5.849c-0.349,1.234,1.858,2.343,2.131,3.173c0.274,0.827-0.544,2.344,0.089,3.984
				c0.633,1.638,1.744,1.834,1.841,3.859s0.437,4.352,1.354,5.659c0.916,1.308,1.584,2.316,3.325,1.749
				c1.742-0.567,4.257-0.862,6.111-2.521c1.854-1.658,3.646-1.614,4.18-2.803c0.535-1.186,2.86-3.129,3.695-5.362
				c0.654-1.741-0.364-6.356,0.01-8.452c-0.94-0.869-2.366-2.569-3.04-4.545C33.388,80.402,32.34,81.398,31.966,82.297z"/>
			<path fill="#FBF38F" d="M12.833,89.061c-0.83-2.13,0.808-1.962,1.41-2.451c0.163-0.132,0.305-0.477,0.425-0.906
				c-0.114-0.25-0.162-0.508-0.087-0.771c0.347-1.234-0.446-2.393-0.504-5.849c-0.061-3.458,3.122-3.546,3.379-1.2
				c0.257,2.345,2.536,2.992,4.084,4.338c1.544,1.346,2.27,1.006,5.125,0.635c2.853-0.369,0.903,0.867,2.713,1.797
				c1.811,0.931,1.893-0.688,2.588-2.356c0.374-0.898,1.422-1.895,2.311-2.623c-0.085-0.257-0.163-0.516-0.223-0.78
				c-0.387-1.729-0.602-3.22-0.707-4.041c-0.046-0.183-0.075-0.403-0.078-0.678c-0.042-2.57-1.811-0.931-4.955,0.128
				c-2.499,0.84-3.559,1.075-3.765-1.701c-0.645-0.31,1.06-4.873-2.277-2.645c-0.651,0.434-1.667-0.696-2.487,0.021
				c-0.818,0.715-2.713-0.997-2.328-2.062c0.385-1.062-0.173-2.362,0.807-3.56c0.79-0.967,2.156-1.946,3.869-2.089
				c-0.104-0.444,1.053-0.257,1.629-0.384c0.679-0.153,0.631-0.765,0.007-1.961c-0.125-0.242-0.206-0.46-0.253-0.654l-1.125,0.177
				c-0.056,0.766-0.495,1.7-2.02,2.394c-3.069,1.397-4.753,3.82-4.431,6.062c0.323,2.242-0.913,1.094-2.151,5.908
				s-1.157,2.395-1.53,5.502c-0.373,3.109-0.541,4.748-1.002,7.075c-0.319,1.622-0.131,3.386,0.191,4.843
				c0.56,0.255,1.059,0.556,1.313,0.695C13.57,92.365,13.663,91.187,12.833,89.061z"/>
			<path fill="#F6EB16" d="M19.365,103.173c0,0,2.688,3.103,2.538,0.275c-0.79-0.222-1.296-0.962-1.908-1.84
				c-0.917-1.308-1.257-3.634-1.354-5.659s-1.208-2.222-1.841-3.859c-0.633-1.641,0.186-3.157-0.089-3.984
				c-0.216-0.652-1.62-1.479-2.044-2.402c-0.12,0.43-0.262,0.774-0.425,0.906c-0.603,0.489-2.24,0.321-1.41,2.451
				c0.83,2.126,0.737,3.305-0.072,2.863c-0.255-0.14-0.754-0.44-1.313-0.695c0.14,0.633,0.306,1.207,0.466,1.685
				c0.53,1.572,1.202,4.981,3.284,6.74c0,0,0.034,0.089,0.099,0.249C16.289,100.082,17.61,100.97,19.365,103.173z"/>
			<path fill="#F6EB16" d="M37.526,84.408c-0.068-0.059-0.137-0.121-0.21-0.189c-0.374,2.096,0.645,6.711-0.01,8.452
				c-0.835,2.233-3.16,4.177-3.695,5.362c-0.534,1.188-2.325,1.145-4.18,2.803c-1.854,1.659-4.369,1.954-6.111,2.521
				c-0.573,0.186-1.029,0.199-1.417,0.091c0.149,2.827-2.538-0.275-2.538-0.275c-1.755-2.203-3.076-3.091-4.069-3.271
				c0.325,0.828,1.457,3.634,3.021,6.741c1.172,1.189,2.32,1.819,2.797,2.367c0.839,0.969,0.818,0.084,1.686,0.78
				c0.868,0.697,1.179,0.895,1.367,0.141c0.187-0.753,1.985-0.266,2.514-0.295c0.528-0.028,0.339-0.075,0.961-0.481
				c0.621-0.405,1.507-0.426,1.507-0.426s1.215-0.537,2.016-0.539c0.799,0,1.043-0.499,2.023-0.896
				c0.979-0.396,2.221-1.208,2.239-1.923c0.019-0.716,0.857-1.348,0.969-1.641c0.113-0.293-1.397-3.069-0.889-3.983
				c0.508-0.915,3.403-6.277,3.176-7.294c-0.226-1.018-0.112-0.508,0.073-2.863C38.875,88.085,38.101,85.836,37.526,84.408z"/>
			<path fill="#14311A" d="M55.177,130.259c0,0-3.279-0.335-3.257,1.259l-0.345,0.546c0,0-1.314,0.093-1.772,0.73
				c-0.459,0.636-0.705,1.023-0.705,1.023l-0.551,1.123c0,0-1.003,0.291-1.073,0.574c-0.069,0.282-1.32,0.362-1.744,1.458
				c-0.421,1.096-1.572,1.618,0.061,3.856c0,0-0.213-1.554,0.431-1.965c0.642-0.41-0.002-0.601,0.316-0.671
				c0.316-0.07,0.312,0.799,0.276,1.539c-0.034,0.743-0.42,2.898,0.753,4.57c1.176,1.674,2.017,1.553,2.017,1.553
				s-2.498-3.111-1.758-4.279c0.741-1.167,0.954-1.413,1.024-1.697c0.069-0.282,1.007-2.36,0.958-2.882
				c-0.052-0.523,0.239-0.121,0.451-0.368s0.676-2.354,1.077-2.643C51.739,133.694,54.555,130.464,55.177,130.259z"/>
			<path fill="#14311A" d="M39.592,145.35c0,0-2.493-0.111-3.063,1.219c-0.571,1.328-1.428,0.785-1.943,1.167
				c-0.515,0.381-1.163,1.662-1.147,2.325c0.015,0.665-1.997,2.114-1.637,3.435c0.36,1.321,0.053,3.525,3.07,4.187
				c0,0-1.415-0.953-1.479-2.139c-0.064-1.188-0.064-1.188-0.064-1.188s0.641-1.009,0.79-1.243c0.148-0.233,0.438,0.769,1.188,1.135
				c0.749,0.367,1.908,0.776,1.908,0.776l1.244-0.412c0,0-1.599-0.576-1.74-1.212c-0.142-0.637-0.439-1.371-0.439-1.371l-0.48-0.959
				C35.798,151.069,38.731,146.275,39.592,145.35z"/>
			<path fill="#A51E22" d="M17.832,64.495c-1.154,1.413-0.497,2.945-0.95,4.201c-0.455,1.256,1.78,3.276,2.747,2.432
				c0.965-0.847,2.031,0.176,2.933-0.025c0.899-0.202,2.21,0.03,0.822,0.866c-1.164,0.698,1.104,1.889,1.863,2.254
				c-0.062-0.848-0.057-1.929,0.003-3.301c0.293-6.679-1.797-7.577-2.642-8.541c-0.127-0.146-0.189-0.258-0.211-0.35
				C20.378,62.201,18.765,63.354,17.832,64.495z"/>
			<g>
				<path fill="#089865" d="M60.829,65.504c-0.146-1.885-1.286-9.004-10.234-11.578c-10.302-2.963-20.487,0.664-25.406,4.676
					c0.366,1.097,1.236,1.775,1.401,2.345c0.217,0.751,0.509,3.016,0.504,5.188c-0.007,2.171,0.731,1.596,0.731,1.596
					s17.96-11.708,31.122-3.771c0.088,0.049,0.171,0.096,0.245,0.139c0.321,0.191,0.486,0.312,0.486,0.312
					c-0.161-0.107-0.325-0.209-0.486-0.312c-0.082-0.049-0.165-0.09-0.245-0.139c-0.293-0.163-0.675-0.356-1.138-0.561
					C59.261,64.083,60.215,64.847,60.829,65.504z"/>
				<path fill="#089865" d="M58.414,67.771c-3.506-2.198-14.324-5.578-29.636,0.424c0,0-1.531,1.501-0.923,2.732
					c0.555,1.126,2.417,2.144,10.549,1.707l1.111-0.416c0,0,8.893-2.271,10.921-2.812c2.03-0.541,9.254-0.92,10.175,1.321
					c0,0,0.341,0.566,0.442,0.026c0,0,0.025-0.169,0.045-0.465C60.585,69.551,59.751,68.656,58.414,67.771z"/>
				<path fill="#0F783D" d="M38.336,62.912c0,0-0.236-0.836-0.808-0.946c-0.572-0.109-0.248-0.562,1.089-0.937
					c1.339-0.376,2.985-0.297,3.714-0.593c0.729-0.293,4.082-0.875,5.478-0.726c1.395,0.148,2.482-0.156,3.791,0.649
					c1.308,0.805,2.536,1.002,2.954,0.883c0.419-0.116,2.489,0.836,2.307,1.789c0,0-6.38-2.764-12.321-1.637
					C38.599,62.522,38.336,62.912,38.336,62.912z"/>
				<path fill="#14311A" d="M23.761,61.884c-0.678,0.15-2.165-0.14-1.449,0.679c0.716,0.819,2.486,1.58,2.239,7.24
					c-0.25,5.662,0.617,5.558,3.763,4.5c3.145-1.059,4.913-2.698,4.955-0.128l5.835-1.752c-8.067,1.114-10.478-0.529-11.124-1.605
					c-0.707-1.176,2.465-3.308,2.465-3.308c14.754-8.557,27.06-4.568,29.234-3.1c-12.653-9.023-31.701,3.204-31.701,3.204
					s-0.773,0.529-0.633-1.637c0.139-2.168-0.014-4.447-0.185-5.208c-0.129-0.579-0.957-1.31-1.255-2.427
					c-0.023,0.019-0.052,0.035-0.076,0.053c0,0-1.932-0.28-2.297,0.869l-0.018,0.004c0.047,0.194,0.128,0.412,0.253,0.654
					C24.392,61.119,24.439,61.73,23.761,61.884z"/>
				<path fill="#6BB17F" d="M57.391,67.212c0,0-9.744-5.501-26.946,0.298l-1.887,1.62C28.558,69.13,45.395,62.59,57.391,67.212z"/>
			</g>
			<g>
				<ellipse fill="#CA202C" cx="21.136" cy="66.989" rx="2.776" ry="2.799"/>
				<path fill="#A51E22" d="M24.063,66.338c-0.002-0.015,0-0.026-0.005-0.04c-0.871-0.069-1.904,0.047-2.976,0.397
					c-1.088,0.355-2.005,0.883-2.668,1.464c0.001,0.004,0.005,0.005,0.006,0.007c0,0,1.561-0.763,2.648-1.119
					C22.138,66.696,24.051,66.3,24.063,66.338z"/>
			</g>
		</g>
	</g>
</g>
</svg>
