<?xml version="1.0" encoding="utf-8"?>
<!-- Generator: Adobe Illustrator 16.0.0, SVG Export Plug-In . SVG Version: 6.00 Build 0)  -->
<!DOCTYPE svg PUBLIC "-//W3C//DTD SVG 1.1//EN" "http://www.w3.org/Graphics/SVG/1.1/DTD/svg11.dtd">
<svg version="1.1" id="Layer_1" xmlns="http://www.w3.org/2000/svg" xmlns:xlink="http://www.w3.org/1999/xlink" x="0px" y="0px"
	 width="189.15px" height="189.15px" viewBox="0 0 189.15 189.15" enable-background="new 0 0 189.15 189.15" xml:space="preserve">
<g>
	<defs>
		<path id="SVGID_1_" d="M189.15,94.578c0,52.231-42.342,94.572-94.576,94.572C42.341,189.15,0,146.81,0,94.578
			C0,42.343,42.341,0,94.574,0C146.809,0,189.15,42.343,189.15,94.578z"/>
	</defs>
	<use xlink:href="#SVGID_1_"  overflow="visible" fill="#00A19A"/>
	<clipPath id="SVGID_2_">
		<use xlink:href="#SVGID_1_"  overflow="visible"/>
	</clipPath>
	<g clip-path="url(#SVGID_2_)">
		<g>
			<g opacity="0.46">
				<path opacity="0.53" fill="#58AB46" d="M1.136,122.612c8.729,10.595,15.467,18.369,29.994,19.918
					c-6.152-12.044-12.221-26.135-29.639-20.932"/>
				<path opacity="0.53" fill="#58AB46" d="M59.967,100.462c-10.595,8.729-18.37,15.467-19.921,29.994
					c12.044-6.15,26.136-12.221,20.937-29.639"/>
				<path opacity="0.53" fill="#58AB46" d="M10.291,95.833c3.766,13.199,6.834,23.018,19.533,30.248
					c-0.826-13.5-0.756-28.843-18.803-31.037"/>
				<path opacity="0.53" fill="#58AB46" d="M31.335,133.604c5.251,18.407,9.529,32.097,27.233,42.177
					c-1.15-18.822-1.053-40.213-26.213-43.275"/>
				<path opacity="0.53" fill="#58AB46" d="M44.743,81.12c-6.672,11.997-11.447,21.111-7.576,35.199
					c8.957-10.126,19.858-20.926,8.65-35.238"/>
				<path opacity="0.53" fill="#58AB46" d="M25.117,58.411c-2.9,13.416-4.826,23.521,2.967,35.882
					c5.632-12.291,12.929-25.79-1.951-36.233"/>
				<path opacity="0.53" fill="#58AB46" d="M-13.549,60.187c4.445,12.989,8.02,22.636,21.074,29.195
					C6,75.944,5.277,60.619-12.862,59.361"/>
				<path opacity="0.53" fill="#58AB46" d="M7.099,35.038C6.267,48.741,5.904,59.022,15.48,70.054
					c3.703-13.006,8.863-27.455-7.432-35.518"/>
				<path opacity="0.53" fill="#58AB46" d="M-4.641,106.409c3.836,4.271,6.789,7.4,12.891,7.789
					c-2.787-4.923-5.576-10.705-12.762-8.221"/>
				<path opacity="0.53" fill="#58AB46" d="M-13.727,95.508c5.09,2.653,8.957,4.548,14.803,2.771
					c-4.336-3.632-8.975-8.07-14.836-3.222"/>
			</g>
			<g opacity="0.53">
				<path fill="#EB716F" d="M70.354,159.946c-0.354-6.104,16.605-18.235,21.764-21.848c7.402-5.185,16.369-6.789,23.49,0.659
					c8.904,9.315,6.314,17.394,6.582,28.626c0.264,11.094,0.52,17.143-9.566,23.35c-10.977,6.76-19.533,6.225-31.57,1.566
					c-10.764-4.162-12.312-9.256-12.588-19.906c-0.141-5.605-2.281-10.957-0.064-16.275c2.348-5.629,7.34-5.236,11.32-8.857
					c4.775-4.34,5.408-13.054,14.016-9.449"/>
			</g>
			<g>
				<path opacity="0.53" fill="#F3F3DE" d="M109.188,134.634c16.426,3.277,28.67,6.038,38.713,20.766
					c-16.496,0.328-35.146,1.932-39.598-19.798"/>
				<path opacity="0.53" fill="#F3F3DE" d="M99.189,197.339c3.273-16.424,6.037-28.668,20.76-38.711
					c0.334,16.494,1.936,35.146-19.793,39.6"/>
				<path opacity="0.53" fill="#F3F3DE" d="M65.564,146.597c16.365-3.562,28.691-5.926,43.787,3.557
					c-14.99,6.898-31.447,15.822-44.215-2.316"/>
				<path opacity="0.53" fill="#F3F3DE" d="M69.615,192.124c9.053-14.09,16.096-24.48,33.477-28.447
					c-5.723,15.477-11.047,33.424-32.9,29.627"/>
				<path opacity="0.53" fill="#F3F3DE" d="M33.878,184.116c12.752-10.854,22.507-18.75,40.292-17.5
					c-9.967,13.145-20.273,28.775-40.083,18.795"/>
				<path opacity="0.53" fill="#F3F3DE" d="M13.492,141.521c16.531-2.711,28.96-4.434,43.542,5.822
					C41.708,153.45,24.812,161.511,13,142.736"/>
				<path opacity="0.53" fill="#F3F3DE" d="M77.877,131.229c6.807,1.662,11.873,3.035,15.809,9.371
					c-6.898-0.159-14.723,0.178-16.195-8.984"/>
				<path opacity="0.53" fill="#F3F3DE" d="M52.371,129.255c5.789,3.947,10.055,7.006,11.518,14.322
					c-6.408-2.569-13.853-4.996-12.02-14.094"/>
			</g>
		</g>
		<g>
			<g opacity="0.53">
				<path opacity="0.53" fill="#58AB46" d="M94.527,37.169c4.199,7.954,7.494,13.836,16.611,16.754
					c-2.355-8.543-4.383-18.389-16.248-17.356"/>
				<path opacity="0.53" fill="#58AB46" d="M135.213,30.743c-7.955,4.197-13.836,7.494-16.754,16.609
					c8.543-2.353,18.389-4.381,17.355-16.248"/>
				<path opacity="0.53" fill="#58AB46" d="M103.947,21.196c0.668,8.97,1.338,15.676,8.529,21.997
					c1.258-8.774,3.332-18.608-7.957-22.407"/>
				<path opacity="0.53" fill="#58AB46" d="M112.451,48.222c0.936,12.506,1.867,21.857,11.895,30.668
					c1.752-12.23,4.646-25.943-11.094-31.239"/>
				<path opacity="0.53" fill="#58AB46" d="M128.002,16.316c-5.869,6.816-10.139,12.031-9.52,21.585
					c7.088-5.312,15.512-10.801,10.215-21.469"/>
				<path opacity="0.53" fill="#58AB46" d="M118.412-0.854c-3.633,8.225-6.209,14.456-2.844,23.419
					c5.242-7.144,11.711-14.837,3.545-23.511"/>
				<path opacity="0.53" fill="#58AB46" d="M93.367-4.833c1.133,8.924,2.15,15.586,9.658,21.523
					c0.801-8.824,2.365-18.754-9.107-21.963"/>
				<path opacity="0.53" fill="#58AB46" d="M92.963,26.009c1.898,3.248,3.379,5.646,7.242,6.703
					c-1.135-3.529-2.158-7.607-7.102-6.965"/>
				<path opacity="0.53" fill="#58AB46" d="M88.576,17.81c2.916,2.377,5.145,4.104,9.135,3.736
					c-2.303-2.904-4.693-6.364-9.096-4.031"/>
			</g>
			<g>
				<path opacity="0.53" fill="#F3F3DE" d="M125.152,52.601c-0.848,8.955-1.318,15.68,4.707,23.117
					c2.717-8.436,6.416-17.781-4.072-23.424"/>
				<path opacity="0.53" fill="#F3F3DE" d="M162.701,69.53c-8.953-0.85-15.678-1.318-23.115,4.705
					c8.432,2.717,17.781,6.416,23.422-4.073"/>
				<path opacity="0.53" fill="#F3F3DE" d="M141.787,44.404c-4.357,7.87-7.477,13.845-4.926,23.073
					c5.861-6.647,12.99-13.735,5.629-23.101"/>
				<path opacity="0.53" fill="#F3F3DE" d="M164.58,53.511c-8.643,2.484-15.074,4.506-19.797,12.832
					c8.844-0.556,18.895-0.525,20.314-12.354"/>
				<path opacity="0.53" fill="#F3F3DE" d="M165.975,33.894c-7.551,4.886-13.117,8.687-15.219,18.025
					c8.301-3.098,17.93-5.988,15.854-17.719"/>
				<path opacity="0.53" fill="#F3F3DE" d="M147.209,16.836c-3.945,8.083-6.748,14.214-3.723,23.296
					c5.506-6.941,12.26-14.389,4.424-23.361"/>
				<path opacity="0.53" fill="#F3F3DE" d="M129.965,42.407c-0.197,3.758-0.271,6.577,2.379,9.577
					c0.984-3.573,2.363-7.546-2.119-9.716"/>
				<path opacity="0.53" fill="#F3F3DE" d="M130.789,33.146c1.137,3.588,2.053,6.253,5.59,8.134
					c-0.332-3.692-0.434-7.896-5.395-8.357"/>
			</g>
			<path opacity="0.53" fill="#D0B0C7" d="M105.367,47.98c1.967-22.039-28.215-28.185-35.117-10.396
				c-7.467,19.244,20.143,21.612,32.961,19.596c1.207-6.213,4.076-10.73,3.195-17.516"/>
			<g opacity="0.53">
				<path opacity="0.53" fill="#F4E510" d="M140.646,113.319c8.924-1.111,15.635-1.777,23.244,4.027
					c-8.35,2.962-17.584,6.936-23.531-3.385"/>
				<path opacity="0.53" fill="#F4E510" d="M173.752,143.072c-5.191-7.345-8.941-12.944-7.416-22.395
					c6.553,5.966,14.412,12.233,8.119,22.346"/>
				<path opacity="0.53" fill="#F4E510" d="M141.553,137.426c4.66-7.694,8.295-13.37,17.566-15.747
					c-2.852,8.389-5.453,18.098-17.24,16.371"/>
				<path opacity="0.53" fill="#F4E510" d="M151.73,100.7c11.908-3.93,20.902-6.653,32.885-0.771
					c-10.623,6.309-22.182,14.238-33.105,1.729"/>
				<path opacity="0.53" fill="#F4E510" d="M160.791,152.671c-2.145-8.734-3.588-15.319,1.285-23.557
					c3.918,7.948,8.943,16.652-0.611,23.77"/>
				<path opacity="0.53" fill="#F4E510" d="M144.467,163.638c0.482-8.98,1.008-15.701,8.066-22.168
					c1.439,8.742,3.723,18.533-7.484,22.566"/>
				<path opacity="0.53" fill="#F4E510" d="M120.334,155.843c5.051-7.441,8.973-12.924,18.357-14.816
					c-3.281,8.23-6.385,17.791-18.066,15.459"/>
				<path opacity="0.53" fill="#F4E510" d="M133.939,128.163c3.162-2.037,5.57-3.506,9.492-2.697
					c-2.609,2.631-5.369,5.805-9.484,2.992"/>
				<path opacity="0.53" fill="#F4E510" d="M126.314,133.485c3.678-0.798,6.447-1.328,9.838,0.804
					c-3.369,1.55-7.066,3.553-9.934-0.522"/>
			</g>
			<g>
				<path opacity="0.53" fill="#F3F3DE" d="M52.691,17.229c-8.759,6.021-15.212,10.697-17.384,21.798
					c9.705-3.934,20.985-7.667,18.142-21.456"/>
				<path opacity="0.53" fill="#F3F3DE" d="M65.824,64.104c-6.021-8.76-10.697-15.21-21.8-17.384
					c3.936,9.704,7.669,20.983,21.458,18.143"/>
				<path opacity="0.53" fill="#F3F3DE" d="M72.734,26.093C62.301,28.11,54.52,29.816,48.087,39.126
					c10.47,0.273,22.302,1.357,25.208-12.416"/>
				<path opacity="0.53" fill="#F3F3DE" d="M81.768,53.661c-8.807-5.951-15.516-10.249-26.645-8.215
					c7.211,7.596,14.809,16.73,26.605,9.047"/>
				<path opacity="0.53" fill="#F3F3DE" d="M100.607,40.049c-10.154-3.141-17.822-5.305-27.881-0.126
					c9.105,5.174,19.027,11.711,28.084,0.933"/>
				<path opacity="0.53" fill="#F3F3DE" d="M101.838,10.101C91.52,12.655,83.836,14.764,77.9,24.394
					c10.467-0.273,22.34,0.199,24.529-13.707"/>
				<path opacity="0.53" fill="#F3F3DE" d="M65.582,13.861c-3.555,2.674-6.166,4.741-6.877,9.422
					c3.986-1.819,8.631-3.581,7.201-9.292"/>
				<path opacity="0.53" fill="#F3F3DE" d="M74.602,7.586c-2.389,3.749-4.111,6.604-3.133,11.235
					c3.096-3.104,6.828-6.381,3.482-11.228"/>
			</g>
		</g>
	</g>
</g>
</svg>
