<?xml version="1.0" encoding="utf-8"?>
<!-- Generator: Adobe Illustrator 16.0.0, SVG Export Plug-In . SVG Version: 6.00 Build 0)  -->
<!DOCTYPE svg PUBLIC "-//W3C//DTD SVG 1.1//EN" "http://www.w3.org/Graphics/SVG/1.1/DTD/svg11.dtd">
<svg version="1.1" id="Layer_1" xmlns="http://www.w3.org/2000/svg" xmlns:xlink="http://www.w3.org/1999/xlink" x="0px" y="0px"
	 width="25.313px" height="20.919px" viewBox="-3.224 0.208 25.313 20.919" enable-background="new -3.224 0.208 25.313 20.919"
	 xml:space="preserve">
<g>
	<g>
		<g>
			<line fill="none" stroke="#FF5A5E" stroke-width="0.5" stroke-miterlimit="10" x1="3.468" y1="1.849" x2="3.468" y2="21.19"/>
			<line fill="none" stroke="#FF5A5E" stroke-width="0.5" stroke-miterlimit="10" x1="21.089" y1="4.376" x2="21.089" y2="21.19"/>
			
				<rect x="3.429" y="15.505" fill="none" stroke="#FF5A5E" stroke-width="0.5" stroke-miterlimit="10" width="17.541" height="3.467"/>
			
				<rect x="3.429" y="5.747" fill="none" stroke="#FF5A5E" stroke-width="0.5" stroke-miterlimit="10" width="17.541" height="3.468"/>
			<g>
				<g>
					<circle fill="#FF5A5E" cx="7.925" cy="2.967" r="1.76"/>
					<path fill="#FF5A5E" d="M10.183,1.739v2.855h8.336V3.366c0,0-0.498-1.693-2.424-1.693S10.183,1.739,10.183,1.739z"/>
				</g>
			</g>
			<g>
				<g>
					<circle fill="#FF5A5E" cx="7.925" cy="12.56" r="1.76"/>
					<path fill="#FF5A5E" d="M10.183,11.333v2.855h8.336V12.96c0,0-0.498-1.693-2.424-1.693S10.183,11.333,10.183,11.333z"/>
				</g>
			</g>
		</g>
	</g>
	<g>
		<line fill="none" stroke="#FF5A5E" stroke-width="0.25" stroke-miterlimit="10" x1="3.664" y1="9.214" x2="7.285" y2="5.594"/>
		<line fill="none" stroke="#FF5A5E" stroke-width="0.25" stroke-miterlimit="10" x1="7.085" y1="9.214" x2="10.706" y2="5.594"/>
		<line fill="none" stroke="#FF5A5E" stroke-width="0.25" stroke-miterlimit="10" x1="10.506" y1="9.214" x2="14.127" y2="5.594"/>
		<line fill="none" stroke="#FF5A5E" stroke-width="0.25" stroke-miterlimit="10" x1="13.927" y1="9.214" x2="17.548" y2="5.594"/>
		<line fill="none" stroke="#FF5A5E" stroke-width="0.25" stroke-miterlimit="10" x1="17.349" y1="9.214" x2="20.97" y2="5.594"/>
	</g>
	<g>
		<line fill="none" stroke="#FF5A5E" stroke-width="0.25" stroke-miterlimit="10" x1="3.664" y1="19.048" x2="7.285" y2="15.429"/>
		<line fill="none" stroke="#FF5A5E" stroke-width="0.25" stroke-miterlimit="10" x1="7.085" y1="19.048" x2="10.706" y2="15.429"/>
		
			<line fill="none" stroke="#FF5A5E" stroke-width="0.25" stroke-miterlimit="10" x1="10.506" y1="19.048" x2="14.127" y2="15.429"/>
		
			<line fill="none" stroke="#FF5A5E" stroke-width="0.25" stroke-miterlimit="10" x1="13.927" y1="19.048" x2="17.548" y2="15.429"/>
		<line fill="none" stroke="#FF5A5E" stroke-width="0.25" stroke-miterlimit="10" x1="17.349" y1="19.048" x2="20.97" y2="15.429"/>
	</g>
</g>
</svg>
