<?xml version="1.0" encoding="utf-8"?>
<!-- Generator: Adobe Illustrator 16.0.0, SVG Export Plug-In . SVG Version: 6.00 Build 0)  -->
<!DOCTYPE svg PUBLIC "-//W3C//DTD SVG 1.1//EN" "http://www.w3.org/Graphics/SVG/1.1/DTD/svg11.dtd">
<svg version="1.1" id="Layer_1" xmlns="http://www.w3.org/2000/svg" xmlns:xlink="http://www.w3.org/1999/xlink" x="0px" y="0px"
	 width="22.117px" height="16.351px" viewBox="0 0 22.117 16.351" enable-background="new 0 0 22.117 16.351" xml:space="preserve">
<g>
	<path fill="none" stroke="#FFFFFF" stroke-width="0.5" stroke-miterlimit="10" d="M20.665,0.331H4.116
		c-0.689,0-1.25,0.561-1.25,1.25v7.678L0.951,9.214C0.715,9.45,0.585,9.763,0.585,10.098s0.13,0.648,0.365,0.884l1.915,1.915v1.672
		c0,0.689,0.561,1.25,1.25,1.25h16.549c0.689,0,1.25-0.561,1.25-1.25V1.581C21.915,0.891,21.354,0.331,20.665,0.331z"/>
	
		<line fill="none" stroke="#FFFFFF" stroke-width="0.5" stroke-linecap="round" stroke-miterlimit="10" x1="6.799" y1="4.73" x2="18.264" y2="4.73"/>
	
		<line fill="none" stroke="#FFFFFF" stroke-width="0.5" stroke-linecap="round" stroke-miterlimit="10" x1="6.799" y1="8.479" x2="18.264" y2="8.479"/>
	
		<line fill="none" stroke="#FFFFFF" stroke-width="0.5" stroke-linecap="round" stroke-miterlimit="10" x1="6.799" y1="12.228" x2="18.264" y2="12.228"/>
</g>
</svg>
