<?xml version="1.0" encoding="utf-8"?>
<!-- Generator: Adobe Illustrator 16.0.0, SVG Export Plug-In . SVG Version: 6.00 Build 0)  -->
<!DOCTYPE svg PUBLIC "-//W3C//DTD SVG 1.1//EN" "http://www.w3.org/Graphics/SVG/1.1/DTD/svg11.dtd">
<svg version="1.1" id="Layer_1" xmlns="http://www.w3.org/2000/svg" xmlns:xlink="http://www.w3.org/1999/xlink" x="0px" y="0px"
	 width="177.379px" height="61.221px" viewBox="9.097 13.03 177.379 61.221" enable-background="new 9.097 13.03 177.379 61.221"
	 xml:space="preserve">
<g>
	<path fill="#FFFFFF" d="M132.979,52.851c-0.027-0.113-0.176-1.096-0.365-2.342c-0.676-4.461-1.863-11.935-2.307-13.735
		c-0.623-2.556-2.236-4.463-3.654-4.568c-0.555-0.045-1.074,0.195-1.545,0.624c-0.699,0.639-1.283,1.695-1.693,2.85
		c-0.094-0.349-0.215-0.738-0.369-1.13c-0.424-1.075-1.1-2.148-2.141-2.339c-0.248-0.044-0.502-0.067-0.754-0.067
		c-1.187,0-2.166,0.485-2.805,0.915c-0.396,0.265-0.656,0.511-0.757,0.607c-0.166,0.163-0.491,0.515-0.875,0.923
		c-0.635,0.68-1.098,1.666-1.502,2.019v-1.022l-0.004-2.654c0-0.171-0.141-0.31-0.311-0.312l-5.476-0.047h-0.002
		c-0.116,0-0.225,0.064-0.278,0.167c-0.054,0.104-0.045,0.229,0.024,0.325c0.006,0.011,0.043,0.059,0.097,0.129
		c0.295,0.392,1.221,1.556,2.104,2.012c0.057,1.531,0.422,11.153,0.57,12.62l0.026,0.278c0.152,1.544,0.474,4.758-0.264,5.661
		l-0.867,1.062c-0.078,0.094-0.092,0.223-0.041,0.33c0.054,0.108,0.164,0.178,0.283,0.178h0.002l4.32-0.004h1.043
		c0.129-0.002,0.242-0.078,0.291-0.195c0.047-0.118,0.02-0.252-0.074-0.342c-0.535-0.512-1.307-1.414-1.34-1.848
		c-0.115-1.589-0.611-9.686,0.973-13.49c0.207-0.261,1.463-2.11,2.627-3.096c0.615-0.521,1.205-0.802,1.601-0.479
		c0.838,0.424,1.096,1.967,1.293,2.985c0.672,3.469,1.698,9.987,1.073,13.358c-0.004,0.019-0.006,0.036-0.006,0.055
		c-0.002,0.034-0.024,0.882-0.998,1.628l-1.129,0.859c-0.104,0.082-0.146,0.223-0.104,0.348c0.043,0.125,0.162,0.211,0.295,0.211
		l5.18,0.037l1.06,0.01h0.002h0.012c0.174,0,0.313-0.141,0.313-0.312c0-0.115-0.063-0.219-0.159-0.271l-1.693-1.488
		c-0.02-4.504,0.131-13.071,0.24-14.254c0.11-1.195,0.266-2.105,0.59-2.676c0.217-0.379,0.508-0.609,0.914-0.67
		c0.66-0.018,1.33,1.09,1.764,4.103c0.539,3.687,1.605,12.356,1.596,13.114c-0.323,0.916-1.096,1.521-1.688,1.873
		c-0.119,0.07-0.178,0.211-0.141,0.348c0.034,0.135,0.157,0.229,0.299,0.229l5.192,0.084l1.041,0.016h0.006
		c0.123,0,0.236-0.071,0.285-0.184c0.054-0.111,0.033-0.244-0.051-0.336C133.936,54.098,133.059,53.05,132.979,52.851"/>
	<path fill="#FFFFFF" d="M143.824,32.493l-5.602,0.056c-0.103,0.002-0.195,0.052-0.255,0.137c-0.059,0.085-0.069,0.192-0.03,0.288
		c0.004,0.012,0.03,0.078,0.071,0.18c0.142,0.342,0.466,1.089,0.753,1.478c0.219,0.902,0.11,11.602-0.019,18.724
		c-0.367,0.374-1.162,1.14-1.537,1.312c-0.199,0.092-0.24,0.266-0.215,0.387c0.061,0.27,0.078,0.354,2.273,0.354
		c0.789,0,1.721-0.015,2.414-0.027c0.59-0.012,1.006-0.021,1.012-0.021c0.117-0.004,0.223-0.072,0.274-0.177
		c0.05-0.104,0.037-0.229-0.034-0.322l-1.304-1.733c0-1.391,0.066-16.268,2.402-19.689c0.029-0.041,0.047-0.089,0.055-0.14
		l0.051-0.454c0.013-0.089-0.018-0.176-0.075-0.243C143.998,32.531,143.918,32.484,143.824,32.493"/>
	<path fill="#FFFFFF" d="M138.16,27.261c0.223,1.087,2.209,2.81,2.432,3.003c0.011,0.007,0.021,0.011,0.027,0.017
		c0.041,0.028,0.088,0.051,0.139,0.056c0.013,0.002,0.05,0.007,0.041,0.003c0.459,0,2.619-2.103,2.679-2.764
		c0.053-0.583-1.396-2.133-2.623-3.331c-0.062-0.062-0.152-0.098-0.24-0.088c-0.088,0.007-0.172,0.051-0.225,0.122
		c-0.156,0.206-0.354,0.46-0.566,0.729c-0.713,0.904-1.588,1.981-1.598,1.995C138.164,27.073,138.143,27.169,138.16,27.261"/>
	<path fill="#FFFFFF" d="M185.674,32.615c-0.061-0.066-0.129-0.101-0.237-0.104l-5.861,0.056c-0.102,0.002-0.197,0.052-0.254,0.137
		c-0.059,0.085-0.07,0.193-0.033,0.287c0.004,0.012,0.029,0.079,0.072,0.181c0.143,0.342,0.467,1.089,0.756,1.475
		c0.217,0.907,0.107,11.606-0.021,18.728c-0.365,0.375-1.158,1.14-1.537,1.312c-0.136,0.06-0.244,0.241-0.213,0.385
		c0.059,0.272,0.077,0.354,2.317,0.354c0.816,0,1.865-0.016,2.625-0.027c0.588-0.01,1.006-0.02,1.017-0.02
		c0.114-0.004,0.221-0.069,0.271-0.176c0.05-0.105,0.037-0.229-0.031-0.322l-1.305-1.732c0.029-6.693,0.299-16.952,0.938-18.048
		c0.025-0.043,0.039-0.089,0.044-0.136c0.096-0.129,0.387-0.416,0.588-0.612c0.33-0.324,0.67-0.656,0.836-0.9
		c0.024-0.04,0.043-0.087,0.049-0.135l0.057-0.454C185.76,32.772,185.732,32.683,185.674,32.615"/>
	<path fill="#FFFFFF" d="M179.793,27.347c0.426,0.915,2.215,2.742,2.379,2.908c0.004,0.004,0.009,0.008,0.011,0.01
		c0.062,0.062,0.141,0.093,0.223,0.093c0.068,0,0.141-0.023,0.197-0.071c0.729-0.603,2.43-2.072,2.485-2.69
		c0.054-0.583-1.399-2.134-2.625-3.333c-0.061-0.06-0.146-0.103-0.227-0.09c-0.084,0.003-0.164,0.041-0.219,0.104
		c-0.14,0.15-0.359,0.418-0.609,0.727c-0.662,0.825-1.529,1.959-1.58,2.023C179.76,27.119,179.746,27.242,179.793,27.347"/>
	<path fill="#FFFFFF" d="M174.904,48.082c-0.135-0.004-0.312,0.078-0.365,0.316c-0.045,0.193-0.102,0.455-0.268,0.836
		c-0.236,0.54-0.691,1.324-1.642,2.512c-0.469,0.584-1.024,0.812-1.446,0.896c-0.228,0.047-0.416,0.053-0.529,0.05
		c-0.9-0.03-1.353-0.325-1.701-1.915c-0.381-1.732-0.693-9.321-0.76-14.047c-0.004-0.146-0.004-0.288-0.006-0.429
		c2.227-0.306,3.646-0.711,4.502-1.034c0.766-0.288,1.078-0.509,1.104-0.528c0.07-0.053,0.117-0.135,0.125-0.226l0.129-1.539
		c0.004-0.085-0.022-0.17-0.08-0.234c-0.059-0.063-0.141-0.101-0.227-0.104l-5.377-0.088c-0.053-0.981,0.279-2.955,0.559-4.494
		c0.132-0.742,0.515-1.396,0.521-1.781c0.002-0.164-0.123-0.302-0.285-0.316l-4.232-0.224c-0.166-0.012-0.317,0.111-0.334,0.281
		c-0.002,0.027-0.016,0.162-0.032,0.376c-0.086,1.042-0.297,4.006-0.06,6.092l-1.238-0.021l-1.043-0.016
		c-0.084-0.002-0.161,0.03-0.221,0.088c-0.061,0.057-0.094,0.136-0.094,0.217l-0.006,0.322l-0.039,2.46
		c-0.002,0.164,0.125,0.303,0.291,0.314l2.485,0.174c-0.108,4.881,0.353,13.104,1.218,16.183c0.678,2.42,2.405,3.471,3.848,3.494
		l0,0c0.586,0.012,1.209,0.049,2.021-0.251c0.172-0.063,0.354-0.141,0.547-0.239c2.313-1.188,3.922-3.842,3.856-4.61
		C176.111,50.395,175.52,48.091,174.904,48.082"/>
	<path fill="#FFFFFF" d="M154.377,40.334c-0.145-0.07-0.371-0.157-0.658-0.264c-1.571-0.594-4.42-1.367-4.063-3.804
		c0.141-0.956,0.691-1.608,1.289-2.044c0.815-0.597,1.725-0.787,1.801-0.789l0.098-0.001c1.431,0,2.814,0.676,2.929,1.576
		c0.112,0.902-0.199,1.598-0.629,1.598c-0.269,0-0.466-0.023-0.472-0.023c-0.049-0.007-0.096,0.002-0.139,0.019
		c-0.096,0.039-0.168,0.131-0.184,0.249c-0.009,0.042-0.009,0.093-0.005,0.15c0.023,0.463,0.312,1.341,0.445,1.729
		c0.058,0.161,0.221,0.244,0.371,0.188l0.23-0.087c0.278-0.104,0.539-0.202,0.782-0.301c0.937-0.38,1.617-0.776,1.955-1.59
		c0.381-0.916,0.363-1.863,0.119-2.708c-0.244-0.844-1.412-2.43-4.735-2.43c-0.568,0-1.179,0.047-1.812,0.14
		c-1.053,0.153-1.932,0.484-2.623,0.978c-0.709,0.506-1.215,1.183-1.502,2.019c-1.633,4.788,1.535,6.531,4.082,7.932
		c0.619,0.342,1.205,0.664,1.684,1.007c1.539,1.107,2.445,2.422,2.763,4.016c0.317,1.588,0.106,3.643-0.908,4.498
		c-0.32,0.268-1.32,0.98-1.955,1.177c-0.047,0.017-0.094,0.027-0.137,0.037c-0.613,0.12-2.164,0.114-3.078-0.719
		c-0.604-0.552-1.117-1.456-1.144-2.144c-0.036-1.236,0.289-1.945,0.701-2.455c0.035-0.043,0.072-0.086,0.107-0.127
		c0.414-0.463,0.621-0.603,1.483-0.43c1.457,0.292,1.429,1.786,1.425,1.895c0,0,0,0.004,0,0.006
		c-0.009,0.144,0.077,0.275,0.202,0.318c0.125,0.045,0.267-0.012,0.337-0.133l0.979-1.24c0.033-0.055,0.053-0.123,0.047-0.189
		c-0.006-0.082-0.162-1.998-2.293-3.077c-0.453-0.228-0.94-0.343-1.457-0.343c-1.244,0-2.014,0.339-2.592,0.804
		c-0.18,0.146-0.342,0.3-0.494,0.462c-1.272,1.53-1.77,4.055-0.867,6.327c0.857,2.167,3.457,3.483,6.06,3.483
		c0.645,0,1.274-0.082,1.871-0.256c0.319-0.094,0.618-0.201,0.901-0.317c4.359-1.81,4.525-6.363,4.144-9.205
		C159.043,43.349,155.465,40.857,154.377,40.334"/>
	<path fill="#FFFFFF" d="M84.858,38.297c-0.408,0.067-0.92,0.306-1.37,0.662c-0.559,0.442-1.026,1.069-1.093,1.793
		c-0.05,3.775,3.315,4.16,5.889,3.115c0.813-0.33,1.547-0.802,2.066-1.354c1.559-1.634,1.886-2.94,1.935-5.667
		c-0.122-2.059-1.981-4.566-5.445-4.566c-0.308,0-0.623,0.022-0.937,0.064c-1.006,0.14-2.246,0.487-3.482,1.263
		c-0.896,0.561-1.791,1.343-2.598,2.432c-6.499,8.774,1.185,17.063,2.957,18.497c1.094,0.883,2.217,1.355,4.629,1.289
		c0.296-0.009,0.588-0.021,0.865-0.066c0.126-0.021,0.244-0.049,0.362-0.082c3.007-0.828,2.786-5.321,2.776-5.521
		c-0.009-0.158-0.134-0.283-0.291-0.292l-2.831-0.097c-0.103-0.004-0.195,0.041-0.256,0.121c-0.062,0.084-0.08,0.191-0.048,0.289
		c0.001,0.004,0.027,0.097,0.069,0.242c0.058,0.207,0.146,0.524,0.243,0.854c-0.201,1.373-0.991,1.545-1.526,1.603
		c0,0-0.003,0-0.004,0c-1.941,0.205-3.4-2.261-4.14-3.617c-0.415-0.764-4.211-7.385-0.723-11.542
		c0.603-0.718,1.181-1.241,1.733-1.62c1.541-1.057,2.881-0.98,3.972-0.775c0.78,0.146,2.184,1.765,1.162,3.819
		c-0.541,1.274-1.724,2.183-2.747,2.53c-1.231,0.417-2.237,0.023-1.632-1.531C87.11,38.139,84.858,38.297,84.858,38.297"/>
	<path fill="#FFFFFF" d="M99.832,26.197l-4.66-0.204c-0.124,0.003-0.245,0.069-0.299,0.188c-0.052,0.119-0.025,0.257,0.062,0.351
		c0.029,0.032,0.067,0.076,0.111,0.128c0.221,0.269,0.562,0.776,0.562,1.21c0,0.747-0.562,23.113-0.564,23.348
		c0,0.693-0.151,2.658-0.849,3.41c-0.086,0.092-0.108,0.225-0.062,0.338c0.048,0.115,0.153,0.191,0.276,0.199l3.375,0.123
		l1.062,0.043h0.012c0.121,0,0.231-0.074,0.283-0.188c0.053-0.116,0.028-0.254-0.06-0.349l-1.203-1.291
		c0.738-10.425,0.738-10.43,0.738-11.577c0-1.07,0.445-11.621,0.832-13.134c0.393-1.511,0.654-2.148,0.656-2.154
		c0.039-0.095,0.03-0.205-0.025-0.294C100.027,26.256,99.934,26.203,99.832,26.197"/>
	<path opacity="0.9" fill="#FFFFFF" enable-background="new    " d="M64.364,47.671c2.397-1.629,2.502-2.819,4.709-3.907
		c-2.259-1.605-2.364-2.696-4.704-3.909c1.771-2.313,1.51-3.607,3.271-5.171c-2.589-0.665-3.106-1.705-5.685-2.271
		c1.021-2.646,0.399-3.633,1.515-5.929c-2.773,0.067-3.501-0.812-6.105-0.398c0.117-2.854-0.815-3.579-0.396-6.104
		c-2.495,0.867-3.688,0.296-5.929,1.5c-0.559-2.654-1.907-3.275-2.264-5.683c-2.132,1.679-3.638,1.315-5.175,3.266
		c-1.104-2.364-2.715-2.364-3.909-4.712c-1.191,2.297-2.95,2.399-3.909,4.707c-1.893-1.945-3.396-1.48-5.172-3.272
		C30,18.412,28.6,18.776,28.343,21.47c-2.283-1.35-3.992-0.31-5.929-1.515c0.379,2.397-1.072,3.691-0.399,6.105
		c-2.488-0.546-3.991,1.007-6.109,0.398c1.444,1.855,0.251,3.569,1.508,5.928c-2.498,0.283-3.382,2.202-5.684,2.262
		c1.681,1.807,1.264,3.776,3.263,5.176c-2.359,0.935-2.411,2.904-4.708,3.906c2.192,1.434,2.349,3.146,4.702,3.913
		c-1.783,1.825-1.421,4.004-3.271,5.17c2.42,0.49,2.99,1.731,5.683,2.271c-0.931,2.574-0.358,3.611-1.513,5.929
		c2.658-0.136,3.385,0.795,6.104,0.401c-0.129,2.83,0.857,3.606,0.396,6.106c2.38-0.996,3.675-0.317,5.932-1.507
		c0.751,2.796,1.996,3.311,2.261,5.683c2.068-1.644,3.211-1.437,5.174-3.264c1.821,2.397,2.702,2.397,3.907,4.71
		c1.543-2.262,2.422-2.212,3.916-4.706c2.19,1.771,3.591,1.509,5.169,3.272c0.651-2.592,1.583-2.852,2.271-5.684
		c2.787,0.965,3.67,0.448,5.929,1.516c-0.342-2.465,0.385-3.088,0.398-6.106c2.941,0.165,3.562-0.612,6.104-0.392
		c-0.936-2.559-0.313-3.485-1.501-5.937c2.798-0.976,3.261-2.013,5.683-2.258C65.878,50.762,66.294,49.621,64.364,47.671z
		 M64.661,43.658c-0.809,0.262-2.352,0.727-3.191,0.771c-0.119,0.006-0.227,0.005-0.312-0.009c-0.485-0.072-1.164-0.707-1.523-1.093
		c0.408-0.331,1.166-0.871,1.667-0.879C61.954,42.447,63.649,43.183,64.661,43.658z M61.688,35.888c0.646,0,1.305,0.029,1.753,0.06
		c-0.869,0.719-2.348,1.862-2.973,2.008c-0.061,0.012-0.134,0.02-0.213,0.02c-0.528,0-1.254-0.306-1.604-0.472
		c0.254-0.458,0.755-1.24,1.204-1.433C60.057,35.985,60.536,35.888,61.688,35.888z M56.457,30.082
		c0.492-0.409,2.298-0.894,3.396-1.152c-0.077,0.116-0.162,0.243-0.253,0.375c-0.636,0.925-1.527,2.122-2.014,2.404
		c-0.189,0.111-0.513,0.166-0.934,0.166h-0.001h-0.001c-0.356,0-0.716-0.043-0.938-0.076C55.825,31.289,56.081,30.392,56.457,30.082
		z M51.385,25.47c0.264-0.379,1.163-0.97,2.017-1.477c0.338-0.201,0.669-0.389,0.95-0.544L54.35,23.45h0.001
		c-0.352,1.07-0.994,2.826-1.447,3.285c-0.341,0.349-1.256,0.522-1.772,0.587C51.099,26.799,51.105,25.869,51.385,25.47z
		 M45.542,22.991c0.148-0.626,1.303-2.101,2.023-2.967c0.062,1.126,0.108,2.995-0.142,3.587c-0.194,0.449-0.979,0.947-1.441,1.197
		C45.761,24.334,45.428,23.467,45.542,22.991z M38.731,22.208c-0.031-0.349,0.146-1.034,0.377-1.753
		c0.19-0.598,0.423-1.218,0.609-1.693c0.415,1.05,1.045,2.809,0.99,3.446l0,0c0,0.001,0,0.001,0,0.001
		c-0.029,0.366-0.37,0.862-0.688,1.249c-0.106,0.128-0.212,0.245-0.302,0.341c-0.231-0.245-0.558-0.633-0.771-1.009
		C38.83,22.585,38.745,22.382,38.731,22.208C38.731,22.209,38.731,22.209,38.731,22.208L38.731,22.208z M31.875,20.024
		c0.271,0.324,0.602,0.735,0.918,1.153c0.526,0.699,1.011,1.423,1.104,1.812c0.014,0.06,0.021,0.125,0.022,0.194
		c0.007,0.349-0.133,0.816-0.285,1.207c-0.062,0.155-0.121,0.299-0.179,0.417c-0.461-0.25-1.246-0.748-1.438-1.197
		C31.765,23.02,31.81,21.15,31.875,20.024z M27.724,25.825c0.261,0.416,0.216,1.348,0.153,1.866c-0.516-0.089-1.42-0.314-1.74-0.684
		c-0.427-0.48-0.97-2.271-1.266-3.359C25.833,24.244,27.386,25.282,27.724,25.825z M19.904,29.104
		c1.083,0.294,2.509,0.741,2.935,1.108c0.275,0.24,0.479,0.805,0.603,1.29c0.043,0.162,0.076,0.315,0.102,0.444
		c-0.202,0.026-0.51,0.055-0.836,0.055c-0.471,0-0.829-0.066-1.031-0.19c-0.413-0.248-1.107-1.177-1.687-2.029
		c-0.193-0.283-0.373-0.559-0.524-0.796C19.602,29.021,19.749,29.061,19.904,29.104z M17.738,36.006c1.077,0,1.53,0.096,1.723,0.176
		c0.169,0.07,0.347,0.224,0.517,0.41c0.281,0.314,0.538,0.727,0.696,1.013h-0.001l0.001,0.001c-0.347,0.165-1.076,0.479-1.607,0.479
		c-0.076,0-0.147-0.004-0.206-0.017c-0.625-0.145-2.109-1.279-2.98-1.994C16.349,36.044,17.056,36.006,17.738,36.006z
		 M14.696,43.867c0.788-0.32,2.304-0.911,3.129-1.014c0.118-0.014,0.222-0.019,0.307-0.011c0.487,0.033,1.217,0.615,1.6,0.974
		c-0.046,0.044-0.101,0.094-0.156,0.145c-0.396,0.356-0.997,0.82-1.42,0.856C17.458,44.884,15.605,44.214,14.696,43.867z
		 M17.669,51.449c-0.645,0-1.303-0.031-1.755-0.058c0.872-0.72,2.352-1.861,2.976-2.009c0.062-0.016,0.132-0.021,0.213-0.021
		c0.526,0,1.256,0.306,1.604,0.472c-0.254,0.459-0.754,1.24-1.206,1.434C19.302,51.348,18.822,51.449,17.669,51.449z M22.907,57.216
		c-0.484,0.424-2.275,0.959-3.364,1.242c0.598-0.951,1.645-2.504,2.192-2.838c0.206-0.125,0.572-0.192,1.059-0.192
		c0.314,0,0.613,0.026,0.81,0.051C23.506,55.994,23.274,56.896,22.907,57.216z M27.955,61.757c-0.326,0.555-1.858,1.625-2.804,2.242
		c0.27-1.097,0.773-2.896,1.19-3.389c0.313-0.374,1.214-0.615,1.727-0.72C28.138,60.412,28.205,61.339,27.955,61.757z
		 M33.895,64.509c-0.148,0.625-1.298,2.099-2.021,2.963c-0.063-1.126-0.108-2.995,0.144-3.586c0.19-0.446,0.977-0.949,1.438-1.195
		C33.678,63.162,34.01,64.033,33.895,64.509z M39.718,68.733c-0.206-0.524-0.469-1.226-0.67-1.876
		c-0.201-0.648-0.346-1.249-0.316-1.568c0.04-0.49,0.628-1.209,0.986-1.592c0.359,0.383,0.947,1.102,0.99,1.592
		C40.762,65.929,40.133,67.684,39.718,68.733z M47.503,67.49c-0.698-0.883-1.809-2.385-1.941-3.014
		c-0.103-0.48,0.256-1.34,0.487-1.809c0.457,0.261,1.229,0.783,1.408,1.233C47.693,64.501,47.598,66.369,47.503,67.49z
		 M44.461,50.332l3.66,9.987l-5.93-8.832l0.396,10.632l-2.911-10.232l-2.909,10.232l0.396-10.632l-5.932,8.832l3.662-9.987
		L26.526,56.9l6.567-8.367l-9.989,3.658l8.835-5.929l-10.631,0.396h0.003h-0.003l10.232-2.91l-10.232-2.91l10.63,0.396l-8.834-5.93
		l9.99,3.661l-6.568-8.369l8.369,6.568l-3.662-9.988l5.932,8.833l-0.396-10.632l2.91,10.232l2.91-10.232l-0.396,10.632l5.93-8.833
		l-3.66,9.988l8.369-6.568l-6.569,8.369l9.99-3.661l-8.833,5.93l10.632-0.396l-10.234,2.91l10.234,2.91h-0.003h0.003l-10.633-0.396
		l8.834,5.929l-9.99-3.658l6.569,8.367L44.461,50.332z M51.737,61.564c-0.226-0.434-0.111-1.361-0.011-1.877
		c0.509,0.133,1.389,0.426,1.688,0.818c0.385,0.514,0.792,2.336,1.002,3.445C53.505,63.285,52.031,62.134,51.737,61.564z
		 M56.523,57.134c-0.371-0.318-0.605-1.221-0.703-1.734c0.2-0.025,0.51-0.055,0.833-0.055c0.473,0,0.829,0.062,1.035,0.186
		c0.548,0.332,1.603,1.875,2.209,2.828C58.803,58.078,57.009,57.555,56.523,57.134z M63.463,51.328
		c-0.34,0.012-0.802,0.029-1.284,0.029c-1.557,0-2.106-0.145-2.299-0.229c-0.057-0.024-0.111-0.059-0.169-0.102
		c-0.395-0.287-0.792-0.947-1.004-1.357c0.345-0.153,1.056-0.438,1.586-0.438c0.09,0,0.171,0.009,0.24,0.024
		c0.156,0.039,0.362,0.145,0.599,0.289C61.843,49.977,62.821,50.774,63.463,51.328L63.463,51.328L63.463,51.328z"/>
	<polygon fill="#FFFFFF" points="42.587,45.859 49.29,48.646 43.097,44.86 50.333,45.434 43.274,43.748 50.333,42.06 43.097,42.634 
		49.29,38.85 42.587,41.636 47.305,36.121 41.792,40.838 44.575,34.136 40.792,40.331 41.365,33.093 39.678,40.154 37.992,33.093 
		38.566,40.331 34.782,34.136 37.565,40.838 32.051,36.121 36.77,41.636 30.067,38.85 36.262,42.634 29.024,42.06 36.086,43.748 
		29.024,45.434 36.262,44.86 30.067,48.646 36.77,45.859 32.051,51.376 37.565,46.658 34.782,53.359 38.566,47.166 37.992,54.403 
		39.678,47.341 41.365,54.403 40.792,47.166 44.575,53.359 41.792,46.658 47.305,51.376 	"/>
	<path fill="#FFFFFF" d="M82.492,68.11h-1.898v-3.005c0-0.244-0.01-0.488-0.028-0.73c-0.021-0.244-0.058-0.42-0.109-0.537
		c-0.064-0.137-0.158-0.234-0.281-0.293c-0.123-0.06-0.285-0.09-0.49-0.09c-0.155,0-0.312,0.029-0.471,0.086
		c-0.155,0.059-0.327,0.15-0.506,0.276v4.293h-1.89v-8.394h1.89v3.005c0.308-0.263,0.609-0.47,0.901-0.616
		c0.294-0.146,0.619-0.221,0.976-0.221c0.618,0,1.091,0.195,1.418,0.586s0.49,0.955,0.49,1.695L82.492,68.11L82.492,68.11z"/>
	<path fill="#FFFFFF" d="M89.82,65.083c0,0.996-0.271,1.781-0.815,2.355c-0.547,0.573-1.316,0.859-2.312,0.859
		c-0.989,0-1.759-0.286-2.307-0.859c-0.549-0.574-0.822-1.359-0.822-2.355c0-1.006,0.273-1.795,0.822-2.365
		c0.548-0.569,1.316-0.854,2.307-0.854c0.991,0,1.761,0.286,2.308,0.86C89.547,63.296,89.82,64.083,89.82,65.083 M87.883,65.096
		c0-0.36-0.028-0.66-0.089-0.899c-0.059-0.238-0.141-0.431-0.244-0.574c-0.111-0.149-0.237-0.256-0.378-0.315
		c-0.142-0.06-0.301-0.089-0.479-0.089c-0.171,0-0.323,0.025-0.46,0.08c-0.137,0.052-0.262,0.15-0.378,0.299
		c-0.106,0.139-0.194,0.331-0.259,0.576c-0.064,0.244-0.097,0.552-0.097,0.924c0,0.369,0.029,0.67,0.092,0.896
		c0.062,0.229,0.142,0.41,0.236,0.547c0.101,0.142,0.228,0.244,0.378,0.309c0.151,0.064,0.316,0.097,0.501,0.097
		c0.151,0,0.307-0.03,0.461-0.097c0.158-0.064,0.283-0.161,0.375-0.292c0.112-0.153,0.196-0.341,0.254-0.558
		C87.856,65.781,87.883,65.479,87.883,65.096"/>
	<path fill="#FFFFFF" d="M92.859,68.277c-0.446,0-0.868-0.049-1.267-0.146c-0.397-0.098-0.725-0.209-0.982-0.34v-1.596h0.156
		c0.089,0.067,0.192,0.145,0.308,0.227s0.273,0.168,0.479,0.259c0.178,0.082,0.376,0.153,0.596,0.214
		c0.222,0.059,0.463,0.088,0.723,0.088c0.266,0,0.5-0.042,0.703-0.124c0.202-0.082,0.305-0.214,0.305-0.394
		c0-0.141-0.047-0.246-0.141-0.317c-0.093-0.073-0.274-0.142-0.545-0.205c-0.146-0.036-0.326-0.075-0.545-0.116
		s-0.412-0.09-0.584-0.143c-0.474-0.148-0.83-0.366-1.068-0.656c-0.24-0.29-0.358-0.67-0.358-1.141c0-0.27,0.062-0.524,0.186-0.764
		c0.125-0.24,0.307-0.453,0.547-0.64c0.241-0.185,0.54-0.33,0.895-0.438c0.354-0.107,0.755-0.16,1.2-0.16
		c0.425,0,0.813,0.041,1.17,0.125c0.355,0.087,0.656,0.188,0.901,0.306v1.531h-0.151c-0.063-0.05-0.167-0.117-0.308-0.201
		c-0.141-0.085-0.278-0.157-0.41-0.218c-0.158-0.072-0.336-0.133-0.53-0.18c-0.195-0.047-0.396-0.07-0.603-0.07
		c-0.272,0-0.505,0.049-0.692,0.141c-0.188,0.094-0.283,0.219-0.283,0.373c0,0.137,0.047,0.244,0.141,0.323
		c0.093,0.079,0.296,0.157,0.609,0.231c0.162,0.039,0.348,0.078,0.559,0.115c0.21,0.038,0.412,0.09,0.606,0.153
		c0.436,0.141,0.766,0.348,0.989,0.618c0.226,0.271,0.336,0.633,0.336,1.082c0,0.283-0.064,0.555-0.197,0.812
		c-0.135,0.259-0.323,0.476-0.566,0.649c-0.259,0.191-0.562,0.339-0.914,0.443C93.767,68.225,93.348,68.277,92.859,68.277"/>
	<path fill="#FFFFFF" d="M99.227,68.229c-0.769,0-1.328-0.158-1.68-0.476c-0.35-0.315-0.524-0.834-0.524-1.553v-2.832H96.3v-1.316
		h0.724V60.32h1.886v1.73h1.818v1.316h-1.818v2.146c0,0.212,0.004,0.398,0.006,0.557c0.004,0.158,0.033,0.301,0.086,0.428
		c0.051,0.125,0.142,0.225,0.269,0.299c0.129,0.074,0.313,0.109,0.559,0.109c0.101,0,0.232-0.021,0.396-0.064
		s0.276-0.082,0.342-0.117h0.162v1.331c-0.203,0.055-0.422,0.098-0.652,0.127C99.844,68.212,99.562,68.229,99.227,68.229"/>
	<path fill="#FFFFFF" d="M104.791,68.272c-1.143,0-2.02-0.272-2.629-0.819c-0.608-0.548-0.914-1.326-0.914-2.336
		c0-0.988,0.283-1.779,0.853-2.369c0.568-0.59,1.362-0.885,2.385-0.885c0.928,0,1.625,0.25,2.094,0.75
		c0.467,0.5,0.699,1.215,0.699,2.146v0.68h-4.137c0.018,0.279,0.078,0.516,0.18,0.704c0.1,0.188,0.232,0.34,0.398,0.45
		c0.159,0.111,0.35,0.191,0.565,0.24c0.215,0.049,0.451,0.072,0.705,0.072c0.221,0,0.436-0.023,0.648-0.072s0.405-0.112,0.582-0.191
		c0.153-0.066,0.297-0.143,0.428-0.221c0.133-0.08,0.238-0.149,0.322-0.211h0.2v1.56c-0.155,0.062-0.297,0.117-0.426,0.169
		c-0.127,0.053-0.303,0.105-0.524,0.159c-0.205,0.056-0.416,0.097-0.636,0.128C105.369,68.257,105.104,68.272,104.791,68.272
		 M105.418,64.302c-0.012-0.399-0.104-0.703-0.278-0.911c-0.175-0.209-0.439-0.313-0.802-0.313c-0.366,0-0.651,0.11-0.858,0.33
		c-0.207,0.219-0.32,0.518-0.345,0.896L105.418,64.302L105.418,64.302z"/>
	<rect x="108.463" y="59.716" fill="#FFFFFF" width="1.888" height="8.395"/>
	<path fill="#FFFFFF" d="M113.832,68.277c-0.447,0-0.869-0.049-1.266-0.146c-0.398-0.098-0.728-0.209-0.986-0.34v-1.596h0.156
		c0.092,0.067,0.193,0.145,0.309,0.227c0.116,0.082,0.275,0.168,0.48,0.259c0.176,0.082,0.375,0.153,0.596,0.214
		c0.224,0.059,0.461,0.088,0.721,0.088c0.267,0,0.5-0.042,0.703-0.124c0.205-0.082,0.308-0.214,0.308-0.394
		c0-0.141-0.049-0.246-0.142-0.317c-0.094-0.073-0.276-0.142-0.545-0.205c-0.145-0.036-0.326-0.075-0.545-0.116
		c-0.221-0.041-0.414-0.09-0.584-0.143c-0.475-0.148-0.832-0.366-1.07-0.656c-0.237-0.29-0.358-0.67-0.358-1.141
		c0-0.27,0.062-0.524,0.188-0.764c0.123-0.24,0.306-0.453,0.547-0.64c0.242-0.185,0.539-0.33,0.894-0.438
		c0.354-0.107,0.756-0.16,1.199-0.16c0.426,0,0.815,0.041,1.172,0.125c0.354,0.087,0.656,0.188,0.901,0.306v1.531h-0.151
		c-0.064-0.05-0.166-0.117-0.31-0.201c-0.139-0.085-0.274-0.157-0.407-0.218c-0.158-0.072-0.336-0.133-0.531-0.18
		c-0.197-0.047-0.396-0.07-0.603-0.07c-0.272,0-0.504,0.049-0.692,0.141c-0.189,0.094-0.283,0.219-0.283,0.373
		c0,0.137,0.045,0.244,0.139,0.323c0.097,0.079,0.3,0.157,0.611,0.231c0.16,0.039,0.348,0.078,0.559,0.115
		c0.211,0.038,0.412,0.09,0.605,0.153c0.436,0.141,0.766,0.348,0.99,0.618s0.338,0.633,0.338,1.082c0,0.283-0.066,0.555-0.199,0.812
		c-0.135,0.259-0.324,0.476-0.566,0.649c-0.26,0.191-0.563,0.339-0.916,0.443C114.74,68.225,114.32,68.277,113.832,68.277"/>
	<path fill="#FFFFFF" d="M124.674,68.272c-1.146,0-2.021-0.272-2.631-0.819c-0.609-0.548-0.916-1.326-0.916-2.336
		c0-0.988,0.285-1.779,0.854-2.369c0.568-0.59,1.365-0.885,2.385-0.885c0.928,0,1.625,0.25,2.094,0.75
		c0.468,0.5,0.701,1.215,0.701,2.146v0.68h-4.139c0.018,0.279,0.076,0.516,0.178,0.704c0.103,0.188,0.234,0.34,0.4,0.45
		c0.159,0.111,0.35,0.191,0.563,0.24c0.217,0.049,0.453,0.072,0.707,0.072c0.221,0,0.437-0.023,0.648-0.072
		c0.213-0.049,0.405-0.112,0.582-0.191c0.153-0.066,0.297-0.143,0.43-0.221c0.131-0.08,0.238-0.149,0.322-0.211h0.199v1.56
		c-0.156,0.062-0.298,0.117-0.425,0.169c-0.129,0.053-0.303,0.105-0.526,0.159c-0.203,0.056-0.416,0.097-0.634,0.128
		S124.984,68.272,124.674,68.272 M125.299,64.302c-0.012-0.399-0.104-0.703-0.276-0.911c-0.176-0.209-0.441-0.313-0.801-0.313
		c-0.367,0-0.654,0.11-0.859,0.33c-0.209,0.219-0.324,0.518-0.346,0.896L125.299,64.302L125.299,64.302z"/>
	<path fill="#FFFFFF" d="M137.969,64.998c0,0.967-0.245,1.748-0.735,2.34c-0.49,0.595-1.096,0.892-1.814,0.892
		c-0.303,0-0.565-0.034-0.787-0.103c-0.223-0.067-0.461-0.174-0.713-0.317v2.522h-1.889v-8.279h1.889v0.631
		c0.275-0.237,0.56-0.43,0.849-0.577c0.287-0.146,0.619-0.22,0.998-0.22c0.7,0,1.243,0.277,1.629,0.836
		C137.779,63.28,137.969,64.037,137.969,64.998 M136.037,65.035c0-0.59-0.09-1.018-0.271-1.283
		c-0.183-0.267-0.466-0.399-0.851-0.399c-0.168,0-0.338,0.028-0.504,0.081c-0.168,0.055-0.332,0.136-0.494,0.242v3.05
		c0.101,0.043,0.211,0.073,0.332,0.092c0.119,0.019,0.263,0.026,0.431,0.026c0.459,0,0.801-0.15,1.022-0.45
		C135.926,66.091,136.037,65.64,136.037,65.035"/>
	<path fill="#FFFFFF" d="M145.008,65.083c0,0.996-0.274,1.781-0.819,2.355c-0.543,0.573-1.314,0.859-2.312,0.859
		c-0.987,0-1.758-0.286-2.305-0.859c-0.549-0.574-0.824-1.359-0.824-2.355c0-1.006,0.275-1.795,0.824-2.365
		c0.547-0.569,1.316-0.854,2.305-0.854c0.994,0,1.763,0.286,2.31,0.86C144.732,63.296,145.008,64.083,145.008,65.083 M143.07,65.096
		c0-0.36-0.031-0.66-0.09-0.899c-0.06-0.238-0.142-0.431-0.246-0.574c-0.109-0.149-0.236-0.256-0.377-0.315
		c-0.14-0.06-0.301-0.089-0.48-0.089c-0.168,0-0.321,0.025-0.459,0.08c-0.135,0.052-0.262,0.15-0.377,0.299
		c-0.106,0.139-0.192,0.331-0.26,0.576c-0.064,0.244-0.098,0.552-0.098,0.924c0,0.369,0.03,0.67,0.092,0.896
		c0.062,0.229,0.141,0.41,0.238,0.547c0.102,0.142,0.227,0.244,0.379,0.309c0.149,0.064,0.317,0.097,0.502,0.097
		c0.149,0,0.303-0.03,0.461-0.097c0.156-0.064,0.281-0.161,0.375-0.292c0.11-0.153,0.194-0.341,0.254-0.558
		C143.039,65.781,143.07,65.479,143.07,65.096"/>
	<path fill="#FFFFFF" d="M151.746,68.11h-1.889v-0.669c-0.328,0.271-0.627,0.48-0.9,0.623c-0.272,0.143-0.6,0.213-0.977,0.213
		c-0.603,0-1.068-0.189-1.406-0.568c-0.336-0.379-0.504-0.951-0.504-1.713v-3.943h1.9v3.005c0,0.313,0.008,0.567,0.022,0.767
		s0.055,0.365,0.115,0.502c0.059,0.125,0.146,0.223,0.268,0.286s0.289,0.097,0.504,0.097c0.136,0,0.291-0.031,0.474-0.097
		c0.182-0.065,0.35-0.153,0.504-0.266v-4.294h1.889V68.11z"/>
	<path fill="#FFFFFF" d="M155.217,68.277c-0.444,0-0.866-0.049-1.264-0.146c-0.396-0.098-0.727-0.209-0.984-0.34v-1.596h0.156
		c0.088,0.067,0.193,0.145,0.308,0.227s0.274,0.168,0.479,0.259c0.176,0.082,0.375,0.153,0.598,0.214
		c0.222,0.059,0.462,0.088,0.72,0.088c0.268,0,0.5-0.042,0.703-0.124c0.202-0.082,0.305-0.214,0.305-0.394
		c0-0.141-0.047-0.246-0.139-0.317c-0.097-0.073-0.275-0.142-0.545-0.205c-0.146-0.036-0.326-0.075-0.546-0.116
		c-0.221-0.041-0.414-0.09-0.584-0.143c-0.475-0.148-0.832-0.366-1.069-0.656c-0.238-0.29-0.357-0.67-0.357-1.141
		c0-0.27,0.062-0.524,0.185-0.764c0.125-0.24,0.309-0.453,0.551-0.64c0.24-0.185,0.537-0.33,0.893-0.438
		c0.354-0.107,0.754-0.16,1.199-0.16c0.424,0,0.812,0.041,1.17,0.125c0.355,0.087,0.656,0.188,0.9,0.306v1.531h-0.15
		c-0.065-0.05-0.168-0.117-0.307-0.201c-0.144-0.085-0.277-0.157-0.41-0.218c-0.158-0.072-0.336-0.133-0.533-0.18
		c-0.195-0.047-0.395-0.07-0.602-0.07c-0.273,0-0.502,0.049-0.691,0.141c-0.188,0.094-0.285,0.219-0.285,0.373
		c0,0.137,0.049,0.244,0.144,0.323c0.092,0.079,0.295,0.157,0.608,0.231c0.16,0.039,0.349,0.078,0.558,0.115
		c0.213,0.038,0.412,0.09,0.606,0.153c0.437,0.141,0.765,0.348,0.99,0.618c0.227,0.271,0.338,0.633,0.338,1.082
		c0,0.283-0.068,0.555-0.201,0.812c-0.133,0.259-0.319,0.476-0.563,0.649c-0.261,0.191-0.566,0.339-0.916,0.443
		C156.125,68.225,155.707,68.277,155.217,68.277"/>
	<path fill="#FFFFFF" d="M162.643,67.468c-0.129,0.107-0.246,0.205-0.349,0.291c-0.104,0.086-0.239,0.173-0.414,0.26
		c-0.168,0.083-0.332,0.146-0.491,0.188c-0.16,0.045-0.386,0.065-0.673,0.065c-0.534,0-0.979-0.181-1.334-0.54
		s-0.532-0.812-0.532-1.359c0-0.447,0.092-0.812,0.27-1.088c0.18-0.277,0.439-0.498,0.779-0.66c0.34-0.164,0.748-0.278,1.225-0.344
		c0.474-0.064,0.984-0.115,1.529-0.152v-0.03c0-0.336-0.121-0.565-0.369-0.692c-0.246-0.129-0.615-0.191-1.109-0.191
		c-0.223,0-0.481,0.039-0.78,0.121c-0.299,0.08-0.59,0.184-0.875,0.311h-0.16v-1.463c0.188-0.055,0.488-0.119,0.906-0.191
		c0.416-0.074,0.838-0.109,1.262-0.109c1.043,0,1.803,0.174,2.281,0.521c0.475,0.347,0.713,0.877,0.713,1.589v4.121h-1.877
		L162.643,67.468L162.643,67.468z M162.643,66.529v-1.263c-0.32,0.034-0.58,0.062-0.777,0.084s-0.393,0.069-0.582,0.138
		c-0.166,0.059-0.295,0.145-0.385,0.262c-0.094,0.117-0.14,0.272-0.14,0.467c0,0.285,0.076,0.479,0.229,0.586
		c0.154,0.105,0.379,0.158,0.678,0.158c0.166,0,0.334-0.037,0.508-0.112C162.346,66.772,162.502,66.666,162.643,66.529"/>
	<path fill="#FFFFFF" d="M171.551,68.11h-1.887v-0.632c-0.123,0.102-0.262,0.209-0.418,0.324c-0.158,0.115-0.295,0.201-0.414,0.259
		c-0.149,0.071-0.299,0.126-0.447,0.161c-0.146,0.037-0.321,0.055-0.526,0.055c-0.691,0-1.238-0.285-1.642-0.855
		c-0.401-0.573-0.604-1.338-0.604-2.295c0-0.527,0.07-0.986,0.205-1.375c0.139-0.389,0.326-0.727,0.567-1.015
		c0.218-0.262,0.484-0.47,0.798-0.622c0.312-0.152,0.645-0.229,0.991-0.229c0.318,0,0.576,0.031,0.779,0.1
		c0.205,0.066,0.441,0.169,0.711,0.311v-2.578h1.887V68.11z M169.664,66.438v-2.972c-0.094-0.047-0.217-0.086-0.369-0.117
		c-0.147-0.03-0.276-0.046-0.387-0.046c-0.453,0-0.795,0.159-1.021,0.476c-0.229,0.316-0.343,0.76-0.343,1.327
		c0,0.599,0.088,1.028,0.271,1.296c0.182,0.266,0.475,0.398,0.881,0.398c0.164,0,0.334-0.032,0.502-0.098
		C169.369,66.638,169.523,66.55,169.664,66.438"/>
	<path fill="#FFFFFF" d="M176.428,67.468c-0.13,0.107-0.244,0.205-0.349,0.291c-0.104,0.086-0.24,0.173-0.412,0.26
		c-0.17,0.083-0.334,0.146-0.494,0.188c-0.159,0.045-0.385,0.065-0.672,0.065c-0.535,0-0.979-0.181-1.334-0.54
		s-0.533-0.812-0.533-1.359c0-0.447,0.093-0.812,0.271-1.088c0.178-0.277,0.438-0.498,0.775-0.66
		c0.342-0.164,0.75-0.278,1.227-0.344c0.473-0.064,0.984-0.115,1.531-0.152v-0.03c0-0.336-0.123-0.565-0.369-0.692
		c-0.248-0.129-0.617-0.191-1.109-0.191c-0.225,0-0.483,0.039-0.783,0.121c-0.299,0.08-0.59,0.184-0.872,0.311h-0.162v-1.463
		c0.188-0.055,0.489-0.119,0.905-0.191c0.418-0.074,0.839-0.109,1.263-0.109c1.043,0,1.805,0.174,2.28,0.521
		c0.477,0.347,0.714,0.877,0.714,1.589v4.121h-1.878L176.428,67.468L176.428,67.468z M176.428,66.529v-1.263
		c-0.32,0.034-0.58,0.062-0.777,0.084s-0.392,0.069-0.582,0.138c-0.166,0.059-0.295,0.145-0.385,0.262
		c-0.093,0.117-0.14,0.272-0.14,0.467c0,0.285,0.076,0.479,0.229,0.586c0.154,0.105,0.379,0.158,0.678,0.158
		c0.166,0,0.336-0.037,0.508-0.112S176.287,66.666,176.428,66.529"/>
	<path fill="#FFFFFF" d="M181.73,68.277c-0.445,0-0.869-0.049-1.267-0.146s-0.725-0.209-0.985-0.34v-1.596h0.158
		c0.09,0.067,0.19,0.145,0.307,0.227s0.274,0.168,0.479,0.259c0.177,0.082,0.375,0.153,0.597,0.214
		c0.223,0.059,0.461,0.088,0.721,0.088c0.266,0,0.5-0.042,0.703-0.124s0.307-0.214,0.307-0.394c0-0.141-0.049-0.246-0.141-0.317
		c-0.094-0.073-0.277-0.142-0.545-0.205c-0.146-0.036-0.326-0.075-0.545-0.116c-0.222-0.041-0.416-0.09-0.584-0.143
		c-0.474-0.148-0.83-0.366-1.068-0.656c-0.24-0.29-0.361-0.67-0.361-1.141c0-0.27,0.062-0.524,0.188-0.764
		c0.126-0.24,0.307-0.453,0.547-0.64c0.24-0.185,0.539-0.33,0.893-0.438c0.354-0.107,0.755-0.16,1.199-0.16
		c0.426,0,0.816,0.041,1.172,0.125c0.355,0.087,0.656,0.188,0.9,0.306v1.531h-0.15c-0.063-0.05-0.168-0.117-0.307-0.201
		c-0.141-0.085-0.277-0.157-0.412-0.218c-0.156-0.072-0.334-0.133-0.529-0.18c-0.196-0.047-0.396-0.07-0.602-0.07
		c-0.273,0-0.506,0.049-0.695,0.141c-0.186,0.094-0.28,0.219-0.28,0.373c0,0.137,0.047,0.244,0.139,0.323
		c0.094,0.079,0.299,0.157,0.611,0.231c0.159,0.039,0.346,0.078,0.557,0.115c0.211,0.038,0.414,0.09,0.609,0.153
		c0.434,0.141,0.764,0.348,0.987,0.618c0.226,0.271,0.336,0.633,0.336,1.082c0,0.283-0.065,0.555-0.198,0.812
		c-0.134,0.259-0.322,0.476-0.566,0.649c-0.258,0.191-0.562,0.339-0.914,0.443C182.639,68.225,182.219,68.277,181.73,68.277"/>
</g>
</svg>
