<?xml version="1.0" encoding="utf-8"?>
<!-- Generator: Adobe Illustrator 16.0.0, SVG Export Plug-In . SVG Version: 6.00 Build 0)  -->
<!DOCTYPE svg PUBLIC "-//W3C//DTD SVG 1.1//EN" "http://www.w3.org/Graphics/SVG/1.1/DTD/svg11.dtd">
<svg version="1.1" id="Layer_1" xmlns="http://www.w3.org/2000/svg" xmlns:xlink="http://www.w3.org/1999/xlink" x="0px" y="0px"
	 width="36.496px" height="30.684px" viewBox="0.779 0 36.496 30.684" enable-background="new 0.779 0 36.496 30.684"
	 xml:space="preserve">
<g>
	<g>
		<g>
			<g>
				<g>
					<path fill="#FFFFFF" stroke="#FFFFFF" stroke-width="0.25" stroke-miterlimit="10" d="M32.351,22.561
						c-1.49,0-2.307-0.524-2.904-0.91c-0.5-0.316-0.799-0.508-1.538-0.508c-0.736,0-1.037,0.191-1.533,0.508
						c-0.603,0.386-1.422,0.91-2.9,0.91c-1.473,0-2.293-0.521-2.891-0.903c-0.486-0.312-0.801-0.515-1.545-0.515
						c-0.733,0-1.034,0.191-1.53,0.508c-0.603,0.386-1.423,0.91-2.898,0.91c-1.473,0-2.295-0.522-2.893-0.904
						c-0.502-0.321-0.801-0.514-1.541-0.514c-0.738,0-1.037,0.191-1.531,0.508c-0.604,0.387-1.426,0.91-2.902,0.91
						c-1.474,0-2.295-0.522-2.894-0.904c-0.483-0.312-0.801-0.514-1.541-0.514C1.139,21.143,1,21.004,1,20.834
						c0-0.171,0.139-0.31,0.309-0.31c0.922,0,1.359,0.281,1.865,0.605c0.602,0.383,1.275,0.812,2.568,0.812
						c1.297,0,1.971-0.43,2.564-0.811c0.512-0.326,0.949-0.607,1.869-0.607c0.922,0,1.359,0.281,1.865,0.605
						c0.602,0.383,1.274,0.812,2.567,0.812c1.298,0,1.969-0.43,2.562-0.811c0.533-0.341,0.951-0.607,1.866-0.607
						c0.924,0,1.36,0.281,1.866,0.605c0.604,0.383,1.275,0.812,2.568,0.812c1.299,0,1.971-0.43,2.564-0.811
						c0.532-0.341,0.95-0.607,1.868-0.607c0.921,0,1.339,0.267,1.867,0.603c0.568,0.366,1.269,0.815,2.576,0.815
						c1.299,0,1.973-0.432,2.568-0.812c0.535-0.34,0.953-0.605,1.871-0.605c0.17,0,0.309,0.139,0.309,0.31
						c0,0.17-0.139,0.309-0.309,0.309c-0.738,0-1.039,0.191-1.537,0.508C34.652,22.036,33.832,22.561,32.351,22.561z"/>
				</g>
			</g>
		</g>
		<g>
			<g>
				<g>
					<path fill="#FFFFFF" stroke="#FFFFFF" stroke-width="0.25" stroke-miterlimit="10" d="M32.351,26.01
						c-1.485,0-2.305-0.525-2.901-0.909c-0.5-0.316-0.802-0.509-1.541-0.509c-0.738,0-1.037,0.191-1.533,0.509
						c-0.601,0.385-1.42,0.909-2.9,0.909c-1.475,0-2.293-0.521-2.893-0.904c-0.484-0.311-0.799-0.514-1.543-0.514
						c-0.735,0-1.034,0.191-1.53,0.509c-0.601,0.385-1.421,0.909-2.898,0.909c-1.475,0-2.295-0.522-2.895-0.904
						c-0.5-0.321-0.797-0.514-1.539-0.514c-0.738,0-1.037,0.191-1.531,0.509c-0.604,0.386-1.424,0.909-2.902,0.909
						c-1.476,0-2.295-0.522-2.896-0.904c-0.481-0.311-0.797-0.514-1.539-0.514C1.139,24.592,1,24.455,1,24.284
						c0-0.17,0.139-0.31,0.309-0.31c0.924,0,1.361,0.281,1.865,0.606c0.602,0.382,1.275,0.812,2.568,0.812
						c1.299,0,1.973-0.43,2.566-0.811c0.508-0.326,0.947-0.607,1.867-0.607c0.922,0,1.361,0.281,1.865,0.606
						c0.602,0.382,1.274,0.812,2.567,0.812c1.298,0,1.971-0.431,2.564-0.811c0.531-0.34,0.949-0.607,1.864-0.607
						c0.926,0,1.362,0.281,1.866,0.606c0.603,0.383,1.275,0.812,2.568,0.812c1.299,0,1.973-0.431,2.564-0.811
						c0.532-0.34,0.95-0.607,1.868-0.607c0.921,0,1.341,0.268,1.869,0.604c0.568,0.364,1.271,0.813,2.574,0.813
						c1.301,0,1.976-0.432,2.568-0.812c0.533-0.339,0.953-0.606,1.871-0.606c0.17,0,0.309,0.14,0.309,0.31
						c0,0.171-0.139,0.309-0.309,0.309c-0.738,0-1.039,0.191-1.537,0.509C34.654,25.485,33.832,26.01,32.351,26.01z"/>
				</g>
			</g>
		</g>
		<g>
			<g>
				<g>
					<path fill="#FFFFFF" stroke="#FFFFFF" stroke-width="0.25" stroke-miterlimit="10" d="M2.088,17.828
						c-0.471,0-0.764-0.032-0.814-0.037c-0.17-0.021-0.289-0.173-0.27-0.343c0.018-0.171,0.18-0.289,0.34-0.271
						c0.057,0.005,5.367,0.559,9.04-3.726c0.609-0.712,1.262-1.583,1.947-2.506c2.373-3.179,5.326-7.135,9.025-7.579
						c1.834-0.226,3.709,0.447,5.57,1.986c0.035,0.024,0.439,0.336,0.412,0.757c-0.012,0.17-0.098,0.414-0.443,0.607
						c-0.271,0.151-0.612,0.295-0.975,0.447c-1.365,0.575-3.062,1.29-3.351,3.192c-0.192,1.289-0.256,2.768,0.767,3.954
						c1.678,1.949,6.076,2.896,13.453,2.896c0.17,0,0.309,0.138,0.309,0.309s-0.139,0.311-0.309,0.311
						c-7.672,0-12.097-0.988-13.92-3.111c-1.187-1.377-1.125-3.021-0.908-4.448c0.338-2.246,2.293-3.068,3.721-3.67
						c0.344-0.146,0.67-0.282,0.91-0.417c0.105-0.058,0.129-0.102,0.131-0.107c0.002-0.05-0.1-0.174-0.176-0.23
						c-1.764-1.457-3.437-2.059-5.119-1.861c-3.437,0.414-6.3,4.252-8.603,7.337c-0.693,0.933-1.353,1.812-1.976,2.537
						C7.801,17.413,3.789,17.828,2.088,17.828z"/>
				</g>
			</g>
		</g>
	</g>
</g>
</svg>
