<?xml version="1.0" encoding="utf-8"?>
<!-- Generator: Adobe Illustrator 16.0.0, SVG Export Plug-In . SVG Version: 6.00 Build 0)  -->
<!DOCTYPE svg PUBLIC "-//W3C//DTD SVG 1.1//EN" "http://www.w3.org/Graphics/SVG/1.1/DTD/svg11.dtd">
<svg version="1.1" id="Layer_1" xmlns="http://www.w3.org/2000/svg" xmlns:xlink="http://www.w3.org/1999/xlink" x="0px" y="0px"
	 width="349.573px" height="259.486px" viewBox="0 0 349.573 259.486" enable-background="new 0 0 349.573 259.486"
	 xml:space="preserve">
<g>
	<rect fill="#FEDC00" width="349.573" height="259.486"/>
	<text transform="matrix(1 0 0 1 63.1523 224.4648)" fill="#676767" font-family="'NexaLight'" font-size="14">Read reviews on...</text>
	<line fill="none" stroke="#DAB727" stroke-width="3" stroke-miterlimit="10" x1="0" y1="259.486" x2="349.573" y2="259.486"/>
	<text transform="matrix(1 0 0 1 48.2129 166.1777)" fill="#676767" font-family="'NexaLight'" font-size="27"> El MISTI HOSTELS </text>
	<text transform="matrix(1 0 0 1 117.2363 133.8242)" fill="#676767" font-family="'NexaLight'" font-size="27">We love </text>
	
		<line fill="none" stroke="#676767" stroke-width="2" stroke-miterlimit="10" stroke-dasharray="2,2" x1="29.069" y1="184.286" x2="322.254" y2="184.286"/>
	<g>
		<g>
			<g>
				<g>
					<path fill="#676767" d="M215.355,214.164c-0.766,0-1.596,0-1.988,0c-0.396,0-0.793,0.412-0.793,0.719s0,2.048,0,2.048
						s2.459,0,2.779,0c-0.111,1.569-0.34,3.006-0.34,3.006h-2.453v8.901h-3.656v-8.901h-1.777v-2.995h1.777c0,0,0-2.002,0-2.449
						s-0.09-3.443,3.746-3.443c0.514,0,1.682,0,2.705,0C215.355,212.35,215.355,213.759,215.355,214.164z"/>
				</g>
			</g>
		</g>
		<g>
			<path fill="#676767" d="M210.766,234.47c-8.197,0-14.867-6.669-14.867-14.865s6.67-14.865,14.867-14.865
				s14.865,6.669,14.865,14.865S218.963,234.47,210.766,234.47z M210.766,205.739c-7.646,0-13.867,6.22-13.867,13.865
				s6.221,13.865,13.867,13.865c7.645,0,13.865-6.22,13.865-13.865S218.41,205.739,210.766,205.739z"/>
		</g>
	</g>
	<g>
		<path fill="#676767" d="M169.577,17.775c0-3.832-3.109-6.936-6.933-6.936c-3.831,0-6.933,3.104-6.933,6.936
			c0,0-1.089,6.012,13.865,17.614c0,0,13.862-8.478,13.862-17.614c0-3.832-3.109-6.936-6.933-6.936
			C172.673,10.84,169.577,13.943,169.577,17.775"/>
		<g>
			<g>
				<line fill="none" stroke="#676767" stroke-miterlimit="10" x1="126.472" y1="23.276" x2="208.942" y2="87.107"/>
				<g>
					<polygon fill="#676767" points="127.009,25.837 126.705,23.458 129.084,23.155 127.946,22.274 125.567,22.577 125.87,24.955 
											"/>
				</g>
				<g>
					<polygon fill="#676767" points="208.925,86.468 213.419,84.628 214.318,85.324 209.825,87.164 210.725,87.86 215.218,86.021 
						216.118,86.718 211.624,88.557 212.523,89.253 217.019,87.414 217.918,88.11 213.423,89.949 214.344,90.661 213.737,91.445 
						212.816,90.732 212.163,95.545 211.264,94.849 211.917,90.037 211.018,89.34 210.364,94.152 209.464,93.455 210.118,88.644 
						209.218,87.947 208.563,92.759 207.664,92.062 208.318,87.251 					"/>
				</g>
			</g>
		</g>
		<g>
			<g>
				<line fill="none" stroke="#676767" stroke-miterlimit="10" x1="214.138" y1="23.276" x2="131.665" y2="87.107"/>
				<g>
					<polygon fill="#676767" points="211.524,23.155 213.903,23.458 213.6,25.837 214.738,24.955 215.041,22.577 212.663,22.274 
											"/>
				</g>
				<g>
					<polygon fill="#676767" points="132.29,87.25 132.943,92.062 132.044,92.758 131.39,87.947 130.49,88.644 131.144,93.454 
						130.243,94.151 129.591,89.34 128.69,90.036 129.344,94.848 128.444,95.544 127.791,90.732 126.87,91.444 126.264,90.661 
						127.185,89.948 122.69,88.109 123.59,87.413 128.084,89.252 128.983,88.556 124.489,86.717 125.39,86.02 129.884,87.859 
						130.783,87.163 126.29,85.323 127.189,84.627 131.683,86.467 					"/>
				</g>
			</g>
		</g>
		<g>
			<g>
				<circle fill="#676767" cx="139.64" cy="56.729" r="1.104"/>
				<path fill="#676767" d="M126.227,55.626c-1.16,0-1.085,1.309-1.085,1.309s0.486-0.673,1.047-0.71
					c0.561-0.038,1.084,0.71,1.084,0.71S127.385,55.626,126.227,55.626z"/>
				<path fill="#676767" d="M145.308,52.521c-0.936-0.188-8.38-0.449-10.027,0.486c-1.645,0.935-1.907,0.935-2.358,0.972
					c-0.449,0.038-1.608-0.785-2.692-1.084c-1.086-0.3-4.527-1.011-10.216-0.225c-1.046,0.3-0.898,1.01-0.783,1.421
					c0.11,0.412,0.598,0.824,0.598,0.824s0.71,0.336,0.823,1.646c0.111,1.31,0.373,3.704,3.218,4.266
					c2.843,0.562,5.985,0.562,6.958-1.31s1.01-4.004,2.06-4.041c1.046-0.037,1.271,1.833,1.794,3.219
					c0.523,1.383,1.685,2.543,3.594,2.469c1.907-0.074,2.806,0.262,5.162-1.01c1.273-0.898,1.459-1.908,1.608-2.994
					c0.151-1.085,0.412-1.982,0.9-2.133c0.484-0.148,0.672-0.674,0.709-1.347C146.692,53.007,146.242,52.707,145.308,52.521z
					 M120.276,54.278c-0.288,0-0.523-0.234-0.523-0.523s0.235-0.523,0.523-0.523c0.289,0,0.524,0.234,0.524,0.523
					S120.565,54.278,120.276,54.278z M129.069,58.731c-1.01,1.271-2.993,1.422-5.126,0.935c-2.133-0.486-2.096-3.517-1.946-4.751
					c0.15-1.235,1.46-1.422,1.46-1.422s5.574-0.149,6.698,0.935C131.278,55.513,130.079,57.459,129.069,58.731z M141.755,59.666
					c-2.134,0.487-4.118,0.337-5.128-0.935c-1.009-1.272-2.208-3.219-1.084-4.304c1.122-1.084,6.696-0.935,6.696-0.935
					s1.31,0.187,1.459,1.422C143.849,56.149,143.886,59.18,141.755,59.666z M145.645,54.278c-0.289,0-0.524-0.234-0.524-0.523
					s0.235-0.523,0.524-0.523s0.524,0.234,0.524,0.523S145.934,54.278,145.645,54.278z"/>
			</g>
		</g>
		<path fill="#676767" d="M179.121,84.87l-2.113,1.077l0.82,0.733c0,0-1.758,2.778-5.644,3.035v-9.433h3.53v-0.834h-3.53v-2.336
			c1.256-0.202,2.223-1.284,2.223-2.597c0-1.455-1.185-2.638-2.638-2.638c-1.455,0-2.64,1.183-2.64,2.638
			c0,1.312,0.967,2.395,2.222,2.596v2.337h-3.529v0.834h3.529v9.433c-3.885-0.257-5.643-3.035-5.643-3.035l0.819-0.733l-2.112-1.077
			l-0.475,2.242l1.207-0.044c0,0,1.337,3.105,4.657,4.054c0.949,0.303,1.941,0.647,1.941,1.855l0.021-0.795l0.021,0.795
			c0-1.208,0.991-1.553,1.94-1.855c3.322-0.948,4.658-4.054,4.658-4.054l1.207,0.044L179.121,84.87z M169.964,74.517
			c0-0.994,0.811-1.805,1.806-1.805c0.994,0,1.803,0.811,1.803,1.805c0,0.995-0.809,1.805-1.803,1.805
			C170.774,76.321,169.964,75.512,169.964,74.517z"/>
		<g>
			<g>
				<g>
					<path fill="#676767" d="M199.776,54.21c2.556,0,4.636,2.078,4.636,4.633c0,2.556-2.08,4.635-4.636,4.635
						c-2.555,0-4.633-2.079-4.633-4.635C195.144,56.288,197.222,54.21,199.776,54.21 M199.776,53.21
						c-3.11,0-5.633,2.521-5.633,5.633c0,3.11,2.522,5.635,5.633,5.635s5.636-2.524,5.636-5.635
						C205.412,55.731,202.887,53.21,199.776,53.21L199.776,53.21z"/>
				</g>
			</g>
			<g>
				<g>
					<path fill="#676767" d="M220.448,54.21c2.556,0,4.635,2.078,4.635,4.633c0,2.556-2.079,4.635-4.635,4.635
						c-2.555,0-4.633-2.079-4.633-4.635C215.815,56.288,217.894,54.21,220.448,54.21 M220.448,53.21
						c-3.108,0-5.633,2.521-5.633,5.633c0,3.11,2.524,5.635,5.633,5.635c3.113,0,5.635-2.524,5.635-5.635
						C226.083,55.731,223.562,53.21,220.448,53.21L220.448,53.21z"/>
				</g>
			</g>
			<circle fill="#676767" cx="200.007" cy="58.79" r="1.473"/>
			<circle fill="#676767" cx="220.067" cy="58.79" r="1.473"/>
			<path fill="#676767" d="M216.505,46.253c0,0-2.943-0.103-2.943,0.711c0,0.812,6.903,2.027,7.104,0
				C220.869,44.933,216.505,46.253,216.505,46.253z"/>
			<polyline fill="none" stroke="#676767" stroke-width="0.5" stroke-miterlimit="10" points="217.118,48.791 210.009,58.134 
				202.597,49.706 			"/>
			<polyline fill="none" stroke="#676767" stroke-width="0.5" stroke-miterlimit="10" points="220.068,58.134 215.984,50.28 
				202.597,50.28 			"/>
			<polyline fill="none" stroke="#676767" stroke-width="0.5" stroke-miterlimit="10" points="200.007,58.134 204.322,45.237 
				206.351,45.237 			"/>
		</g>
	</g>
	<g>
		<g>
			<path fill="#676767" d="M248.699,234.47c-8.197,0-14.867-6.669-14.867-14.865s6.67-14.865,14.867-14.865
				s14.865,6.669,14.865,14.865S256.896,234.47,248.699,234.47z M248.699,205.739c-7.646,0-13.867,6.22-13.867,13.865
				s6.221,13.865,13.867,13.865c7.645,0,13.865-6.22,13.865-13.865S256.344,205.739,248.699,205.739z"/>
		</g>
		<g>
			<circle fill="#676767" cx="242.822" cy="220.891" r="0.967"/>
			<path fill="#676767" d="M242.822,217.909c-1.644,0-2.981,1.338-2.981,2.981s1.338,2.981,2.981,2.981s2.981-1.338,2.981-2.981
				S244.466,217.909,242.822,217.909z M242.822,222.872c-1.093,0-1.981-0.889-1.981-1.981s0.889-1.981,1.981-1.981
				s1.981,0.889,1.981,1.981S243.915,222.872,242.822,222.872z"/>
			<circle fill="#676767" cx="254.738" cy="220.891" r="0.967"/>
			<path fill="#676767" d="M254.738,217.909c-1.644,0-2.981,1.338-2.981,2.981s1.338,2.981,2.981,2.981s2.981-1.338,2.981-2.981
				S256.382,217.909,254.738,217.909z M254.738,222.872c-1.093,0-1.981-0.889-1.981-1.981s0.889-1.981,1.981-1.981
				s1.981,0.889,1.981,1.981S255.831,222.872,254.738,222.872z"/>
			<path fill="#676767" d="M259.495,217.314l0.033-0.026c0.289-1.082,1.046-2.021,1.046-2.021l-3.875-0.034
				c-0.07-0.025-0.14-0.055-0.212-0.078c-0.253-0.386-2.131-2.195-7.707-2.195s-7.454,1.81-7.707,2.195
				c-0.072,0.023-0.142,0.053-0.212,0.078l-3.875,0.034c0,0,0.757,0.938,1.046,2.021l0.033,0.026
				c-0.742,1.001-1.187,2.237-1.187,3.579c0,3.326,2.696,6.023,6.023,6.023c1.798,0,3.407-0.792,4.511-2.042l1.367,1.753
				l1.367-1.753c1.104,1.25,2.713,2.042,4.511,2.042c3.327,0,6.023-2.697,6.023-6.023
				C260.682,219.552,260.237,218.315,259.495,217.314z M242.822,225.645c-2.627,0-4.754-2.127-4.754-4.754s2.127-4.754,4.754-4.754
				s4.754,2.127,4.754,4.754S245.449,225.645,242.822,225.645z M254.738,225.645c-2.627,0-4.754-2.127-4.754-4.754
				s2.127-4.754,4.754-4.754s4.754,2.127,4.754,4.754S257.365,225.645,254.738,225.645z"/>
		</g>
	</g>
	<g>
		<g>
			<g>
				<path fill="#676767" d="M294.338,211.461H281.25c-1.064,0-1.936,0.872-1.936,1.938v13.089c0,1.067,0.871,1.938,1.936,1.938
					h13.088c1.066,0,1.938-0.87,1.938-1.938v-13.089C296.275,212.333,295.404,211.461,294.338,211.461z M290.838,213.566h3.217
					v3.217h-3.217V213.566z M287.775,217.386c1.359,0,2.461,1.101,2.461,2.462c0,1.359-1.102,2.461-2.461,2.461
					s-2.463-1.102-2.463-2.461C285.312,218.486,286.416,217.386,287.775,217.386z M291.799,226.322c-2.576,0-8.582,0-8.582,0
					s-1.799,0.245-1.799-1.979c0-2.22,0-5.047,0-5.047h2.203c0,0-0.121,4.694,4.154,4.694s4.223-4.694,4.223-4.694h2.172v5.352
					C294.17,224.648,294.371,226.322,291.799,226.322z"/>
			</g>
			<g>
				<path fill="#676767" d="M287.775,234.809c-8.197,0-14.867-6.669-14.867-14.865s6.67-14.865,14.867-14.865
					s14.865,6.669,14.865,14.865S295.973,234.809,287.775,234.809z M287.775,206.078c-7.646,0-13.867,6.22-13.867,13.865
					s6.221,13.865,13.867,13.865c7.645,0,13.865-6.22,13.865-13.865S295.42,206.078,287.775,206.078z"/>
			</g>
		</g>
	</g>
</g>
</svg>
