<?xml version="1.0" encoding="utf-8"?>
<!-- Generator: Adobe Illustrator 16.0.0, SVG Export Plug-In . SVG Version: 6.00 Build 0)  -->
<!DOCTYPE svg PUBLIC "-//W3C//DTD SVG 1.1//EN" "http://www.w3.org/Graphics/SVG/1.1/DTD/svg11.dtd">
<svg version="1.1" id="Layer_1" xmlns="http://www.w3.org/2000/svg" xmlns:xlink="http://www.w3.org/1999/xlink" x="0px" y="0px"
	 width="433.898px" height="57.627px" viewBox="0 0 433.898 57.627" enable-background="new 0 0 433.898 57.627"
	 xml:space="preserve">
<g>
	<g>
		<g>
			<g>
				<polygon fill="#676767" points="206.612,16.948 205.966,19.651 205.899,19.651 205.222,16.948 204.169,16.948 205.413,21.031 
					205.413,23.712 206.458,23.712 206.458,20.906 207.673,16.948 				"/>
				<path fill="#676767" d="M208.681,22.862c-0.066-0.076-0.1-0.183-0.1-0.319v-2.718c0-0.109,0.035-0.197,0.107-0.265
					c0.07-0.065,0.162-0.099,0.275-0.099c0.121,0,0.221,0.033,0.295,0.099c0.078,0.067,0.113,0.155,0.113,0.265v2.718
					c0,0.134-0.035,0.239-0.109,0.314c-0.074,0.077-0.174,0.116-0.299,0.116C208.841,22.974,208.747,22.936,208.681,22.862
					 M208.001,18.939c-0.25,0.229-0.375,0.538-0.375,0.923l0.002,2.588c0,0.424,0.121,0.761,0.363,1.011
					c0.242,0.251,0.57,0.378,0.975,0.378c0.422,0,0.752-0.122,0.994-0.365c0.238-0.244,0.359-0.578,0.359-1.007v-2.576
					c0-0.38-0.123-0.69-0.367-0.932c-0.246-0.241-0.561-0.362-0.943-0.362C208.587,18.597,208.251,18.711,208.001,18.939"/>
				<path fill="#676767" d="M212.827,18.723v3.786c-0.09,0.109-0.182,0.199-0.287,0.269c-0.105,0.071-0.191,0.105-0.26,0.105
					c-0.086,0-0.148-0.026-0.188-0.079s-0.059-0.138-0.059-0.257v-3.824h-0.926v4.171c0,0.296,0.053,0.519,0.16,0.668
					c0.109,0.148,0.271,0.223,0.486,0.223c0.174,0,0.354-0.055,0.539-0.16c0.186-0.104,0.361-0.261,0.533-0.463v0.551h0.928v-4.989
					H212.827z"/>
				<g>
					<path fill="#676767" d="M214.499,29.183c-0.148,0-0.254,0.045-0.316,0.135c-0.066,0.091-0.098,0.241-0.098,0.449v0.506h0.818
						v-0.506c0-0.208-0.031-0.358-0.096-0.449C214.743,29.228,214.642,29.183,214.499,29.183z"/>
					<path fill="#676767" d="M211.089,29.165c-0.068,0-0.133,0.017-0.197,0.048c-0.064,0.033-0.127,0.083-0.189,0.152v3.109
						c0.074,0.08,0.148,0.14,0.219,0.174c0.072,0.037,0.145,0.056,0.225,0.056c0.111,0,0.197-0.035,0.248-0.105
						c0.055-0.07,0.082-0.186,0.082-0.345v-2.575c0-0.168-0.033-0.295-0.1-0.384C211.31,29.208,211.214,29.165,211.089,29.165z"/>
					<path fill="#676767" d="M217.021,27.276c0-1.204-0.988-2.182-2.207-2.182c-1.654-0.069-3.344-0.103-5.066-0.103
						c-0.088,0-0.18,0-0.268,0c-0.092,0-0.18,0-0.271,0c-1.721,0-3.412,0.033-5.064,0.103c-1.219,0-2.207,0.978-2.207,2.182
						c-0.072,0.955-0.105,1.909-0.102,2.862c-0.004,0.955,0.029,1.908,0.102,2.865c0,1.204,0.988,2.181,2.207,2.181
						c1.74,0.075,3.52,0.104,5.336,0.103c1.812,0.002,3.594-0.027,5.334-0.103c1.219,0,2.207-0.977,2.207-2.181
						c0.072-0.957,0.105-1.91,0.102-2.865C217.126,29.186,217.093,28.231,217.021,27.276z M205.144,33.425h-1.045v-5.782h-1.08
						V26.66h3.205v0.982h-1.08V33.425z M208.858,33.425h-0.928v-0.552c-0.17,0.204-0.348,0.359-0.533,0.465
						c-0.184,0.104-0.363,0.158-0.537,0.158c-0.215,0-0.377-0.074-0.484-0.223c-0.109-0.148-0.164-0.371-0.164-0.669v-4.169h0.928
						v3.825c0,0.117,0.018,0.202,0.059,0.256c0.039,0.053,0.102,0.079,0.188,0.079c0.068,0,0.154-0.034,0.26-0.104
						s0.199-0.159,0.285-0.27v-3.786h0.928V33.425z M212.431,32.391c0,0.354-0.072,0.627-0.219,0.814
						c-0.145,0.189-0.355,0.282-0.629,0.282c-0.182,0-0.344-0.035-0.488-0.109c-0.141-0.073-0.273-0.185-0.393-0.337v0.384h-0.938
						V26.66h0.938v2.179c0.125-0.153,0.258-0.27,0.396-0.348c0.141-0.079,0.281-0.119,0.428-0.119c0.293,0,0.518,0.107,0.672,0.319
						c0.154,0.215,0.232,0.524,0.232,0.932V32.391z M215.858,31.047h-1.773v0.942c0,0.261,0.029,0.442,0.092,0.545
						c0.061,0.101,0.166,0.151,0.312,0.151c0.154,0,0.262-0.044,0.324-0.129c0.061-0.086,0.09-0.274,0.09-0.567v-0.349h0.955v0.376
						c0,0.511-0.117,0.896-0.348,1.154c-0.232,0.259-0.58,0.389-1.043,0.389c-0.414,0-0.74-0.138-0.98-0.411
						c-0.238-0.275-0.357-0.652-0.357-1.132v-2.24c0-0.434,0.131-0.785,0.393-1.059c0.262-0.272,0.6-0.408,1.016-0.408
						c0.424,0,0.752,0.126,0.979,0.378c0.229,0.253,0.342,0.615,0.342,1.089V31.047z"/>
				</g>
			</g>
			<circle fill="none" stroke="#676767" stroke-miterlimit="10" cx="209.479" cy="26.118" r="14.366"/>
		</g>
		<g>
			<path fill="#676767" d="M169.872,17.636h-13.088c-1.064,0-1.936,0.872-1.936,1.938v13.089c0,1.067,0.871,1.938,1.936,1.938
				h13.088c1.066,0,1.938-0.87,1.938-1.938V19.574C171.81,18.508,170.938,17.636,169.872,17.636z M166.372,19.741h3.217v3.217
				h-3.217V19.741z M163.31,23.561c1.359,0,2.461,1.101,2.461,2.462c0,1.359-1.102,2.461-2.461,2.461s-2.463-1.102-2.463-2.461
				C160.847,24.661,161.95,23.561,163.31,23.561z M167.333,32.497c-2.576,0-8.582,0-8.582,0s-1.799,0.245-1.799-1.979
				c0-2.22,0-5.047,0-5.047h2.203c0,0-0.121,4.694,4.154,4.694s4.223-4.694,4.223-4.694h2.172v5.352
				C169.704,30.823,169.905,32.497,167.333,32.497z"/>
			<circle fill="none" stroke="#676767" stroke-miterlimit="10" cx="163.309" cy="26.118" r="14.366"/>
		</g>
		<g>
			<g>
				<g>
					<g>
						<g>
							<path fill="#676767" d="M70.757,24.25c0,0-0.535-3.396,2.859-3.718c1.789-0.107,2.432,0.931,2.432,0.931
								s1.252-0.287,1.932-0.716c0,0-0.072,0.958-1.182,1.641c0,0,1.217-0.223,1.609-0.431c0,0-0.643,1.222-1.43,1.508
								c0,0,0.107,2.754-1.357,5.041c-1.467,2.289-5.436,6.543-12.086,2.824c0,0,2.109,0.397,4.326-1.123
								c0,0-2.395-0.485-2.719-2.309c0,0,0.682,0.107,1.217-0.035c0,0-2.395-0.571-2.359-3.04c0,0,0.643,0.393,1.359,0.286
								c0,0-2.182-1.431-0.895-4.076C64.464,21.033,67.181,24.215,70.757,24.25z"/>
						</g>
					</g>
				</g>
			</g>
			<circle fill="none" stroke="#676767" stroke-miterlimit="10" cx="70.971" cy="26.118" r="14.366"/>
		</g>
		<g>
			<g>
				<path fill="#676767" d="M29.394,20.678c-0.766,0-1.596,0-1.988,0c-0.396,0-0.793,0.412-0.793,0.719s0,2.048,0,2.048
					s2.459,0,2.779,0c-0.111,1.569-0.34,3.006-0.34,3.006h-2.453v8.901h-3.656V26.45h-1.777v-2.995h1.777c0,0,0-2.002,0-2.449
					s-0.09-3.443,3.746-3.443c0.514,0,1.682,0,2.705,0C29.394,18.863,29.394,20.272,29.394,20.678z"/>
			</g>
			<circle fill="none" stroke="#676767" stroke-miterlimit="10" cx="24.803" cy="26.118" r="14.366"/>
		</g>
		<g>
			<circle fill="none" stroke="#676767" stroke-miterlimit="10" cx="117.141" cy="26.118" r="14.366"/>
			<g>
				<polygon fill="#676767" points="124.286,21.696 124.286,18.385 123.458,18.385 123.458,21.696 120.147,21.696 120.147,22.523 
					123.458,22.523 123.458,25.835 124.286,25.835 124.286,22.523 127.599,22.523 127.599,21.696 				"/>
				<path fill="#676767" d="M118.692,18.385c0,0-3.838,0-5.117,0c-2.293,0-4.453,1.753-4.453,3.766c0,2.058,1.564,3.726,3.898,3.726
					c0.162,0,0.32,0.001,0.475-0.011c-0.152,0.29-0.26,0.618-0.26,0.958c0,0.571,0.307,1.036,0.695,1.414
					c-0.293,0-0.576,0.009-0.887,0.009c-2.842,0-5.029,1.811-5.029,3.688c0,1.848,2.398,3.004,5.24,3.004
					c3.24,0,5.029-1.838,5.029-3.687c0-1.481-0.438-2.369-1.789-3.325c-0.463-0.328-1.348-1.124-1.348-1.592
					c0-0.548,0.156-0.818,0.982-1.464c0.846-0.661,1.445-1.605,1.445-2.688c0-1.287-0.574-2.557-1.65-2.97h1.623L118.692,18.385z
					 M116.905,30.933c0.041,0.171,0.062,0.348,0.062,0.527c0,1.493-0.963,2.66-3.723,2.66c-1.965,0-3.383-1.243-3.383-2.736
					c0-1.464,1.76-2.682,3.723-2.661c0.459,0.005,0.887,0.078,1.273,0.204C115.925,29.669,116.69,30.088,116.905,30.933z
					 M113.761,25.362c-1.318-0.04-2.572-1.476-2.799-3.207c-0.229-1.73,0.656-3.056,1.975-3.017c1.318,0.04,2.57,1.43,2.799,3.16
					C115.962,24.03,115.079,25.401,113.761,25.362z"/>
			</g>
		</g>
	</g>
</g>
<g>
	<g>
		<path fill="#676767" d="M414.071,28.915c-0.146,0-0.287,0.04-0.428,0.119c-0.139,0.078-0.271,0.194-0.396,0.348v-2.179h-0.938
			v6.765h0.938v-0.384c0.119,0.152,0.252,0.264,0.393,0.337c0.145,0.074,0.307,0.109,0.488,0.109c0.273,0,0.484-0.093,0.629-0.282
			c0.146-0.188,0.219-0.46,0.219-0.814v-2.768c0-0.407-0.078-0.717-0.232-0.932C414.589,29.022,414.364,28.915,414.071,28.915z
			 M414.021,32.797c0,0.159-0.027,0.274-0.082,0.345c-0.051,0.07-0.137,0.105-0.248,0.105c-0.08,0-0.152-0.019-0.225-0.056
			c-0.07-0.034-0.145-0.094-0.219-0.174v-3.109c0.062-0.069,0.125-0.119,0.189-0.152c0.064-0.031,0.129-0.048,0.197-0.048
			c0.125,0,0.221,0.043,0.287,0.13c0.066,0.089,0.1,0.216,0.1,0.384V32.797z"/>
		<path fill="#676767" d="M410.476,32.765c-0.086,0.11-0.18,0.199-0.285,0.27s-0.191,0.104-0.26,0.104
			c-0.086,0-0.148-0.026-0.188-0.079c-0.041-0.054-0.059-0.139-0.059-0.256v-3.825h-0.928v4.169c0,0.298,0.055,0.521,0.164,0.669
			c0.107,0.148,0.27,0.223,0.484,0.223c0.174,0,0.354-0.054,0.537-0.158c0.186-0.105,0.363-0.261,0.533-0.465v0.552h0.928v-4.989
			h-0.928V32.765z"/>
		<path fill="#676767" d="M412.024,11.796c-8.197,0-14.867,6.669-14.867,14.865s6.67,14.865,14.867,14.865
			s14.865-6.669,14.865-14.865S420.222,11.796,412.024,11.796z M413.653,19.266h0.926v3.824c0,0.119,0.02,0.204,0.059,0.257
			s0.102,0.079,0.188,0.079c0.068,0,0.154-0.034,0.26-0.105c0.105-0.069,0.197-0.159,0.287-0.269v-3.786h0.928v4.989h-0.928v-0.551
			c-0.172,0.202-0.348,0.358-0.533,0.463c-0.186,0.105-0.365,0.16-0.539,0.16c-0.215,0-0.377-0.074-0.486-0.223
			c-0.107-0.149-0.16-0.372-0.16-0.668V19.266z M411.554,19.14c0.383,0,0.697,0.121,0.943,0.362
			c0.244,0.241,0.367,0.552,0.367,0.932v2.576c0,0.429-0.121,0.763-0.359,1.007c-0.242,0.243-0.572,0.365-0.994,0.365
			c-0.404,0-0.732-0.127-0.975-0.378c-0.242-0.25-0.363-0.587-0.363-1.011l-0.002-2.588c0-0.385,0.125-0.693,0.375-0.923
			C410.796,19.254,411.132,19.14,411.554,19.14z M407.767,17.491l0.678,2.703h0.066l0.646-2.703h1.061l-1.215,3.958v2.806h-1.045
			v-2.681l-1.244-4.083H407.767z M419.565,33.547c0,1.204-0.988,2.181-2.207,2.181c-1.74,0.075-3.521,0.104-5.334,0.103
			c-1.816,0.002-3.596-0.027-5.336-0.103c-1.219,0-2.207-0.977-2.207-2.181c-0.072-0.957-0.105-1.91-0.102-2.865
			c-0.004-0.953,0.029-1.907,0.102-2.862c0-1.204,0.988-2.182,2.207-2.182c1.652-0.069,3.344-0.103,5.064-0.103
			c0.092,0,0.18,0,0.271,0c0.088,0,0.18,0,0.268,0c1.723,0,3.412,0.033,5.066,0.103c1.219,0,2.207,0.978,2.207,2.182
			c0.072,0.955,0.105,1.909,0.102,2.862C419.671,31.637,419.638,32.59,419.565,33.547z"/>
		<polygon fill="#676767" points="408.769,27.203 405.563,27.203 405.563,28.186 406.644,28.186 406.644,33.968 407.688,33.968 
			407.688,28.186 408.769,28.186 		"/>
		<path fill="#676767" d="M417.083,28.853c-0.416,0-0.754,0.136-1.016,0.408c-0.262,0.273-0.393,0.625-0.393,1.059v2.24
			c0,0.479,0.119,0.856,0.357,1.132c0.24,0.273,0.566,0.411,0.98,0.411c0.463,0,0.811-0.13,1.043-0.389
			c0.23-0.259,0.348-0.644,0.348-1.154v-0.376h-0.955v0.349c0,0.293-0.029,0.481-0.09,0.567c-0.062,0.085-0.17,0.129-0.324,0.129
			c-0.146,0-0.252-0.051-0.312-0.151c-0.062-0.103-0.092-0.284-0.092-0.545V31.59h1.773v-1.271c0-0.474-0.113-0.836-0.342-1.089
			C417.835,28.979,417.507,28.853,417.083,28.853z M417.448,30.815h-0.818V30.31c0-0.208,0.031-0.358,0.098-0.449
			c0.062-0.09,0.168-0.135,0.316-0.135c0.143,0,0.244,0.045,0.309,0.135c0.064,0.091,0.096,0.241,0.096,0.449V30.815z"/>
		<path fill="#676767" d="M411.509,23.517c0.125,0,0.225-0.039,0.299-0.116c0.074-0.075,0.109-0.181,0.109-0.314v-2.718
			c0-0.109-0.035-0.197-0.113-0.265c-0.074-0.065-0.174-0.099-0.295-0.099c-0.113,0-0.205,0.033-0.275,0.099
			c-0.072,0.067-0.107,0.155-0.107,0.265v2.718c0,0.137,0.033,0.243,0.1,0.319C411.292,23.479,411.386,23.517,411.509,23.517z"/>
	</g>
</g>
<g>
	<g>
		<rect x="377.536" y="20.284" fill="#676767" width="3.217" height="3.217"/>
		<path fill="#676767" d="M380.868,26.015h-2.172c0,0,0.053,4.694-4.223,4.694s-4.154-4.694-4.154-4.694h-2.203c0,0,0,2.827,0,5.047
			c0,2.224,1.799,1.979,1.799,1.979s6.006,0,8.582,0c2.572,0,2.371-1.674,2.371-1.674V26.015z"/>
		<circle fill="#676767" cx="374.474" cy="26.565" r="2.461"/>
		<path fill="#676767" d="M374.474,11.796c-8.197,0-14.867,6.669-14.867,14.865s6.67,14.865,14.867,14.865
			s14.865-6.669,14.865-14.865S382.671,11.796,374.474,11.796z M382.974,33.206c0,1.067-0.871,1.938-1.938,1.938h-13.088
			c-1.064,0-1.936-0.87-1.936-1.938V20.117c0-1.066,0.871-1.938,1.936-1.938h13.088c1.066,0,1.938,0.872,1.938,1.938V33.206z"/>
	</g>
</g>
<path fill="#676767" d="M299.372,11.796c-8.197,0-14.867,6.669-14.867,14.865s6.67,14.865,14.867,14.865s14.865-6.669,14.865-14.865
	S307.569,11.796,299.372,11.796z M305.378,24.008c0,0,0.107,2.754-1.357,5.041c-1.467,2.289-5.436,6.543-12.086,2.824
	c0,0,2.109,0.397,4.326-1.123c0,0-2.395-0.485-2.719-2.309c0,0,0.682,0.107,1.217-0.035c0,0-2.395-0.571-2.359-3.04
	c0,0,0.643,0.393,1.359,0.286c0,0-2.182-1.431-0.895-4.076c0,0,2.717,3.182,6.293,3.217c0,0-0.535-3.396,2.859-3.718
	c1.789-0.107,2.432,0.931,2.432,0.931s1.252-0.287,1.932-0.716c0,0-0.072,0.958-1.182,1.641c0,0,1.217-0.223,1.609-0.431
	C306.808,22.5,306.165,23.722,305.378,24.008z"/>
<path fill="#676767" d="M261.821,11.796c-8.197,0-14.867,6.669-14.867,14.865s6.67,14.865,14.867,14.865s14.865-6.669,14.865-14.865
	S270.019,11.796,261.821,11.796z M266.411,21.221c-0.766,0-1.596,0-1.988,0c-0.396,0-0.793,0.412-0.793,0.719s0,2.048,0,2.048
	s2.459,0,2.779,0c-0.111,1.569-0.34,3.006-0.34,3.006h-2.453v8.901h-3.656v-8.901h-1.777v-2.995h1.777c0,0,0-2.002,0-2.449
	s-0.09-3.443,3.746-3.443c0.514,0,1.682,0,2.705,0C266.411,19.406,266.411,20.815,266.411,21.221z"/>
<g>
	<g>
		<path fill="#676767" d="M333.366,29.266c-1.963-0.021-3.723,1.197-3.723,2.661c0,1.493,1.418,2.736,3.383,2.736
			c2.76,0,3.723-1.167,3.723-2.66c0-0.18-0.021-0.356-0.062-0.527c-0.215-0.845-0.98-1.264-2.047-2.006
			C334.253,29.344,333.825,29.271,333.366,29.266z"/>
		<path fill="#676767" d="M332.718,19.682c-1.318-0.039-2.203,1.286-1.975,3.017c0.227,1.731,1.48,3.167,2.799,3.207
			c1.318,0.039,2.201-1.332,1.975-3.063C335.288,21.111,334.036,19.722,332.718,19.682z"/>
		<path fill="#676767" d="M336.923,11.796c-8.197,0-14.867,6.669-14.867,14.865s6.67,14.865,14.867,14.865
			s14.865-6.669,14.865-14.865S345.12,11.796,336.923,11.796z M337.356,22.726c0,1.082-0.6,2.026-1.445,2.688
			c-0.826,0.646-0.982,0.916-0.982,1.464c0,0.468,0.885,1.264,1.348,1.592c1.352,0.956,1.789,1.844,1.789,3.325
			c0,1.849-1.789,3.687-5.029,3.687c-2.842,0-5.24-1.156-5.24-3.004c0-1.877,2.188-3.688,5.029-3.688
			c0.311,0,0.594-0.009,0.887-0.009c-0.389-0.378-0.695-0.843-0.695-1.414c0-0.34,0.107-0.668,0.26-0.958
			c-0.154,0.012-0.312,0.011-0.475,0.011c-2.334,0-3.898-1.668-3.898-3.726c0-2.013,2.16-3.766,4.453-3.766c1.279,0,5.117,0,5.117,0
			l-1.145,0.828h-1.623C336.782,20.169,337.356,21.438,337.356,22.726z M347.38,23.066h-3.312v3.312h-0.828v-3.312h-3.311v-0.827
			h3.311v-3.312h0.828v3.312h3.312V23.066z"/>
	</g>
</g>
</svg>
