<?xml version="1.0" encoding="utf-8"?>
<!-- Generator: Adobe Illustrator 16.0.0, SVG Export Plug-In . SVG Version: 6.00 Build 0)  -->
<!DOCTYPE svg PUBLIC "-//W3C//DTD SVG 1.1//EN" "http://www.w3.org/Graphics/SVG/1.1/DTD/svg11.dtd">
<svg version="1.1" id="Layer_1" xmlns="http://www.w3.org/2000/svg" xmlns:xlink="http://www.w3.org/1999/xlink" x="0px" y="0px"
	 width="26px" height="26px" viewBox="0 0 26 26" enable-background="new 0 0 26 26" xml:space="preserve">
<g>
	<g>
		<g>
			<path fill="none" stroke="#575B5D" stroke-miterlimit="10" d="M13.073,1.102c-6.43,0-11.642,5.212-11.642,11.643
				c0,2.196,0.61,4.255,1.671,6.011L1,25l6.445-2.062c1.668,0.922,3.587,1.447,5.628,1.447c6.43,0,11.641-5.211,11.641-11.64
				C24.714,6.314,19.503,1.102,13.073,1.102z M13.073,22.531c-1.988,0-3.84-0.598-5.385-1.617l-3.762,1.203l1.223-3.635
				c-1.172-1.613-1.863-3.598-1.863-5.737c0-5.4,4.391-9.79,9.787-9.79c5.395,0,9.788,4.39,9.788,9.79
				C22.861,18.141,18.468,22.531,13.073,22.531z"/>
		</g>
	</g>
	<path fill-rule="evenodd" clip-rule="evenodd" fill="none" stroke="#575B5D" stroke-miterlimit="10" d="M13.073,2.956
		c-5.396,0-9.787,4.39-9.787,9.79c0,2.14,0.691,4.124,1.863,5.737l-1.223,3.635l3.762-1.203c1.545,1.02,3.396,1.617,5.385,1.617
		c5.395,0,9.788-4.391,9.788-9.786C22.861,7.345,18.468,2.956,13.073,2.956z"/>
	<path fill-rule="evenodd" clip-rule="evenodd" fill="#575B5D" d="M10.343,7.927C10.104,7.357,9.866,7.454,9.7,7.454
		S9.343,7.429,9.154,7.429c-0.191,0-0.501,0.07-0.763,0.355c-0.26,0.287-0.998,0.977-0.998,2.38c0,1.404,1.022,2.762,1.166,2.952
		c0.143,0.191,1.973,3.165,4.874,4.308c2.9,1.143,2.9,0.762,3.425,0.715c0.523-0.049,1.686-0.691,1.926-1.357
		c0.238-0.666,0.238-1.238,0.168-1.355c-0.072-0.121-0.264-0.191-0.549-0.334s-1.688-0.832-1.949-0.927
		c-0.262-0.098-0.453-0.145-0.643,0.142c-0.189,0.285-0.736,0.928-0.904,1.119c-0.166,0.189-0.332,0.213-0.617,0.07
		s-1.206-0.443-2.295-1.415c-0.848-0.756-1.422-1.691-1.587-1.979c-0.167-0.285-0.018-0.439,0.124-0.581
		c0.129-0.129,0.285-0.333,0.43-0.5c0.142-0.167,0.188-0.285,0.283-0.477c0.096-0.188,0.049-0.355-0.023-0.499
		C11.149,9.904,10.581,8.5,10.343,7.927z"/>
</g>
</svg>
