<?xml version="1.0" encoding="utf-8"?>
<!-- Generator: Adobe Illustrator 16.0.0, SVG Export Plug-In . SVG Version: 6.00 Build 0)  -->
<!DOCTYPE svg PUBLIC "-//W3C//DTD SVG 1.1//EN" "http://www.w3.org/Graphics/SVG/1.1/DTD/svg11.dtd">
<svg version="1.1" id="Layer_1" xmlns="http://www.w3.org/2000/svg" xmlns:xlink="http://www.w3.org/1999/xlink" x="0px" y="0px"
	 width="24.007px" height="30.684px" viewBox="6.737 0 24.007 30.684" enable-background="new 6.737 0 24.007 30.684"
	 xml:space="preserve">
<g>
	<g>
		<g>
			<path fill="#FFFFFF" stroke="#FFFFFF" stroke-width="0.25" stroke-miterlimit="10" d="M18.881,19.926
				c-0.859,0-1.55,0.694-1.55,1.551c0,0.854,0.69,1.549,1.55,1.549c0.856,0,1.551-0.693,1.551-1.549S19.74,19.926,18.881,19.926z"/>
		</g>
	</g>
	<g>
		<g>
			<path fill="#FFFFFF" stroke="#FFFFFF" stroke-width="0.25" stroke-miterlimit="10" d="M7.3,11.296
				c-0.072,0-0.146-0.025-0.203-0.077c-0.127-0.112-0.141-0.307-0.027-0.436c3.148-3.592,7.343-5.569,11.803-5.569
				c4.34,0,8.455,1.9,11.586,5.35c0.115,0.126,0.104,0.321-0.021,0.437c-0.127,0.115-0.321,0.103-0.436-0.021
				C26.99,7.66,23.036,5.832,18.872,5.832c-4.281,0-8.309,1.902-11.339,5.357C7.472,11.261,7.386,11.296,7.3,11.296z"/>
		</g>
	</g>
	<g>
		<g>
			<path fill="#FFFFFF" stroke="#FFFFFF" stroke-width="0.25" stroke-miterlimit="10" d="M10.599,15.059
				c-0.072,0-0.145-0.024-0.203-0.076c-0.127-0.112-0.141-0.307-0.026-0.436c2.271-2.587,5.291-4.012,8.501-4.012
				c3.127,0,6.09,1.368,8.346,3.854c0.115,0.126,0.104,0.321-0.021,0.437c-0.127,0.114-0.321,0.104-0.436-0.021
				c-2.137-2.354-4.939-3.651-7.889-3.651c-3.031,0-5.887,1.351-8.039,3.803C10.771,15.024,10.685,15.059,10.599,15.059z"/>
		</g>
	</g>
	<g>
		<g>
			<path fill="#FFFFFF" stroke="#FFFFFF" stroke-width="0.25" stroke-miterlimit="10" d="M13.554,18.425
				c-0.072,0-0.145-0.025-0.203-0.077c-0.127-0.111-0.141-0.307-0.029-0.435c1.479-1.687,3.447-2.613,5.547-2.613
				c2.036,0,3.971,0.894,5.442,2.516c0.113,0.126,0.104,0.321-0.021,0.438c-0.129,0.113-0.322,0.104-0.438-0.021
				c-1.354-1.491-3.123-2.312-4.983-2.312c-1.919,0-3.723,0.853-5.08,2.401C13.726,18.389,13.64,18.425,13.554,18.425z"/>
		</g>
	</g>
</g>
</svg>
